<?xml version="1.0" encoding="UTF-8"?>
<svg width="200px" height="178px" viewBox="0 0 200 178" version="1.1" xmlns="http://www.w3.org/2000/svg" xmlns:xlink="http://www.w3.org/1999/xlink">
    <!-- Generator: Sketch 55.2 (78181) - https://sketchapp.com -->
    <title>logo5</title>
    <desc>Created with Sketch.</desc>
    <defs>
        <radialGradient cx="159.277152%" cy="-42.2635605%" fx="159.277152%" fy="-42.2635605%" r="291.685369%" gradientTransform="translate(1.592772,-0.422636),scale(1.000000,0.665763),translate(-1.592772,0.422636)" id="radialGradient-1">
            <stop stop-color="#FFFFFF" offset="0%"></stop>
            <stop stop-color="#E5E432" offset="28%"></stop>
            <stop stop-color="#569344" offset="80%"></stop>
        </radialGradient>
        <radialGradient cx="-10.7975557%" cy="29.3593962%" fx="-10.7975557%" fy="29.3593962%" r="120.651771%" gradientTransform="translate(-0.107976,0.293594),scale(1.000000,0.620621),translate(0.107976,-0.293594)" id="radialGradient-2">
            <stop stop-color="#FFFFFF" offset="0%"></stop>
            <stop stop-color="#E5E432" offset="28%"></stop>
            <stop stop-color="#569344" offset="80%"></stop>
        </radialGradient>
        <radialGradient cx="-20.2550323%" cy="140.117052%" fx="-20.2550323%" fy="140.117052%" r="396.581026%" gradientTransform="translate(-0.202550,1.401171),scale(1.000000,0.479826),translate(0.202550,-1.401171)" id="radialGradient-3">
            <stop stop-color="#FFFFFF" offset="0%"></stop>
            <stop stop-color="#E5E432" offset="28%"></stop>
            <stop stop-color="#569344" offset="80%"></stop>
        </radialGradient>
        <radialGradient cx="14.9705677%" cy="35.6261023%" fx="14.9705677%" fy="35.6261023%" r="135.590508%" gradientTransform="translate(0.149706,0.356261),scale(1.000000,0.523617),translate(-0.149706,-0.356261)" id="radialGradient-4">
            <stop stop-color="#FFFFFF" offset="0%"></stop>
            <stop stop-color="#FFFFFF" offset="33%"></stop>
            <stop stop-color="#FFFFFF" stop-opacity="0" offset="66%"></stop>
            <stop stop-color="#FFFFFF" stop-opacity="0" offset="100%"></stop>
        </radialGradient>
        <radialGradient cx="70.4325371%" cy="46.8454259%" fx="70.4325371%" fy="46.8454259%" r="165.913493%" gradientTransform="translate(0.704325,0.468454),scale(1.000000,0.488644),translate(-0.704325,-0.468454)" id="radialGradient-5">
            <stop stop-color="#FFFFFF" offset="0%"></stop>
            <stop stop-color="#FFFFFF" offset="33%"></stop>
            <stop stop-color="#FFFFFF" stop-opacity="0" offset="66%"></stop>
            <stop stop-color="#FFFFFF" stop-opacity="0" offset="100%"></stop>
        </radialGradient>
        <radialGradient cx="22.8727653%" cy="47.6800554%" fx="22.8727653%" fy="47.6800554%" r="187.448469%" gradientTransform="translate(0.228728,0.476801),scale(1.000000,0.319201),translate(-0.228728,-0.476801)" id="radialGradient-6">
            <stop stop-color="#FFFFFF" offset="0%"></stop>
            <stop stop-color="#FFFFFF" offset="33%"></stop>
            <stop stop-color="#FFFFFF" stop-opacity="0" offset="66%"></stop>
            <stop stop-color="#FFFFFF" stop-opacity="0" offset="100%"></stop>
        </radialGradient>
        <linearGradient x1="23.8407076%" y1="172.073627%" x2="55.6200916%" y2="11.015243%" id="linearGradient-7">
            <stop stop-color="#FFFFFF" offset="0%"></stop>
            <stop stop-color="#FFFFFF" stop-opacity="0" offset="100%"></stop>
        </linearGradient>
        <radialGradient cx="46.2923425%" cy="178.002523%" fx="46.2923425%" fy="178.002523%" r="218.837392%" id="radialGradient-8">
            <stop stop-color="#FFFFFF" offset="0%"></stop>
            <stop stop-color="#E5E432" offset="28%"></stop>
            <stop stop-color="#569344" offset="80%"></stop>
        </radialGradient>
        <linearGradient x1="50.046981%" y1="140.19223%" x2="50.046981%" y2="69.8879881%" id="linearGradient-9">
            <stop stop-color="#FFFFFF" offset="0%"></stop>
            <stop stop-color="#FFFFFF" stop-opacity="0" offset="100%"></stop>
        </linearGradient>
        <linearGradient x1="50.029994%" y1="-206.337104%" x2="50.029994%" y2="133.789922%" id="linearGradient-10">
            <stop stop-color="#FFFFFF" offset="0%"></stop>
            <stop stop-color="#FFFFFF" stop-opacity="0" offset="100%"></stop>
        </linearGradient>
        <radialGradient cx="-31.4730409%" cy="-56.8411658%" fx="-31.4730409%" fy="-56.8411658%" r="244.948168%" gradientTransform="translate(-0.314730,-0.568412),scale(1.000000,0.890407),rotate(-72.000000),translate(0.314730,0.568412)" id="radialGradient-11">
            <stop stop-color="#FFFFFF" offset="0%"></stop>
            <stop stop-color="#E7B539" offset="50%"></stop>
            <stop stop-color="#AB2027" offset="100%"></stop>
        </radialGradient>
        <radialGradient cx="-118.203414%" cy="82.61959%" fx="-118.203414%" fy="82.61959%" r="93.2437608%" gradientTransform="translate(-1.182034,0.826196),scale(1.000000,0.945180),translate(1.182034,-0.826196)" id="radialGradient-12">
            <stop stop-color="#FFFFFF" offset="0%"></stop>
            <stop stop-color="#E7B539" offset="50%"></stop>
            <stop stop-color="#AB2027" offset="100%"></stop>
        </radialGradient>
        <radialGradient cx="-120.295567%" cy="264.528843%" fx="-120.295567%" fy="264.528843%" r="256.288069%" gradientTransform="translate(-1.202956,2.645288),scale(0.916585,1.000000),translate(1.202956,-2.645288)" id="radialGradient-13">
            <stop stop-color="#FFFFFF" offset="0%"></stop>
            <stop stop-color="#E7B539" offset="50%"></stop>
            <stop stop-color="#AB2027" offset="100%"></stop>
        </radialGradient>
        <radialGradient cx="25.7111433%" cy="70.5124774%" fx="25.7111433%" fy="70.5124774%" r="93.9818418%" gradientTransform="translate(0.257111,0.705125),scale(0.928646,1.000000),rotate(-72.000000),translate(-0.257111,-0.705125)" id="radialGradient-14">
            <stop stop-color="#FFFFFF" offset="0%"></stop>
            <stop stop-color="#FFFFFF" offset="33%"></stop>
            <stop stop-color="#FFFFFF" stop-opacity="0" offset="66%"></stop>
            <stop stop-color="#FFFFFF" stop-opacity="0" offset="100%"></stop>
        </radialGradient>
        <radialGradient cx="50.0899171%" cy="36.4968897%" fx="50.0899171%" fy="36.4968897%" r="104.76967%" gradientTransform="translate(0.500899,0.364969),scale(0.967271,1.000000),rotate(-72.000000),translate(-0.500899,-0.364969)" id="radialGradient-15">
            <stop stop-color="#FFFFFF" offset="0%"></stop>
            <stop stop-color="#FFFFFF" offset="33%"></stop>
            <stop stop-color="#FFFFFF" stop-opacity="0" offset="66%"></stop>
            <stop stop-color="#FFFFFF" stop-opacity="0" offset="100%"></stop>
        </radialGradient>
        <radialGradient cx="43.7665998%" cy="65.563235%" fx="43.7665998%" fy="65.563235%" r="102.734839%" gradientTransform="translate(0.437666,0.655632),scale(0.675773,1.000000),rotate(-72.000000),translate(-0.437666,-0.655632)" id="radialGradient-16">
            <stop stop-color="#FFFFFF" offset="0%"></stop>
            <stop stop-color="#FFFFFF" offset="33%"></stop>
            <stop stop-color="#FFFFFF" stop-opacity="0" offset="66%"></stop>
            <stop stop-color="#FFFFFF" stop-opacity="0" offset="100%"></stop>
        </radialGradient>
        <linearGradient x1="175.122046%" y1="138.927006%" x2="14.711978%" y2="26.4118592%" id="linearGradient-17">
            <stop stop-color="#FFFFFF" offset="0%"></stop>
            <stop stop-color="#FFFFFF" stop-opacity="0" offset="100%"></stop>
        </linearGradient>
        <radialGradient cx="-113.65815%" cy="101.593481%" fx="-113.65815%" fy="101.593481%" r="218.791539%" gradientTransform="translate(-1.136582,1.015935),scale(1.000000,0.999912),translate(1.136582,-1.015935)" id="radialGradient-18">
            <stop stop-color="#FFFFFF" offset="0%"></stop>
            <stop stop-color="#E7B539" offset="50%"></stop>
            <stop stop-color="#AB2027" offset="100%"></stop>
        </radialGradient>
        <linearGradient x1="135.931161%" y1="78.0274084%" x2="69.0670294%" y2="56.3045568%" id="linearGradient-19">
            <stop stop-color="#FFFFFF" offset="0%"></stop>
            <stop stop-color="#FFFFFF" stop-opacity="0" offset="100%"></stop>
        </linearGradient>
        <linearGradient x1="-30.7365442%" y1="6.19671059%" x2="71.7348314%" y2="58.0935984%" id="linearGradient-20">
            <stop stop-color="#FFFFFF" offset="0%"></stop>
            <stop stop-color="#FFFFFF" stop-opacity="0" offset="100%"></stop>
        </linearGradient>
        <radialGradient cx="-52.4298377%" cy="96.7420286%" fx="-52.4298377%" fy="96.7420286%" r="323.235699%" gradientTransform="translate(-0.524298,0.967420),scale(0.555001,1.000000),rotate(-144.000000),translate(0.524298,-0.967420)" id="radialGradient-21">
            <stop stop-color="#FFFFFF" offset="0%"></stop>
            <stop stop-color="#C50018" offset="50%"></stop>
            <stop stop-color="#732125" offset="100%"></stop>
        </radialGradient>
        <radialGradient cx="-279.674797%" cy="-169.607553%" fx="-279.674797%" fy="-169.607553%" r="123.626907%" gradientTransform="translate(-2.796748,-1.696076),scale(0.578266,1.000000),translate(2.796748,1.696076)" id="radialGradient-22">
            <stop stop-color="#FFFFFF" offset="0%"></stop>
            <stop stop-color="#C50018" offset="50%"></stop>
            <stop stop-color="#732125" offset="100%"></stop>
        </radialGradient>
        <radialGradient cx="-381.777778%" cy="-94.3233505%" fx="-381.777778%" fy="-94.3233505%" r="342.954583%" gradientTransform="translate(-3.817778,-0.943234),scale(0.579361,1.000000),translate(3.817778,0.943234)" id="radialGradient-23">
            <stop stop-color="#FFFFFF" offset="0%"></stop>
            <stop stop-color="#C50018" offset="50%"></stop>
            <stop stop-color="#732125" offset="100%"></stop>
        </radialGradient>
        <radialGradient cx="58.7799118%" cy="83.7306646%" fx="58.7799118%" fy="83.7306646%" r="116.932584%" gradientTransform="translate(0.587799,0.837307),scale(0.627708,1.000000),rotate(-144.000000),translate(-0.587799,-0.837307)" id="radialGradient-24">
            <stop stop-color="#FFFFFF" offset="0%"></stop>
            <stop stop-color="#FFFFFF" offset="33%"></stop>
            <stop stop-color="#FFFFFF" stop-opacity="0" offset="66%"></stop>
            <stop stop-color="#FFFFFF" stop-opacity="0" offset="100%"></stop>
        </radialGradient>
        <radialGradient cx="39.8823318%" cy="45.1189296%" fx="39.8823318%" fy="45.1189296%" r="150.666202%" gradientTransform="translate(0.398823,0.451189),scale(0.547243,1.000000),rotate(-144.000000),translate(-0.398823,-0.451189)" id="radialGradient-25">
            <stop stop-color="#FFFFFF" offset="0%"></stop>
            <stop stop-color="#FFFFFF" offset="33%"></stop>
            <stop stop-color="#FFFFFF" stop-opacity="0" offset="66%"></stop>
            <stop stop-color="#FFFFFF" stop-opacity="0" offset="100%"></stop>
        </radialGradient>
        <radialGradient cx="58.4364381%" cy="62.1001804%" fx="58.4364381%" fy="62.1001804%" r="93.5064935%" gradientTransform="translate(0.584364,0.621002),scale(0.780076,1.000000),rotate(-144.000000),translate(-0.584364,-0.621002)" id="radialGradient-26">
            <stop stop-color="#FFFFFF" offset="0%"></stop>
            <stop stop-color="#FFFFFF" offset="33%"></stop>
            <stop stop-color="#FFFFFF" stop-opacity="0" offset="66%"></stop>
            <stop stop-color="#FFFFFF" stop-opacity="0" offset="100%"></stop>
        </radialGradient>
        <linearGradient x1="151.381269%" y1="-2.76606761%" x2="18.9052916%" y2="63.9855226%" id="linearGradient-27">
            <stop stop-color="#FFFFFF" offset="0%"></stop>
            <stop stop-color="#FFFFFF" stop-opacity="0" offset="100%"></stop>
        </linearGradient>
        <radialGradient cx="-732.223231%" cy="-346.011283%" fx="-732.223231%" fy="-346.011283%" r="219.019049%" gradientTransform="translate(-7.322232,-3.460113),scale(1.000000,0.999967),translate(7.322232,3.460113)" id="radialGradient-28">
            <stop stop-color="#FFFFFF" offset="0%"></stop>
            <stop stop-color="#C50018" offset="50%"></stop>
            <stop stop-color="#732125" offset="100%"></stop>
        </radialGradient>
        <linearGradient x1="103.066212%" y1="-23.0890893%" x2="61.7509566%" y2="33.7679213%" id="linearGradient-29">
            <stop stop-color="#FFFFFF" offset="0%"></stop>
            <stop stop-color="#FFFFFF" stop-opacity="0" offset="100%"></stop>
        </linearGradient>
        <linearGradient x1="-39.0002133%" y1="153.734156%" x2="68.3113924%" y2="26.0296859%" id="linearGradient-30">
            <stop stop-color="#FFFFFF" offset="0%"></stop>
            <stop stop-color="#FFFFFF" stop-opacity="0" offset="100%"></stop>
        </linearGradient>
        <radialGradient cx="35.1251905%" cy="149.155539%" fx="35.1251905%" fy="149.155539%" r="361.518772%" gradientTransform="translate(0.351252,1.491555),scale(1.000000,0.459893),rotate(144.000000),translate(-0.351252,-1.491555)" id="radialGradient-31">
            <stop stop-color="#FFFFFF" offset="0%"></stop>
            <stop stop-color="#B9428D" offset="50%"></stop>
            <stop stop-color="#58368C" offset="100%"></stop>
        </radialGradient>
        <radialGradient cx="-1125.97772%" cy="-310.260752%" fx="-1125.97772%" fy="-310.260752%" r="181.630511%" gradientTransform="translate(-11.259777,-3.102608),scale(1.000000,0.360675),translate(11.259777,3.102608)" id="radialGradient-32">
            <stop stop-color="#FFFFFF" offset="0%"></stop>
            <stop stop-color="#B9428D" offset="50%"></stop>
            <stop stop-color="#58368C" offset="100%"></stop>
        </radialGradient>
        <radialGradient cx="-1618.90036%" cy="-405.780632%" fx="-1618.90036%" fy="-405.780632%" r="519.673551%" gradientTransform="translate(-16.189004,-4.057806),scale(1.000000,0.340030),translate(16.189004,4.057806)" id="radialGradient-33">
            <stop stop-color="#FFFFFF" offset="0%"></stop>
            <stop stop-color="#B9428D" offset="50%"></stop>
            <stop stop-color="#58368C" offset="100%"></stop>
        </radialGradient>
        <radialGradient cx="91.423227%" cy="49.3635537%" fx="91.423227%" fy="49.3635537%" r="177.433421%" gradientTransform="translate(0.914232,0.493636),scale(1.000000,0.368906),rotate(144.000000),translate(-0.914232,-0.493636)" id="radialGradient-34">
            <stop stop-color="#FFFFFF" offset="0%"></stop>
            <stop stop-color="#FFFFFF" offset="33%"></stop>
            <stop stop-color="#FFFFFF" stop-opacity="0" offset="66%"></stop>
            <stop stop-color="#FFFFFF" stop-opacity="0" offset="100%"></stop>
        </radialGradient>
        <radialGradient cx="43.7088197%" cy="57.6711454%" fx="43.7088197%" fy="57.6711454%" r="288.175909%" gradientTransform="translate(0.437088,0.576711),scale(1.000000,0.256564),rotate(144.000000),translate(-0.437088,-0.576711)" id="radialGradient-35">
            <stop stop-color="#FFFFFF" offset="0%"></stop>
            <stop stop-color="#FFFFFF" offset="33%"></stop>
            <stop stop-color="#FFFFFF" stop-opacity="0" offset="66%"></stop>
            <stop stop-color="#FFFFFF" stop-opacity="0" offset="100%"></stop>
        </radialGradient>
        <radialGradient cx="72.2193857%" cy="45.762449%" fx="72.2193857%" fy="45.762449%" r="157.832801%" gradientTransform="translate(0.722194,0.457624),scale(1.000000,0.387687),rotate(144.000000),translate(-0.722194,-0.457624)" id="radialGradient-36">
            <stop stop-color="#FFFFFF" offset="0%"></stop>
            <stop stop-color="#FFFFFF" offset="33%"></stop>
            <stop stop-color="#FFFFFF" stop-opacity="0" offset="66%"></stop>
            <stop stop-color="#FFFFFF" stop-opacity="0" offset="100%"></stop>
        </radialGradient>
        <linearGradient x1="29.6140238%" y1="-60.5048381%" x2="55.4090994%" y2="86.764987%" id="linearGradient-37">
            <stop stop-color="#FFFFFF" offset="0%"></stop>
            <stop stop-color="#FFFFFF" stop-opacity="0" offset="100%"></stop>
        </linearGradient>
        <radialGradient cx="-1163.36764%" cy="-855.280843%" fx="-1163.36764%" fy="-855.280843%" r="218.979215%" gradientTransform="translate(-11.633676,-8.552808),scale(1.000000,0.999971),translate(11.633676,8.552808)" id="radialGradient-38">
            <stop stop-color="#FFFFFF" offset="0%"></stop>
            <stop stop-color="#B9428D" offset="50%"></stop>
            <stop stop-color="#58368C" offset="100%"></stop>
        </radialGradient>
        <linearGradient x1="-3.11309216%" y1="-23.0381836%" x2="38.210285%" y2="33.8298084%" id="linearGradient-39">
            <stop stop-color="#FFFFFF" offset="0%"></stop>
            <stop stop-color="#FFFFFF" stop-opacity="0" offset="100%"></stop>
        </linearGradient>
        <linearGradient x1="138.997484%" y1="153.813274%" x2="31.6752415%" y2="26.110142%" id="linearGradient-40">
            <stop stop-color="#FFFFFF" offset="0%"></stop>
            <stop stop-color="#FFFFFF" stop-opacity="0" offset="100%"></stop>
        </linearGradient>
        <radialGradient cx="145.929606%" cy="133.878092%" fx="145.929606%" fy="133.878092%" r="369.143434%" gradientTransform="translate(1.459296,1.338781),scale(0.461381,1.000000),rotate(72.000000),translate(-1.459296,-1.338781)" id="radialGradient-41">
            <stop stop-color="#FFFFFF" offset="0%"></stop>
            <stop stop-color="#6AAFE4" offset="50%"></stop>
            <stop stop-color="#35368C" offset="100%"></stop>
        </radialGradient>
        <radialGradient cx="-247.40639%" cy="-1129.72589%" fx="-247.40639%" fy="-1129.72589%" r="175.073942%" gradientTransform="translate(-2.474064,-11.297259),scale(0.379581,1.000000),translate(2.474064,11.297259)" id="radialGradient-42">
            <stop stop-color="#FFFFFF" offset="0%"></stop>
            <stop stop-color="#6AAFE4" offset="50%"></stop>
            <stop stop-color="#35368C" offset="100%"></stop>
        </radialGradient>
        <radialGradient cx="-358.976857%" cy="-1889.99844%" fx="-358.976857%" fy="-1889.99844%" r="601.816267%" gradientTransform="translate(-3.589769,-18.899984),scale(0.289501,1.000000),translate(3.589769,18.899984)" id="radialGradient-43">
            <stop stop-color="#FFFFFF" offset="0%"></stop>
            <stop stop-color="#6AAFE4" offset="50%"></stop>
            <stop stop-color="#35368C" offset="100%"></stop>
        </radialGradient>
        <radialGradient cx="56.569783%" cy="6.86308415%" fx="56.569783%" fy="6.86308415%" r="211.528197%" gradientTransform="translate(0.565698,0.068631),scale(0.306151,1.000000),rotate(72.000000),translate(-0.565698,-0.068631)" id="radialGradient-44">
            <stop stop-color="#FFFFFF" offset="0%"></stop>
            <stop stop-color="#FFFFFF" offset="33%"></stop>
            <stop stop-color="#FFFFFF" stop-opacity="0" offset="66%"></stop>
            <stop stop-color="#FFFFFF" stop-opacity="0" offset="100%"></stop>
        </radialGradient>
        <radialGradient cx="55.5196412%" cy="73.740388%" fx="55.5196412%" fy="73.740388%" r="366.877394%" gradientTransform="translate(0.555196,0.737404),scale(0.200488,1.000000),rotate(72.000000),translate(-0.555196,-0.737404)" id="radialGradient-45">
            <stop stop-color="#FFFFFF" offset="0%"></stop>
            <stop stop-color="#FFFFFF" offset="33%"></stop>
            <stop stop-color="#FFFFFF" stop-opacity="0" offset="66%"></stop>
            <stop stop-color="#FFFFFF" stop-opacity="0" offset="100%"></stop>
        </radialGradient>
        <radialGradient cx="49.1438976%" cy="27.6102616%" fx="49.1438976%" fy="27.6102616%" r="354.209875%" gradientTransform="translate(0.491439,0.276103),scale(0.162615,1.000000),rotate(72.000000),translate(-0.491439,-0.276103)" id="radialGradient-46">
            <stop stop-color="#FFFFFF" offset="0%"></stop>
            <stop stop-color="#FFFFFF" offset="33%"></stop>
            <stop stop-color="#FFFFFF" stop-opacity="0" offset="66%"></stop>
            <stop stop-color="#FFFFFF" stop-opacity="0" offset="100%"></stop>
        </radialGradient>
        <linearGradient x1="-69.2852672%" y1="50.8685181%" x2="92.2400003%" y2="49.751047%" id="linearGradient-47">
            <stop stop-color="#FFFFFF" offset="0%"></stop>
            <stop stop-color="#FFFFFF" stop-opacity="0" offset="100%"></stop>
        </linearGradient>
        <radialGradient cx="-793.606023%" cy="-902.718512%" fx="-793.606023%" fy="-902.718512%" r="218.979838%" gradientTransform="translate(-7.936060,-9.027185),scale(1.000000,0.999754),translate(7.936060,9.027185)" id="radialGradient-48">
            <stop stop-color="#FFFFFF" offset="0%"></stop>
            <stop stop-color="#6AAFE4" offset="50%"></stop>
            <stop stop-color="#35368C" offset="100%"></stop>
        </radialGradient>
        <linearGradient x1="-35.9962701%" y1="77.8578533%" x2="30.9028967%" y2="56.1180767%" id="linearGradient-49">
            <stop stop-color="#FFFFFF" offset="0%"></stop>
            <stop stop-color="#FFFFFF" stop-opacity="0" offset="100%"></stop>
        </linearGradient>
        <linearGradient x1="131.532257%" y1="6.218239%" x2="28.1483241%" y2="58.2074287%" id="linearGradient-50">
            <stop stop-color="#FFFFFF" offset="0%"></stop>
            <stop stop-color="#FFFFFF" stop-opacity="0" offset="100%"></stop>
        </linearGradient>
    </defs>
    <g id="Page-1" stroke="none" stroke-width="1" fill="none" fill-rule="evenodd">
        <g id="Desktop-Full-HD" transform="translate(-1125.000000, -619.000000)">
            <g id="logo5" transform="translate(1125.000000, 619.000000)">
                <path d="M51.962963,165.777778 L51.962963,167.62963 L53.4722222,167.62963 L53.4722222,168.287037 L51.962963,168.287037 L51.962963,173.148148 C51.937491,173.471314 52.0118262,173.79451 52.1759259,174.074074 C52.3583909,174.284062 52.6302402,174.394178 52.9074074,174.37037 C53.1277895,174.364169 53.3474647,174.34251 53.5648148,174.305556 L53.5648148,174.962963 C53.2826083,175.046821 52.9886674,175.084345 52.6944444,175.074074 C52.239452,175.114271 51.792496,174.935489 51.4907407,174.592593 C51.2121078,174.174851 51.0787019,173.677019 51.1111111,173.175926 L51.1111111,168.305556 L49.7777778,168.305556 L49.7777778,167.648148 L51.1111111,167.648148 L51.1111111,165.796296 L51.962963,165.777778 Z" id="Path" fill="#3E3F3F" fill-rule="nonzero"></path>
                <path d="M59.75,174.953704 C59.6474257,174.623856 59.5943786,174.280609 59.5925926,173.935185 C59.3087711,174.305629 58.9361937,174.598596 58.5092593,174.787037 C58.0743334,174.989591 57.6001482,175.093911 57.1203704,175.092593 C56.4990626,175.121102 55.8901119,174.912602 55.4166667,174.509259 C54.9912221,174.132335 54.7540023,173.58673 54.7685185,173.018519 C54.7502574,172.342397 55.0830021,171.704929 55.6481481,171.333333 C56.3909482,170.882307 57.252627,170.666081 58.1203704,170.712963 L59.5833333,170.712963 L59.5833333,169.888889 C59.6088822,169.428017 59.4332216,168.978732 59.1018519,168.657407 C58.7060852,168.336081 58.2029748,168.177204 57.6944444,168.212963 C57.1963585,168.191637 56.7060545,168.341997 56.3055556,168.638889 C55.96397,168.87475 55.7571133,169.260883 55.75,169.675926 L54.9444444,169.675926 C54.950565,169.071523 55.2512654,168.508141 55.75,168.166667 C56.3200105,167.730432 57.0233283,167.504716 57.7407407,167.527778 C58.4335434,167.484851 59.1173136,167.702865 59.6574074,168.138889 C60.1398981,168.571598 60.4074506,169.194758 60.3888889,169.842593 L60.3888889,173.287037 C60.3625149,173.827136 60.4378977,174.36738 60.6111111,174.87963 L60.6111111,174.953704 L59.75,174.953704 Z M57.212963,174.37963 C57.7227331,174.388731 58.2242932,174.250481 58.6574074,173.981481 C59.0665784,173.740741 59.3903036,173.378168 59.5833333,172.944444 L59.5833333,171.333333 L58.1388889,171.333333 C57.4929097,171.312652 56.8532659,171.466166 56.287037,171.777778 C55.8628271,172.015833 55.6033075,172.467326 55.6111111,172.953704 C55.6011487,173.34423 55.767835,173.718424 56.0648148,173.972222 C56.3877553,174.23671 56.7957649,174.374907 57.212963,174.361111 L57.212963,174.37963 Z" id="Shape" fill="#3E3F3F" fill-rule="nonzero"></path>
                <path d="M62.212963,171.25 C62.1596517,170.286662 62.4266143,169.332759 62.9722222,168.537037 C63.4497466,167.884131 64.2193406,167.509734 65.0277778,167.537037 C65.9419873,167.49574 66.8080437,167.948211 67.2962963,168.722222 L67.2962963,167.675926 L68.0555556,167.675926 L68.0555556,174.814815 C68.0973552,175.633269 67.8145302,176.435161 67.2685185,177.046296 C66.7028127,177.609005 65.9266521,177.908045 65.1296296,177.87037 C64.6247983,177.872646 64.1266154,177.75524 63.6759259,177.527778 C63.2370565,177.319942 62.8603379,177.000689 62.5833333,176.601852 L63.037037,176.12037 C63.5110783,176.774374 64.2664033,177.165769 65.0740741,177.175926 C65.6608545,177.210701 66.234253,176.99146 66.6481481,176.574074 C67.0494306,176.117166 67.2613611,175.524423 67.2407407,174.916667 L67.2407407,173.990741 C66.7225626,174.714559 65.8703043,175.123224 64.9814815,175.074074 C64.1781789,175.091471 63.4172545,174.714467 62.9444444,174.064815 C62.3855247,173.250568 62.1150017,172.272774 62.1759259,171.287037 L62.212963,171.25 Z M63.0277778,171.388889 C62.9853629,172.162783 63.1791061,172.931297 63.5833333,173.592593 C63.9394631,174.113256 64.5361355,174.416826 65.1666667,174.398148 C66.0814643,174.444631 66.9266588,173.910824 67.2777778,173.064815 L67.2777778,169.675926 C67.1153909,169.24684 66.8324282,168.873844 66.462963,168.601852 C66.0801969,168.354415 65.631542,168.228533 65.1759259,168.240741 C64.5471509,168.219994 63.9508472,168.519889 63.5925926,169.037037 C63.1744356,169.737116 62.9775616,170.547204 63.0277778,171.361111 L63.0277778,171.388889 Z" id="Shape" fill="#3E3F3F" fill-rule="nonzero"></path>
                <polygon id="Path" fill="#3E3F3F" fill-rule="nonzero" points="71.0925926 174.953704 70.287037 174.953704 70.287037 164.583333 71.0925926 164.583333"></polygon>
                <path d="M73.2407407,165.537037 C73.2362438,165.395578 73.2897655,165.258429 73.3888889,165.157407 C73.4941569,165.046411 73.643745,164.988616 73.7962963,165 C73.9484567,164.991181 74.0970006,165.048573 74.2037037,165.157407 C74.3028271,165.258429 74.3563488,165.395578 74.3518519,165.537037 C74.3586171,165.678876 74.3047535,165.816902 74.2037037,165.916667 C74.0950859,166.022556 73.9478933,166.079426 73.7962963,166.074074 C73.6445146,166.080535 73.4968973,166.023501 73.3888889,165.916667 C73.2878391,165.816902 73.2339754,165.678876 73.2407407,165.537037 Z M74.1666667,174.935185 L73.3518519,174.935185 L73.3518519,167.648148 L74.1666667,167.648148 L74.1666667,174.935185 Z" id="Shape" fill="#3E3F3F" fill-rule="nonzero"></path>
                <path d="M77.1481481,167.648148 L77.1481481,168.888889 C77.4022075,168.467927 77.754964,168.11517 78.1759259,167.861111 C78.5879426,167.627435 79.0541193,167.506101 79.5277778,167.509259 C80.1792119,167.461717 80.8187704,167.701974 81.2777778,168.166667 C81.6995685,168.737438 81.9032009,169.440299 81.8518519,170.148148 L81.8518519,174.953704 L81.1203704,174.953704 L81.1203704,170.166667 C81.1517251,169.645837 81.0047689,169.129857 80.7037037,168.703704 C80.3585894,168.362831 79.8814683,168.190256 79.3981481,168.231481 C78.9161602,168.225783 78.4474986,168.389651 78.0740741,168.694444 C77.677122,169.029336 77.3820049,169.468804 77.2222222,169.962963 L77.2222222,174.953704 L76.4166667,174.953704 L76.4166667,167.666667 L77.1481481,167.648148 Z" id="Path" fill="#3E3F3F" fill-rule="nonzero"></path>
                <path d="M86.787037,175.074074 C86.1960116,175.080138 85.6152165,174.919698 85.1111111,174.611111 C84.6044802,174.30705 84.1962132,173.863421 83.9351852,173.333333 C83.6493793,172.758545 83.5064476,172.123293 83.5185185,171.481481 L83.5185185,171.25 C83.5168611,170.610307 83.6559506,169.978082 83.9259259,169.398148 C84.1803693,168.862919 84.5736499,168.40569 85.0648148,168.074074 C85.5337326,167.734558 86.0970123,167.550035 86.6759259,167.546296 C87.4840979,167.516387 88.2616361,167.857413 88.787037,168.472222 C89.3377107,169.178183 89.6140145,170.059723 89.5648148,170.953704 L89.5648148,171.398148 L84.3611111,171.398148 L84.3611111,171.555556 C84.3317477,172.308833 84.5861804,173.045697 85.0740741,173.62037 C85.5099255,174.15707 86.1699351,174.461427 86.8611111,174.444444 C87.2533099,174.453821 87.6425805,174.374701 88,174.212963 C88.3666073,174.040225 88.6847212,173.779372 88.9259259,173.453704 L89.4351852,173.842593 C88.8338277,174.694268 87.8258193,175.163027 86.787037,175.074074 Z M86.6759259,168.194444 C86.0939152,168.183744 85.5361225,168.427145 85.1481481,168.861111 C84.7050635,169.360501 84.4383019,169.99162 84.3888889,170.657407 L88.7592593,170.657407 L88.7592593,170.574074 C88.7683741,169.949741 88.5550318,169.342536 88.1574074,168.861111 C87.7926131,168.422579 87.2460735,168.176636 86.6759259,168.194444 L86.6759259,168.194444 Z" id="Shape" fill="#3E3F3F" fill-rule="nonzero"></path>
                <path d="M94.1296296,171.25 C94.0763184,170.286662 94.343281,169.332759 94.8888889,168.537037 C95.3664132,167.884131 96.1360072,167.509734 96.9444444,167.537037 C97.858654,167.49574 98.7247103,167.948211 99.212963,168.722222 L99.212963,167.675926 L99.9722222,167.675926 L99.9722222,174.814815 C100.014022,175.633269 99.7311968,176.435161 99.1851852,177.046296 C98.6194793,177.609005 97.8433188,177.908045 97.0462963,177.87037 C96.541465,177.872646 96.043282,177.75524 95.5925926,177.527778 C95.1537232,177.319942 94.7770045,177.000689 94.5,176.601852 L94.9537037,176.12037 C95.4277449,176.774374 96.18307,177.165769 96.9907407,177.175926 C97.5775211,177.210701 98.1509197,176.99146 98.5648148,176.574074 C98.9660972,176.117166 99.1780278,175.524423 99.1574074,174.916667 L99.1574074,173.990741 C98.6392292,174.714559 97.7869709,175.123224 96.8981481,175.074074 C96.0948456,175.091471 95.3339212,174.714467 94.8611111,174.064815 C94.3021914,173.250568 94.0316684,172.272774 94.0925926,171.287037 L94.1296296,171.25 Z M94.9444444,171.388889 C94.9020296,172.162783 95.0957728,172.931297 95.5,173.592593 C95.8561298,174.113256 96.4528022,174.416826 97.0833333,174.398148 C97.998131,174.444631 98.8433254,173.910824 99.1944444,173.064815 L99.1944444,169.675926 C99.0320575,169.24684 98.7490949,168.873844 98.3796296,168.601852 C97.9968636,168.354415 97.5482086,168.228533 97.0925926,168.240741 C96.4638175,168.219994 95.8675139,168.519889 95.5092593,169.037037 C95.0911023,169.737116 94.8942283,170.547204 94.9444444,171.361111 L94.9444444,171.388889 Z" id="Shape" fill="#3E3F3F" fill-rule="nonzero"></path>
                <path d="M101.666667,171.185185 C101.653529,170.529446 101.793002,169.879629 102.074074,169.287037 C102.597481,168.198857 103.709487,167.517889 104.916667,167.546296 C105.815941,167.518133 106.68116,167.891365 107.277778,168.564815 C107.915733,169.321012 108.24622,170.289337 108.203704,171.277778 L108.203704,171.444444 C108.213205,172.09983 108.073907,172.748831 107.796296,173.342593 C107.548528,173.88007 107.149561,174.333734 106.648148,174.648148 C106.138292,174.959167 105.550875,175.119664 104.953704,175.111111 C104.057134,175.139096 103.19482,174.765653 102.601852,174.092593 C101.960655,173.338233 101.629721,172.368598 101.675926,171.37963 L101.666667,171.185185 Z M102.472222,171.407407 C102.444569,172.179776 102.683207,172.938184 103.148148,173.555556 C103.586176,174.082619 104.235976,174.387499 104.921296,174.387499 C105.606617,174.387499 106.256417,174.082619 106.694444,173.555556 C107.170281,172.918969 107.409305,172.136411 107.37037,171.342593 L107.37037,171.185185 C107.376601,170.66015 107.272503,170.139659 107.064815,169.657407 C106.880749,169.222581 106.579402,168.8475 106.194444,168.574074 C105.817144,168.320301 105.371323,168.187847 104.916667,168.194444 C104.227873,168.181218 103.574181,168.497742 103.157407,169.046296 C102.678274,169.68165 102.435941,170.464321 102.472222,171.259259 L102.472222,171.407407 Z" id="Shape" fill="#3E3F3F" fill-rule="nonzero"></path>
                <path d="M112.666667,175.074074 C112.072697,175.080382 111.488862,174.919988 110.981481,174.611111 C110.479917,174.303678 110.075478,173.86072 109.814815,173.333333 C109.529009,172.758545 109.386077,172.123293 109.398148,171.481481 L109.398148,171.25 C109.396491,170.610307 109.53558,169.978082 109.805556,169.398148 C110.056863,168.860884 110.450799,168.402894 110.944444,168.074074 C111.40844,167.758234 111.957233,167.590368 112.518519,167.592593 C113.324017,167.562786 114.098692,167.904053 114.62037,168.518519 C115.18053,169.219905 115.460926,170.103977 115.407407,171 L115.407407,171.444444 L110.203704,171.444444 L110.203704,171.601852 C110.176226,172.353263 110.426774,173.088423 110.907407,173.666667 C111.348765,174.201447 112.010463,174.50501 112.703704,174.490741 C113.095818,174.499173 113.484882,174.420095 113.842593,174.259259 C114.2092,174.086521 114.527314,173.825668 114.768519,173.5 L115.277778,173.888889 C114.672739,174.711148 113.68392,175.159974 112.666667,175.074074 L112.666667,175.074074 Z M112.518519,168.194444 C111.933788,168.183508 111.373057,168.426716 110.981481,168.861111 C110.541857,169.362677 110.275607,169.992586 110.222222,170.657407 L114.601852,170.657407 L114.601852,170.574074 C114.606216,169.950525 114.393427,169.344896 114,168.861111 C113.635206,168.422579 113.088666,168.176636 112.518519,168.194444 L112.518519,168.194444 Z" id="Shape" fill="#3E3F3F" fill-rule="nonzero"></path>
                <path d="M121.342593,173.101852 C121.341276,172.733509 121.161895,172.388546 120.861111,172.175926 C120.421732,171.885569 119.926621,171.690047 119.407407,171.601852 C118.887116,171.510519 118.380161,171.355011 117.898148,171.138889 C117.582598,170.988721 117.309054,170.762888 117.101852,170.481481 C116.92532,170.205469 116.835058,169.883106 116.842593,169.555556 C116.836419,168.990916 117.105964,168.458737 117.564815,168.12963 C118.099445,167.735324 118.752983,167.535994 119.416667,167.564815 C120.118279,167.530515 120.809682,167.743506 121.37037,168.166667 C121.851319,168.545486 122.12577,169.128694 122.111111,169.740741 L121.305556,169.740741 C121.305568,169.320713 121.10629,168.925593 120.768519,168.675926 C120.378396,168.386408 119.902292,168.236403 119.416667,168.25 C118.962521,168.2257 118.513138,168.3527 118.138889,168.611111 C117.829157,168.815798 117.647091,169.165925 117.657407,169.537037 C117.639817,169.867018 117.789458,170.183699 118.055556,170.37963 C118.504138,170.654751 119.00039,170.843201 119.518519,170.935185 C120.068171,171.048315 120.602679,171.225449 121.111111,171.462963 C121.427794,171.620206 121.698794,171.856135 121.898148,172.148148 C122.384005,172.965488 122.171908,174.017967 121.407407,174.583333 C120.836814,174.974817 120.154251,175.169835 119.462963,175.138889 C118.723875,175.175326 117.994767,174.956267 117.398148,174.518519 C116.889369,174.165716 116.590559,173.581993 116.601852,172.962963 L117.407407,172.962963 C117.425435,173.403946 117.647958,173.811334 118.009259,174.064815 C118.441136,174.343502 118.949624,174.47953 119.462963,174.453704 C119.944288,174.47611 120.420466,174.346538 120.824074,174.083333 C121.15966,173.87213 121.357262,173.498096 121.342593,173.101852 L121.342593,173.101852 Z" id="Path" fill="#3E3F3F" fill-rule="nonzero"></path>
                <path d="M128.12037,168.87963 C128.365701,168.459872 128.716908,168.111857 129.138889,167.87037 C129.548802,167.630548 130.015839,167.505792 130.490741,167.509259 C131.142726,167.457859 131.783859,167.698708 132.240741,168.166667 C132.661435,168.738366 132.867901,169.439697 132.824074,170.148148 L132.824074,174.953704 L132.046296,174.953704 L132.046296,170.166667 C132.082244,169.645346 131.934857,169.127855 131.62963,168.703704 C131.286613,168.359524 130.807898,168.186371 130.324074,168.231481 C129.842343,168.227347 129.374198,168.391034 129,168.694444 C128.604879,169.030974 128.310139,169.46988 128.148148,169.962963 L128.148148,174.953704 L127.351852,174.953704 L127.351852,164.583333 L128.148148,164.583333 L128.12037,168.87963 Z" id="Path" fill="#3E3F3F" fill-rule="nonzero"></path>
                <path d="M137.722222,175.074074 C137.128252,175.080382 136.544418,174.919988 136.037037,174.611111 C135.535473,174.303678 135.131033,173.86072 134.87037,173.333333 C134.584564,172.758545 134.441633,172.123293 134.453704,171.481481 L134.453704,171.25 C134.447674,170.609845 134.586973,169.976666 134.861111,169.398148 C135.111843,168.863308 135.502066,168.405915 135.990741,168.074074 C136.459659,167.734558 137.022938,167.550035 137.601852,167.546296 C138.407086,167.517872 139.181184,167.858885 139.703704,168.472222 C140.254377,169.178183 140.530681,170.059723 140.481481,170.953704 L140.481481,171.398148 L135.277778,171.398148 L135.277778,171.555556 C135.252883,172.308166 135.506775,173.043465 135.990741,173.62037 C136.430366,174.157399 137.093222,174.461493 137.787037,174.444444 C138.179152,174.452876 138.568215,174.373798 138.925926,174.212963 C139.290923,174.037687 139.608474,173.777295 139.851852,173.453704 L140.361111,173.842593 C139.761484,174.691264 138.757826,175.159638 137.722222,175.074074 L137.722222,175.074074 Z M137.601852,168.194444 C137.017121,168.183508 136.45639,168.426716 136.064815,168.861111 C135.62519,169.362677 135.35894,169.992586 135.305556,170.657407 L139.685185,170.657407 L139.685185,170.574074 C139.689549,169.950525 139.476761,169.344896 139.083333,168.861111 C138.718539,168.422579 138.171999,168.176636 137.601852,168.194444 Z" id="Shape" fill="#3E3F3F" fill-rule="nonzero"></path>
                <path d="M145.398148,168.333333 C145.218236,168.298356 145.035084,168.282835 144.851852,168.287037 C144.390614,168.274372 143.939184,168.421578 143.574074,168.703704 C143.208223,169.025976 142.949739,169.452475 142.833333,169.925926 L142.833333,174.953704 L142.027778,174.953704 L142.027778,167.666667 L142.814815,167.666667 L142.814815,168.824074 C143.166253,168.008685 143.98313,167.493537 144.87037,167.527778 C145.051038,167.518273 145.231505,167.549934 145.398148,167.62037 L145.398148,168.333333 Z" id="Path" fill="#3E3F3F" fill-rule="nonzero"></path>
                <path d="M149.5,175.074074 C148.90603,175.080382 148.322195,174.919988 147.814815,174.611111 C147.313251,174.303678 146.908811,173.86072 146.648148,173.333333 C146.362342,172.758545 146.219411,172.123293 146.231481,171.481481 L146.231481,171.25 C146.225452,170.609845 146.364751,169.976666 146.638889,169.398148 C146.889621,168.863308 147.279844,168.405915 147.768519,168.074074 C148.235119,167.756439 148.787413,167.588489 149.351852,167.592593 C150.157086,167.564169 150.931184,167.905181 151.453704,168.518519 C152.004377,169.224479 152.280681,170.10602 152.231481,171 L152.231481,171.444444 L147.027778,171.444444 L147.027778,171.601852 C147.002883,172.354463 147.256775,173.089761 147.740741,173.666667 C148.178347,174.201101 148.837184,174.504917 149.527778,174.490741 C149.922974,174.500244 150.315285,174.421149 150.675926,174.259259 C151.040923,174.083983 151.358474,173.823591 151.601852,173.5 L152.101852,173.888889 C151.498599,174.708195 150.51408,175.15666 149.5,175.074074 L149.5,175.074074 Z M149.351852,168.194444 C148.767121,168.183508 148.20639,168.426716 147.814815,168.861111 C147.37519,169.362677 147.10894,169.992586 147.055556,170.657407 L151.435185,170.657407 L151.435185,170.574074 C151.439549,169.950525 151.226761,169.344896 150.833333,168.861111 C150.468539,168.422579 149.921999,168.176636 149.351852,168.194444 Z" id="Shape" fill="#3E3F3F" fill-rule="nonzero"></path>
                <path d="M99.8796296,150.37963 C97.7205377,149.876876 95.7017987,148.895984 93.9722222,147.509259 C92.7696852,146.450346 92.0926602,144.916884 92.1203704,143.314815 C92.0896186,141.486153 92.9278695,139.751248 94.3796296,138.638889 C96.0568229,137.348673 98.1360592,136.692763 100.25,136.787037 C101.767624,136.754671 103.272391,137.071464 104.648148,137.712963 C105.867578,138.294585 106.90023,139.205372 107.62963,140.342593 C108.339923,141.446103 108.710207,142.734045 108.694444,144.046296 L105.518519,144.046296 C105.588759,142.756348 105.083485,141.501641 104.138889,140.62037 C103.043901,139.734026 101.655983,139.291214 100.25,139.37963 C98.9558558,139.302193 97.6735212,139.664379 96.6111111,140.407407 C95.7420174,141.092277 95.256035,142.153855 95.3055556,143.259259 C95.3011347,144.236628 95.7617487,145.157856 96.5462963,145.740741 C97.8212349,146.624312 99.2549365,147.253128 100.768519,147.592593 C102.384808,148.008631 103.940809,148.631031 105.398148,149.444444 C106.440971,150.002642 107.326267,150.814695 107.972222,151.805556 C108.532969,152.768202 108.815076,153.867777 108.787037,154.981481 C108.836037,156.803373 107.98831,158.533428 106.518519,159.611111 C104.752854,160.855961 102.62048,161.472197 100.462963,161.361111 C98.8716058,161.383692 97.2935935,161.068089 95.8333333,160.435185 C94.5152174,159.893712 93.3738504,158.996008 92.537037,157.842593 C91.7720859,156.760093 91.3671604,155.464332 91.3796296,154.138889 L94.5462963,154.138889 C94.4967859,155.472311 95.0931704,156.747815 96.1481481,157.564815 C97.3958949,158.451799 98.9062553,158.892185 100.435185,158.814815 C101.787156,158.904645 103.131079,158.546699 104.259259,157.796296 C105.135738,157.147854 105.634882,156.10797 105.592593,155.018519 C105.64364,153.968515 105.185104,152.958356 104.361111,152.305556 C102.991491,151.406286 101.474646,150.754419 99.8796296,150.37963 L99.8796296,150.37963 Z" id="Path" fill="#3E3F3F" fill-rule="nonzero"></path>
                <path d="M111.509259,151.990741 C111.48324,150.364431 111.835064,148.754278 112.537037,147.287037 C113.164811,145.962669 114.157349,144.844859 115.398148,144.064815 C116.658971,143.301604 118.109722,142.91003 119.583333,142.935185 C121.815472,142.859346 123.966041,143.778596 125.453704,145.444444 C127.014623,147.315454 127.814518,149.705224 127.694444,152.138889 L127.694444,152.351852 C127.714856,153.949762 127.376285,155.531871 126.703704,156.981481 C126.083402,158.302583 125.09677,159.417766 123.861111,160.194444 C122.581087,160.970342 121.107712,161.368378 119.611111,161.342593 C117.38216,161.419664 115.235559,160.49581 113.759259,158.824074 C112.196376,156.971816 111.39252,154.596636 111.509259,152.175926 L111.509259,151.990741 Z M114.564815,152.351852 C114.480815,154.042009 114.966645,155.711436 115.944444,157.092593 C116.820475,158.236774 118.179336,158.907788 119.62037,158.907788 C121.061404,158.907788 122.420266,158.236774 123.296296,157.092593 C124.284524,155.582247 124.755674,153.791879 124.638889,151.990741 C124.718757,150.299682 124.229773,148.630617 123.25,147.25 C122.373248,146.116472 121.020994,145.452853 119.587963,145.452853 C118.154932,145.452853 116.802678,146.116472 115.925926,147.25 C114.931187,148.758115 114.453494,150.548653 114.564815,152.351852 L114.564815,152.351852 Z" id="Shape" fill="#3E3F3F" fill-rule="nonzero"></path>
                <path d="M138.638889,158.888889 C139.673588,158.904082 140.680379,158.553181 141.481481,157.898148 C142.25728,157.304054 142.745113,156.409134 142.824074,155.435185 L145.703704,155.435185 C145.637219,156.485341 145.270878,157.494385 144.648148,158.342593 C143.983815,159.280669 143.095875,160.038123 142.064815,160.546296 C141.004363,161.088822 139.830061,161.371289 138.638889,161.37037 C136.446329,161.470713 134.324835,160.579957 132.861111,158.944444 C131.348202,157.077617 130.585584,154.713829 130.722222,152.314815 L130.722222,151.805556 C130.683671,150.212772 130.999953,148.631361 131.648148,147.175926 C132.242482,145.877427 133.209344,144.784873 134.425926,144.037037 C135.693294,143.26623 137.15605,142.877233 138.638889,142.916667 C140.463849,142.854515 142.243248,143.494038 143.611111,144.703704 C144.916463,145.894631 145.679005,147.566873 145.722222,149.333333 L142.842593,149.333333 C142.79406,148.251973 142.325685,147.232179 141.537037,146.490741 C140.753425,145.756709 139.712232,145.360856 138.638889,145.388889 C137.240186,145.320061 135.897018,145.94318 135.046296,147.055556 C134.110976,148.483234 133.665712,150.176535 133.777778,151.87963 L133.777778,152.453704 C133.671153,154.125906 134.1133,155.787208 135.037037,157.185185 C135.885814,158.309149 137.231591,158.945712 138.638889,158.888889 Z" id="Path" fill="#3E3F3F" fill-rule="nonzero"></path>
                <path d="M149.138889,138.546296 C149.127582,138.08904 149.285898,137.643777 149.583333,137.296296 C150.350187,136.618789 151.501665,136.618789 152.268519,137.296296 C152.572649,137.641052 152.737669,138.086608 152.731481,138.546296 C152.696432,139.275485 152.236253,139.916039 151.556387,140.181986 C150.876522,140.447933 150.103853,140.289641 149.583333,139.777778 C149.283102,139.439255 149.124044,138.998531 149.138889,138.546296 L149.138889,138.546296 Z M152.416667,161.064815 L149.37963,161.064815 L149.37963,143.287037 L152.416667,143.287037 L152.416667,161.064815 Z" id="Shape" fill="#3E3F3F" fill-rule="nonzero"></path>
                <path d="M164.657407,161.37037 C162.448226,161.449844 160.309812,160.584375 158.777778,158.990741 C157.209982,157.261295 156.3939,154.979598 156.509259,152.648148 L156.509259,152.083333 C156.484186,150.453185 156.829267,148.83859 157.518519,147.361111 C158.142366,146.038214 159.119704,144.913475 160.342593,144.111111 C161.509639,143.339609 162.878782,142.930477 164.277778,142.935185 C166.331609,142.820212 168.322459,143.665126 169.666667,145.222222 C170.950617,146.740741 171.592593,148.919753 171.592593,151.759259 L171.592593,153.018519 L159.555556,153.018519 C159.526057,154.576291 160.07349,156.089978 161.092593,157.268519 C162.03039,158.324835 163.384038,158.917056 164.796296,158.888889 C165.7463,158.918427 166.686699,158.691324 167.518519,158.231481 C168.278721,157.782904 168.945225,157.191853 169.481481,156.490741 L171.333333,157.935185 C169.886586,160.196246 167.338201,161.507551 164.657407,161.37037 Z M164.277778,145.435185 C163.105591,145.413066 161.981186,145.899296 161.194444,146.768519 C160.289245,147.823379 159.747144,149.141302 159.648148,150.527778 L168.555556,150.527778 L168.555556,150.296296 C168.550587,148.992979 168.110668,147.72862 167.305556,146.703704 C166.536791,145.849337 165.425957,145.383942 164.277778,145.435185 L164.277778,145.435185 Z" id="Shape" fill="#3E3F3F" fill-rule="nonzero"></path>
                <path d="M179.268519,138.962963 L179.268519,143.259259 L182.583333,143.259259 L182.583333,145.611111 L179.268519,145.611111 L179.268519,156.648148 C179.226692,157.220345 179.383683,157.789437 179.712963,158.259259 C180.110274,158.654491 180.665193,158.848543 181.222222,158.787037 C181.708925,158.769863 182.192748,158.704733 182.666667,158.592593 L182.666667,161.064815 C181.906404,161.274394 181.121935,161.383348 180.333333,161.388889 C179.161444,161.476045 178.015493,161.014244 177.231481,160.138889 C176.480497,159.132712 176.11281,157.891768 176.194444,156.638889 L176.194444,145.611111 L172.953704,145.611111 L172.953704,143.259259 L176.194444,143.259259 L176.194444,138.962963 L179.268519,138.962963 Z" id="Path" fill="#3E3F3F" fill-rule="nonzero"></path>
                <path d="M191.916667,156.583333 L196.055556,143.259259 L199.305556,143.259259 L192.157407,163.787037 C191.052469,166.743827 189.296296,168.222222 186.888889,168.222222 L186.314815,168.166667 L185.175926,167.953704 L185.175926,165.490741 L186,165.555556 C186.847687,165.606517 187.689921,165.389479 188.407407,164.935185 C189.102063,164.333728 189.599038,163.536632 189.833333,162.648148 L190.5,160.842593 L184.157407,143.25 L187.481481,143.25 L191.916667,156.583333 Z" id="Path" fill="#3E3F3F" fill-rule="nonzero"></path>
                <path d="M18.4351852,157.898148 C17.5956042,159.091201 16.4139883,160.001627 15.0462963,160.509259 C13.4242691,161.113312 11.7027193,161.405473 9.97222222,161.37037 C8.15053344,161.400427 6.35601107,160.926161 4.78703704,160 C3.25946452,159.069789 2.0391051,157.710972 1.27777778,156.092593 C0.42037841,154.258529 -0.0161924704,152.255997 1.05265568e-13,150.231481 L1.05265568e-13,148.101852 C1.05265568e-13,144.496914 0.842592593,141.719136 2.52777778,139.768519 C4.30357626,137.73665 6.91679265,136.636708 9.61111111,136.787037 C11.7881357,136.681712 13.9305647,137.3619 15.6481481,138.703704 C17.2281441,140.098923 18.2207153,142.041054 18.4259259,144.138889 L15.2777778,144.138889 C14.6604938,140.966049 12.7746914,139.376543 9.62037037,139.37037 C7.74392087,139.260694 5.93926452,140.10728 4.82407407,141.62037 C3.73148148,143.101852 3.18209877,145.262346 3.17592593,148.101852 L3.17592593,150.055556 C3.05659318,152.338665 3.70886665,154.595531 5.02777778,156.462963 C6.19701621,158.019651 8.05443001,158.905122 10,158.833333 C11.0502055,158.851406 12.0976683,158.720473 13.1111111,158.444444 C13.9503668,158.208137 14.7091472,157.747105 15.3055556,157.111111 L15.3055556,151.712963 L9.75,151.712963 L9.75,149.12963 L18.4259259,149.12963 L18.4351852,157.898148 Z" id="Path" fill="#3E3F3F" fill-rule="nonzero"></path>
                <path d="M31.8055556,145.990741 C31.3124488,145.913586 30.8139109,145.876428 30.3148148,145.87963 C28.5481103,145.736071 26.8976187,146.772339 26.2592593,148.425926 L26.2592593,161.064815 L23.212963,161.064815 L23.212963,143.287037 L26.1759259,143.287037 L26.2222222,145.342593 C27.0903545,143.829596 28.7192406,142.91557 30.462963,142.962963 C30.9222865,142.936799 31.3815133,143.015976 31.8055556,143.194444 L31.8055556,145.990741 Z" id="Path" fill="#3E3F3F" fill-rule="nonzero"></path>
                <path d="M41.9814815,161.37037 C39.7722998,161.449844 37.6338858,160.584375 36.1018519,158.990741 C34.5295768,157.263983 33.7128068,154.980361 33.8333333,152.648148 L33.8333333,152.083333 C33.803688,150.45274 34.1489859,148.837127 34.8425926,147.361111 C35.4509004,146.042222 36.412301,144.917383 37.6203704,144.111111 C38.786942,143.338595 40.1563998,142.929369 41.5555556,142.935185 C43.6093867,142.820212 45.600237,143.665126 46.9444444,145.222222 C48.2222222,146.740741 48.8703704,148.925926 48.8703704,151.759259 L48.8703704,153.018519 L36.8333333,153.018519 C36.8038345,154.576291 37.3512682,156.089978 38.3703704,157.268519 C39.3074122,158.325873 40.6615657,158.918315 42.0740741,158.888889 C43.0239357,158.917058 43.9639779,158.690041 44.7962963,158.231481 C45.5555537,157.785202 46.2194333,157.193689 46.75,156.490741 L48.6018519,157.935185 C47.1651728,160.178498 44.64284,161.487289 41.9814815,161.37037 Z M41.6018519,145.435185 C40.4269373,145.412816 39.2995867,145.898859 38.5092593,146.768519 C37.6074094,147.824581 37.0686025,149.142386 36.9722222,150.527778 L45.8703937,150.527778 L45.8703937,150.296296 C45.8740849,148.99151 45.4332031,147.724382 44.6203704,146.703704 C43.8552553,145.849714 42.7473173,145.384108 41.6018519,145.435185 L41.6018519,145.435185 Z" id="Shape" fill="#3E3F3F" fill-rule="nonzero"></path>
                <path d="M59.8240741,161.37037 C57.6148924,161.449844 55.4764784,160.584375 53.9444444,158.990741 C52.3721694,157.263983 51.5553994,154.980361 51.6759259,152.648148 L51.6759259,152.083333 C51.6462806,150.45274 51.9915785,148.837127 52.6851852,147.361111 C53.3061598,146.036342 54.2841158,144.910891 55.5092593,144.111111 C56.6758309,143.338595 58.0452886,142.929369 59.4444444,142.935185 C61.4982755,142.820212 63.4891259,143.665126 64.8333333,145.222222 C66.1111111,146.740741 66.7592593,148.925926 66.7592593,151.759259 L66.7592593,153.018519 L54.7222222,153.018519 C54.6927234,154.576291 55.2401571,156.089978 56.2592593,157.268519 C57.1963011,158.325873 58.5504546,158.918315 59.962963,158.888889 C60.9129665,158.918427 61.8533653,158.691324 62.6851852,158.231481 C63.4444426,157.785202 64.1083222,157.193689 64.6388889,156.490741 L66.4907407,157.935185 C65.0456653,160.193276 62.5016319,161.504159 59.8240741,161.37037 Z M59.4444444,145.435185 C58.2720163,145.41184 57.1471248,145.89828 56.3611111,146.768519 C55.4559119,147.823379 54.9138107,149.141302 54.8148148,150.527778 L63.7129696,150.527778 L63.7129696,150.296296 C63.7149268,148.99335 63.2778359,147.727744 62.4722222,146.703704 C61.6984972,145.845293 60.5802364,145.379635 59.4259259,145.435185 L59.4444444,145.435185 Z" id="Shape" fill="#3E3F3F" fill-rule="nonzero"></path>
                <path d="M73.1296296,143.259259 L73.2314815,145.5 C74.4885624,143.841357 76.465659,142.887253 78.5462963,142.935185 C82.3055556,142.935185 84.2006173,145.055556 84.2314815,149.296296 L84.2314815,161.064815 L81.1944444,161.064815 L81.1944444,149.305556 C81.2682796,148.28122 80.9542982,147.266564 80.3148148,146.462963 C79.5890295,145.791714 78.6148912,145.455805 77.6296296,145.537037 C76.7037899,145.517471 75.7957558,145.793124 75.037037,146.324074 C74.2892515,146.851602 73.6897853,147.562671 73.2962963,148.388889 L73.2962963,161.064815 L70.25,161.064815 L70.25,143.287037 L73.1296296,143.259259 Z" id="Path" fill="#3E3F3F" fill-rule="nonzero"></path>
                <path d="M104.851852,63.6666667 C106.35318,62.7889 107.898407,61.9884723 109.481481,61.2685185 C102.564815,40.4814815 110.324074,18.037037 134.388889,14.537037 C129.351852,23.8796296 132.259259,39.4444444 119.509259,46.6203704 C117.796296,37.3611111 120.037037,26.7037037 131.277778,18.8425926 C114.518519,25.0555556 110.268519,39.9166667 113.861111,56.1388889 C138.342593,49.4074074 131.685185,24.5648148 137.416667,10.4074074 C107.861111,11.8611111 95.9351852,37.9722222 104.851852,63.6666667 Z" id="Path" fill="url(#radialGradient-1)"></path>
                <path d="M107.194444,62.3796296 C107.941358,61.9845679 108.700617,61.6141975 109.472222,61.2685185 C102.555556,40.4814815 110.314815,18.037037 134.37963,14.537037 C107.62963,16.25 100.12963,38.8425926 107.194444,62.3796296 Z" id="Path" fill="url(#radialGradient-2)"></path>
                <path d="M119.5,46.6203704 C117.787037,37.3611111 120.027778,26.7037037 131.268519,18.8425926 C118.509259,26.8611111 116.092593,37.6018519 118.518519,49.3981481 C133.111111,43.1296296 130.425926,24.3981481 134.37963,14.5925926 C129.342593,23.8796296 132.25,39.4444444 119.5,46.6203704 Z" id="Path" fill="url(#radialGradient-3)"></path>
                <path d="M107.194444,62.3796296 L107.972222,61.9907407 C101.37037,40.0185185 107.564815,20.0277778 129.416667,15.1296296 C106.703704,19.212963 100.564815,40.4074074 107.194444,62.3796296 Z" id="Path" fill="url(#radialGradient-4)"></path>
                <path d="M118.518519,49.3425926 C130.712963,44.1018519 130.842593,30.1481481 132.861111,19.9907407 C130.305556,29.7962963 130.074074,43.7037037 118.518519,49.3425926 Z" id="Path" fill="url(#radialGradient-5)"></path>
                <path d="M118.518519,49.3425926 C117.101852,39.6018519 118.518519,30.3240741 126.212963,22.6018519 C117.888889,30.0833333 116.453704,39.3425926 118.518519,49.3425926 Z" id="Path" fill="url(#radialGradient-6)"></path>
                <path d="M116.194444,52.7314815 C113.361111,42.3981481 114.388889,31.4814815 123.935185,23.212963 C120.728519,25.4810339 118.112219,28.4846985 116.305556,31.9722222 C112.601852,39.1574074 112.601852,47.6574074 114.25,55.4074074 C121.018519,53.4351852 126.287037,49.7685185 129.5,43.3703704 C132.12037,38.1759259 133.009259,32.1666667 133.722222,26.4444444 C131.546296,38.1481481 128.240741,49.212963 116.194444,52.7314815 Z" id="Path" fill="url(#linearGradient-7)"></path>
                <path d="M104.268519,61.9907407 C104.453704,62.5648148 104.638889,63.1296296 104.833333,63.7037037 C106.334661,62.8259371 107.879888,62.0255094 109.462963,61.3055556 C109.268519,60.7407407 109.092593,60.1851852 108.935185,59.6296296 C107.287281,60.2190431 105.71956,61.0122353 104.268519,61.9907407 Z" id="Path" fill="#090000" opacity="0.4"></path>
                <path d="M99.0648148,-3.97495775e-06 C94.6710648,-0.00374573883 90.7078687,2.64010284 89.0238573,6.69832399 C87.3398458,10.7565451 88.2667895,15.4296206 91.3723159,18.5377967 C94.4778423,21.6459729 99.1501255,22.5769018 103.209781,20.8963522 C107.269437,19.2158025 109.916667,15.2548628 109.916667,10.8611111 C109.916667,4.86629918 105.059625,0.0051106666 99.0648148,-3.97495775e-06 Z" id="Path" fill="url(#radialGradient-8)"></path>
                <path d="M99.0648148,0.879625316 C95.0156068,0.87588383 91.3630269,3.31218521 89.810866,7.05209102 C88.258705,10.7919968 89.1127677,15.0986755 91.9746661,17.9632238 C94.8365644,20.8277721 99.1424508,21.6858203 102.883792,20.1371212 C106.625132,18.5884221 109.064815,14.9380986 109.064815,10.8888889 C109.064815,5.36454159 104.58916,0.884740034 99.0648148,0.879625316 Z" id="Path" fill="url(#linearGradient-9)"></path>
                <path d="M99.0648148,0.648148148 C94.7962963,0.648148148 91.3425926,3.37037037 91.3425926,6.73148148 C91.3425926,10.0925926 94.7962963,6.21296296 99.0648148,6.21296296 C103.333333,6.21296296 106.777778,10.0833333 106.777778,6.73148148 C106.777778,3.37962963 103.342593,0.648148148 99.0648148,0.648148148 Z" id="Path" fill="url(#linearGradient-10)"></path>
                <path d="M101.342593,57.7962963 C100.967215,56.1055432 100.679792,54.3964569 100.481481,52.6759259 C78.5833333,52.8240741 59.6296296,38.5092593 63.7407407,14.537037 C71.0740741,22.212963 86.7685185,24.2592593 89.6666667,38.6111111 C80.3333333,37.3796296 70.8888889,31.962963 66.8611111,18.8333333 C67.5833333,36.6851852 80.4074074,45.3240741 96.9444444,46.9166667 C98.1111111,21.5555556 72.4259259,20.2037037 60.7314815,10.3888889 C53,38.9351852 74.1388889,58.3888889 101.342593,57.7962963 Z" id="Path" fill="url(#radialGradient-11)"></path>
                <path d="M100.833333,55.1851852 C100.694444,54.3425926 100.583333,53.5092593 100.481481,52.6759259 C78.5833333,52.8240741 59.6296296,38.5092593 63.7407407,14.537037 C57.1018519,40.5092593 76.287037,54.6388889 100.833333,55.1851852 Z" id="Path" fill="url(#radialGradient-12)"></path>
                <path d="M89.6574074,38.6018519 C80.3240741,37.3703704 70.8796296,31.9537037 66.8518519,18.8240741 C70.5555556,33.4351852 80,39.0555556 91.9351852,40.3796296 C90.4907407,24.5648148 71.8240741,21.3240741 63.7407407,14.537037 C71.0740741,22.1759259 86.7685185,24.2592593 89.6574074,38.6018519 Z" id="Path" fill="url(#radialGradient-13)"></path>
                <path d="M100.833333,55.1851852 C100.787037,54.9074074 100.75,54.6388889 100.703704,54.3611111 C77.7685185,53.8518519 60.6666667,41.787037 62.7407407,19.4907407 C59.6388889,42.3055556 77.8981481,54.6666667 100.833333,55.1851852 Z" id="Path" fill="url(#radialGradient-14)"></path>
                <path d="M91.9351852,40.3796296 C90.7314815,27.1666667 77.4907407,22.7314815 68.4537037,17.6666667 C76.9907407,23.1018519 90.1481481,27.6481481 91.9351852,40.3796296 Z" id="Path" fill="url(#radialGradient-15)"></path>
                <path d="M91.9351852,40.3796296 C82.2407407,38.712963 73.8425926,34.537037 68.8888889,24.8055556 C73.4259259,35.0185185 81.787037,39.25 91.9351852,40.3796296 Z" id="Path" fill="url(#radialGradient-16)"></path>
                <path d="M94.4722222,43.6481481 C83.7777778,43.1481481 73.712963,38.7962963 68.7962963,27.1666667 C69.9669238,30.9172081 72.0178312,34.3332705 74.7777778,37.1296296 C80.4537037,42.8703704 88.5462963,45.462963 96.4259259,46.3240741 C96.6388889,39.2777778 94.7685185,33.1574074 89.6666667,28.0925926 C85.5462963,24 80.1018519,21.2962963 74.8518519,18.8333333 C85.3148148,24.5277778 94.8240741,31.0925926 94.4722222,43.6481481 Z" id="Path" fill="url(#linearGradient-17)"></path>
                <path d="M99.537037,57.8055556 C100.138889,57.8055556 100.731481,57.8055556 101.342593,57.8055556 C100.967215,56.1148025 100.679792,54.4057162 100.481481,52.6851852 L98.7222222,52.6851852 C98.7829711,54.4189169 99.0566285,56.1386051 99.537037,57.8055556 Z" id="Path" fill="#090000" opacity="0.4"></path>
                <path d="M39,43.6388889 C37.6420223,47.8167713 38.934537,52.4012965 42.2748161,55.2545999 C45.6150952,58.1079033 50.3452868,58.6680404 54.2595987,56.6738071 C58.1739107,54.6795737 60.501438,50.5237246 60.1568038,46.1442232 C59.8121695,41.7647219 56.8632477,38.0240902 52.6851852,36.6666667 C49.9458829,35.7741009 46.9640801,36.0074663 44.3969903,37.3153274 C41.8299005,38.6231884 39.8882521,40.8981848 39,43.6388889 Z" id="Path" fill="url(#radialGradient-18)"></path>
                <path d="M39.8148148,43.8981481 C38.1113046,49.1510299 40.9880993,54.7903938 46.2406993,56.4947724 C51.4932994,58.199151 57.1331389,55.3232887 58.8383858,50.0709705 C60.5436327,44.8186523 57.6687029,39.1783375 52.4166667,37.4722222 C47.1626105,35.7708226 41.5233281,38.6464008 39.8148148,43.8981481 Z" id="Path" fill="url(#linearGradient-19)"></path>
                <path d="M39.6111111,43.8333333 C38.2962963,47.8888889 39.8148148,52.0185185 43.0092593,53.0925926 C46.2037037,54.1666667 43.5833333,49.6481481 44.8611111,45.5925926 C46.1388889,41.537037 50.9351852,39.4537037 47.7407407,38.4074074 C44.5462963,37.3611111 40.9259259,39.7685185 39.6111111,43.8333333 Z" id="Path" fill="url(#linearGradient-20)"></path>
                <path d="M94.6759259,59.3333333 C92.9259259,59.1574074 91.2037037,58.8981481 89.537037,58.5648148 C82.9074074,79.4351852 63.4351852,93.037037 41.9166667,81.712963 C51.4814815,77.0833333 58.2685185,62.8148148 72.8055556,64.5 C68.75,73 60.6759259,80.3055556 46.9444444,80.0740741 C64.1574074,84.9074074 76.3240741,75.3796296 82.962963,60.1481481 C59.1944444,51.2037037 49.9722222,75.212963 37.0185185,83.2962963 C61.7962963,99.4722222 86.8333333,85.3888889 94.6759259,59.3333333 Z" id="Path" fill="url(#radialGradient-21)"></path>
                <path d="M92.0277778,59 C91.1851852,58.8703704 90.3518519,58.7314815 89.537037,58.5648148 C82.9074074,79.4351852 63.4351852,93.037037 41.9166667,81.712963 C64.5555556,96.0648148 83.8981481,82.1759259 92.0277778,59 Z" id="Path" fill="url(#radialGradient-22)"></path>
                <path d="M72.787037,64.5092593 C68.7314815,73.0092593 60.6574074,80.3148148 46.9259259,80.0833333 C61.962963,81.1018519 70.2314815,73.8333333 75.1851852,62.8888889 C59.6944444,59.3796296 50.8518519,76.1296296 41.8518519,81.7222222 C51.4907407,77.1203704 58.2685185,62.8240741 72.787037,64.5092593 Z" id="Path" fill="url(#radialGradient-23)"></path>
                <path d="M92.0277778,59 L91.212963,58.8703704 C83.6388889,80.5092593 66.8796296,93.0648148 46.3240741,84.212963 C67.0462963,94.2037037 84.4537037,80.6574074 92.0277778,59 Z" id="Path" fill="url(#radialGradient-24)"></path>
                <path d="M75.2037037,62.9166667 C62.2407407,59.9814815 53.9537037,71.2037037 46.3425926,78.2314815 C54.1851852,71.7685185 62.537037,60.6574074 75.2037037,62.9166667 Z" id="Path" fill="url(#radialGradient-25)"></path>
                <path d="M75.2037037,62.9166667 C70.6203704,71.6296296 64.0925926,78.3240741 53.2685185,80.0277778 C64.3888889,78.8333333 70.9907407,72.1759259 75.2037037,62.9166667 Z" id="Path" fill="url(#radialGradient-26)"></path>
                <path d="M79.1018519,61.4814815 C75.3055556,71.5092593 68.0648148,79.7314815 55.4814815,80.8148148 C59.4104509,80.8605348 63.2933008,79.9652252 66.8055556,78.2037037 C74.0185185,74.5740741 79,67.6851852 82.2407407,60.462963 C75.6111111,58.0833333 69.212963,57.962963 62.7962963,61.25 C57.6296296,63.9074074 53.3796296,68.25 49.4351852,72.462963 C58.0833333,64.287037 67.2314815,57.2777778 79.1018519,61.4814815 Z" id="Path" fill="url(#linearGradient-27)"></path>
                <path d="M94.1296296,61.0648148 C94.3148148,60.5 94.5,59.9259259 94.6759259,59.3518519 C92.9259259,59.1759259 91.2037037,58.9166667 89.537037,58.5833333 C89.3518519,59.1388889 89.1666667,59.6944444 88.9722222,60.25 C90.6516711,60.7310259 92.3836867,61.0046657 94.1296296,61.0648148 Z" id="Path" fill="#090000" opacity="0.4"></path>
                <path d="M61.9444444,114.240741 C66.7951034,117.757768 73.5782398,116.678146 77.0973124,111.828971 C80.616385,106.979796 79.5396245,100.196205 74.691934,96.6750873 C69.8442436,93.1539698 63.0601988,94.2278691 59.537037,99.0740741 C57.8432514,101.403922 57.1452464,104.31159 57.5968105,107.156444 C58.0483746,110.001298 59.6124549,112.549904 61.9444444,114.240741 L61.9444444,114.240741 Z" id="Path" fill="url(#radialGradient-28)"></path>
                <path d="M62.4444444,113.555556 C66.9163463,116.805146 73.175846,115.814314 76.4254999,111.342458 C79.6751537,106.870602 78.6844094,100.611088 74.2125994,97.361371 C69.7407893,94.1116541 63.4812616,95.1023099 60.2314815,99.5740741 C58.6683904,101.720735 58.0232905,104.40095 58.4384222,107.023749 C58.8535539,109.646547 60.294825,111.996535 62.4444444,113.555556 L62.4444444,113.555556 Z" id="Path" fill="url(#linearGradient-29)"></path>
                <path d="M62.3240741,113.722222 C65.7685185,116.231481 70.1666667,116.055556 72.1388889,113.333333 C74.1111111,110.611111 69.037037,111.722222 65.5925926,109.222222 C62.1481481,106.722222 61.6296296,101.546296 59.6481481,104.259259 C57.6666667,106.972222 58.8981481,111.212963 62.3240741,113.722222 Z" id="Path" fill="url(#linearGradient-30)"></path>
                <path d="M94.0833333,66.1388889 C93.3703704,67.75 92.6018519,69.3055556 91.7592593,70.7685185 C109.564815,83.5185185 116.481481,106.240741 99.0740741,123.212963 C97.6481481,112.694444 86.1574074,101.814815 92.25,88.5092593 C99.0740741,94.9907407 103.527778,104.925926 99.0740741,117.925926 C108.981481,103.046296 103.703704,88.5277778 91.2407407,77.5092593 C75.3888889,97.3518519 95.3796296,113.537037 99.0740741,128.351852 C122.092593,109.814815 116.425926,81.6574074 94.0833333,66.1388889 Z" id="Path" fill="url(#radialGradient-31)"></path>
                <path d="M92.9444444,68.5555556 C92.5555556,69.3148148 92.1666667,70.0648148 91.75,70.7962963 C109.555556,83.5462963 116.472222,106.268519 99.0648148,123.240741 C119.694444,106.12963 112.481481,83.4259259 92.9444444,68.5555556 Z" id="Path" fill="url(#radialGradient-32)"></path>
                <path d="M92.2314815,88.537037 C99.0555556,95.0185185 103.509259,104.953704 99.0555556,117.953704 C104.666667,103.962963 100.305556,93.8796296 91.4259259,85.7592593 C83.3055556,99.4074074 96.5,113 99.0555556,123.240741 C97.6388889,112.722222 86.1481481,101.805556 92.2314815,88.537037 Z" id="Path" fill="url(#radialGradient-33)"></path>
                <path d="M92.9444444,68.5555556 L92.5648148,69.2962963 C110.824074,83.1851852 117.564815,103 102.75,119.805556 C118.703704,103.194444 111.194444,82.4537037 92.9444444,68.5555556 Z" id="Path" fill="url(#radialGradient-34)"></path>
                <path d="M91.4351852,85.7592593 C84.6481481,97.1666667 92.75,108.537037 97.0833333,117.944444 C93.3888889,108.5 85.3981481,97.1203704 91.4351852,85.7592593 Z" id="Path" fill="url(#radialGradient-35)"></path>
                <path d="M91.4351852,85.7592593 C98.3055556,92.8055556 102.648148,101.12037 100.935185,111.907407 C103.268519,100.981481 98.9907407,92.6388889 91.4351852,85.7592593 Z" id="Path" fill="url(#radialGradient-36)"></path>
                <path d="M91.3055556,81.6203704 C99.6388889,88.3240741 105.25,97.7592593 102.416667,110.055556 C103.681452,106.335461 104.030827,102.365294 103.435185,98.4814815 C102.222222,90.5 97.2037037,83.6666667 91.3333333,78.3240741 C87.0185185,83.8796296 84.9351852,89.9351852 86.0833333,97.037037 C87.0092593,102.768519 89.8333333,108.148148 92.6111111,113.212963 C87.4814815,102.481481 83.6481481,91.6203704 91.3055556,81.6203704 Z" id="Path" fill="url(#linearGradient-37)"></path>
                <path d="M95.537037,67.1944444 L94.0833333,66.1388889 C93.3703704,67.75 92.6018519,69.3055556 91.7592593,70.7685185 C92.2407407,71.1111111 92.6851852,71.4537037 93.1759259,71.8148148 C94.1514306,70.3785106 94.9445523,68.8264803 95.537037,67.1944444 L95.537037,67.1944444 Z" id="Path" fill="#090000" opacity="0.4"></path>
                <path d="M136.175926,114.240741 C139.726653,111.66041 141.373341,107.195209 140.348107,102.927345 C139.322873,98.6594811 135.827632,95.4294828 131.49228,94.7435597 C127.156928,94.0576366 122.835285,96.0508768 120.542616,99.7937947 C118.249947,103.536713 118.437777,108.292164 121.018519,111.842593 C124.542087,116.690105 131.328005,117.763748 136.175926,114.240741 L136.175926,114.240741 Z" id="Path" fill="url(#radialGradient-38)"></path>
                <path d="M135.675926,113.555556 C138.953528,111.177358 140.475222,107.058552 139.531108,103.120641 C138.586995,99.1827295 135.363109,96.201675 131.363459,95.5681982 C127.363809,94.9347215 123.37652,96.7736484 121.261743,100.227083 C119.146965,103.680518 119.321413,108.067965 121.703704,111.342593 C124.955763,115.804121 131.204355,116.793792 135.675926,113.555556 L135.675926,113.555556 Z" id="Path" fill="url(#linearGradient-39)"></path>
                <path d="M135.805556,113.722222 C139.25,111.212963 140.435185,106.981481 138.472222,104.259259 C136.509259,101.537037 135.981481,106.712963 132.527778,109.222222 C129.074074,111.731481 124.009259,110.62037 125.981481,113.333333 C127.953704,116.046296 132.351852,116.222222 135.805556,113.722222 Z" id="Path" fill="url(#linearGradient-40)"></path>
                <path d="M100.361111,68.8240741 C101.65651,69.9735288 102.892671,71.1880573 104.064815,72.462963 C121.657407,59.5 145.435185,59.9166667 156.203704,81.7222222 C145.759259,79.8148148 131.861111,87.3888889 121.083333,77.4814815 C129.361111,72.9907407 140.185185,71.8240741 151.166667,80.0833333 C140.055556,66.0648148 124.638889,66.6111111 110.314815,75.037037 C124.287037,96.25 145.851852,82.2407407 161.092593,83.3055556 C150.564815,55.6666667 122.027778,52.3518519 100.361111,68.8240741 Z" id="Path" fill="url(#radialGradient-41)"></path>
                <path d="M102.305556,70.6388889 C102.916667,71.2407407 103.5,71.8518519 104.074074,72.4907407 C121.666667,59.5277778 145.444444,59.9444444 156.212963,81.75 C146.314815,56.8055556 122.490741,56.6574074 102.305556,70.6388889 Z" id="Path" fill="url(#radialGradient-42)"></path>
                <path d="M121.092593,77.4814815 C129.37037,72.9907407 140.194444,71.8240741 151.175926,80.0833333 C139.611111,70.4259259 128.648148,71.4444444 118.203704,77.3888889 C128.675926,89.3240741 145.675926,80.9814815 156.212963,81.7222222 C145.768519,79.8148148 131.87037,87.3888889 121.092593,77.4814815 Z" id="Path" fill="url(#radialGradient-43)"></path>
                <path d="M102.305556,70.6388889 C102.509259,70.8333333 102.703704,71.0277778 102.888889,71.2314815 C121.75,58.1574074 142.703704,57.8703704 154.092593,77.1388889 C143.203704,56.8425926 121.166667,57.5740741 102.305556,70.6388889 Z" id="Path" fill="url(#radialGradient-44)"></path>
                <path d="M118.203704,77.3888889 C126.953704,87.3703704 140.268519,83.1759259 150.555556,81.962963 C140.435185,82.5555556 127.138889,86.6388889 118.203704,77.3888889 Z" id="Path" fill="url(#radialGradient-45)"></path>
                <path d="M118.203704,77.3888889 C127.027778,73.0277778 136.287037,71.4722222 145.981481,76.462963 C136.333333,70.8425926 127.083333,72.3333333 118.203704,77.3888889 Z" id="Path" fill="url(#radialGradient-46)"></path>
                <path d="M114.231481,76.2314815 C123.185185,70.3518519 133.888889,67.9537037 144.694444,74.4814815 C141.546722,72.1287399 137.878334,70.569278 134,69.9351852 C126.037037,68.6296296 117.953704,71.2685185 111.092593,75.212963 C115.055556,81.037037 120.157407,84.8888889 127.268519,85.9907407 C133.009259,86.9166667 139,85.8611111 144.666667,84.7777778 C132.87963,86.3148148 121.333333,86.6018519 114.231481,76.2314815 Z" id="Path" fill="url(#linearGradient-47)"></path>
                <path d="M101.814815,67.75 C101.333333,68.1018519 100.842593,68.4537037 100.361111,68.8240741 C101.65651,69.9735288 102.892671,71.1880573 104.064815,72.462963 C104.537037,72.1203704 104.990741,71.7777778 105.490741,71.4444444 C104.42294,70.0656755 103.188201,68.8247154 101.814815,67.75 Z" id="Path" fill="#090000" opacity="0.4"></path>
                <path d="M159.12037,43.6388889 C157.247714,37.9544011 151.126322,34.8592307 145.438172,36.720734 C139.750022,38.5822374 136.642851,44.6975462 138.493194,50.3893364 C140.343537,56.0811266 146.45274,59.2002864 152.148148,57.3611111 C154.896021,56.4711596 157.176225,54.5233177 158.484608,51.9482541 C159.79299,49.3731905 160.021773,46.3830266 159.12037,43.6388889 Z" id="Path" fill="url(#radialGradient-48)"></path>
                <path d="M158.305556,43.8981481 C156.593546,38.6488146 150.951083,35.7803996 145.701139,37.4905394 C140.451196,39.2006792 137.580772,44.8421201 139.289041,50.0926721 C140.997311,55.3432241 146.637729,58.2156583 151.888889,56.5092593 C154.412981,55.6890388 156.507487,53.8990729 157.711043,51.5336432 C158.914598,49.1682135 159.128473,46.4213625 158.305556,43.8981481 Z" id="Path" fill="url(#linearGradient-49)"></path>
                <path d="M158.509259,43.8333333 C157.194444,39.7777778 153.537037,37.3518519 150.333333,38.3703704 C147.12963,39.3888889 151.898148,41.5 153.212963,45.5555556 C154.527778,49.6111111 151.916667,54.0925926 155.111111,53.0555556 C158.305556,52.0185185 159.824074,47.8888889 158.509259,43.8333333 Z" id="Path" fill="url(#linearGradient-50)"></path>
            </g>
        </g>
    </g>
</svg>