<?xml version="1.0" encoding="UTF-8"?>
<svg width="200px" height="173px" viewBox="0 0 200 173" version="1.1" xmlns="http://www.w3.org/2000/svg" xmlns:xlink="http://www.w3.org/1999/xlink">
    <!-- Generator: Sketch 55.2 (78181) - https://sketchapp.com -->
    <title>Logo3</title>
    <desc>Created with Sketch.</desc>
    <defs>
        <radialGradient cx="111.408835%" cy="-114.593909%" fx="111.408835%" fy="-114.593909%" r="450.876484%" gradientTransform="translate(1.114088,-1.145939),scale(1.000000,0.613394),translate(-1.114088,1.145939)" id="radialGradient-1">
            <stop stop-color="#FFFFFF" offset="0%"></stop>
            <stop stop-color="#6AAFE4" offset="50%"></stop>
            <stop stop-color="#35368C" offset="100%"></stop>
        </radialGradient>
        <radialGradient cx="-11.3969475%" cy="-114.593909%" fx="-11.3969475%" fy="-114.593909%" r="450.828377%" gradientTransform="translate(-0.113969,-1.145939),scale(1.000000,0.613460),rotate(180.000000),translate(0.113969,1.145939)" id="radialGradient-2">
            <stop stop-color="#FFFFFF" offset="0%"></stop>
            <stop stop-color="#6AAFE4" offset="50%"></stop>
            <stop stop-color="#35368C" offset="100%"></stop>
        </radialGradient>
        <radialGradient cx="-134.461747%" cy="141.48299%" fx="-134.461747%" fy="141.48299%" r="528.68427%" gradientTransform="translate(-1.344617,1.414830),scale(1.000000,0.530786),translate(1.344617,-1.414830)" id="radialGradient-3">
            <stop stop-color="#FFFFFF" offset="0%"></stop>
            <stop stop-color="#E5E432" offset="28%"></stop>
            <stop stop-color="#569344" offset="80%"></stop>
        </radialGradient>
        <linearGradient x1="16.3286178%" y1="104.176425%" x2="51.1077807%" y2="48.2435597%" id="linearGradient-4">
            <stop stop-color="#FFFFFF" offset="0%"></stop>
            <stop stop-color="#FFFFFF" stop-opacity="0" offset="100%"></stop>
        </linearGradient>
        <radialGradient cx="-102.48251%" cy="126.676849%" fx="-102.48251%" fy="126.676849%" r="360.054164%" gradientTransform="translate(-1.024825,1.266768),scale(1.000000,0.563956),translate(1.024825,-1.266768)" id="radialGradient-5">
            <stop stop-color="#FFFFFF" offset="0%"></stop>
            <stop stop-color="#E5E432" offset="28%"></stop>
            <stop stop-color="#569344" offset="80%"></stop>
        </radialGradient>
        <radialGradient cx="52.2803668%" cy="49.2949253%" fx="52.2803668%" fy="49.2949253%" r="129.607717%" gradientTransform="translate(0.522804,0.492949),scale(1.000000,0.720144),translate(-0.522804,-0.492949)" id="radialGradient-6">
            <stop stop-color="#FFFFFF" offset="0%"></stop>
            <stop stop-color="#E5E432" offset="28%"></stop>
            <stop stop-color="#569344" offset="80%"></stop>
        </radialGradient>
        <radialGradient cx="234.514673%" cy="141.48299%" fx="234.514673%" fy="141.48299%" r="528.803612%" gradientTransform="translate(2.345147,1.414830),scale(1.000000,0.530666),rotate(180.000000),translate(-2.345147,-1.414830)" id="radialGradient-7">
            <stop stop-color="#FFFFFF" offset="0%"></stop>
            <stop stop-color="#E5E432" offset="28%"></stop>
            <stop stop-color="#569344" offset="80%"></stop>
        </radialGradient>
        <linearGradient x1="83.6713822%" y1="104.176425%" x2="48.8922193%" y2="48.2435597%" id="linearGradient-8">
            <stop stop-color="#FFFFFF" offset="0%"></stop>
            <stop stop-color="#FFFFFF" stop-opacity="0" offset="100%"></stop>
        </linearGradient>
        <radialGradient cx="202.620877%" cy="126.676849%" fx="202.620877%" fy="126.676849%" r="360.460913%" gradientTransform="translate(2.026209,1.266768),scale(1.000000,0.563319),rotate(180.000000),translate(-2.026209,-1.266768)" id="radialGradient-9">
            <stop stop-color="#FFFFFF" offset="0%"></stop>
            <stop stop-color="#E5E432" offset="28%"></stop>
            <stop stop-color="#569344" offset="80%"></stop>
        </radialGradient>
        <radialGradient cx="47.7278412%" cy="49.2949253%" fx="47.7278412%" fy="49.2949253%" r="129.587369%" gradientTransform="translate(0.477278,0.492949),scale(1.000000,0.720257),rotate(180.000000),translate(-0.477278,-0.492949)" id="radialGradient-10">
            <stop stop-color="#FFFFFF" offset="0%"></stop>
            <stop stop-color="#E5E432" offset="28%"></stop>
            <stop stop-color="#569344" offset="80%"></stop>
        </radialGradient>
        <radialGradient cx="42.3088235%" cy="-331.952663%" fx="42.3088235%" fy="-331.952663%" r="610.894535%" gradientTransform="translate(0.423088,-3.319527),scale(0.422500,1.000000),translate(-0.423088,3.319527)" id="radialGradient-11">
            <stop stop-color="#FFFFFF" offset="0%"></stop>
            <stop stop-color="#6AAFE4" offset="50%"></stop>
            <stop stop-color="#35368C" offset="100%"></stop>
        </radialGradient>
        <radialGradient cx="-69.9411765%" cy="93.5607379%" fx="-69.9411765%" fy="93.5607379%" r="258.545075%" gradientTransform="translate(-0.699412,0.935607),scale(0.845000,1.000000),translate(0.699412,-0.935607)" id="radialGradient-12">
            <stop stop-color="#FFFFFF" offset="0%"></stop>
            <stop stop-color="#6AAFE4" offset="50%"></stop>
            <stop stop-color="#35368C" offset="100%"></stop>
        </radialGradient>
        <radialGradient cx="81.5294118%" cy="10.1182197%" fx="81.5294118%" fy="10.1182197%" r="122.600834%" gradientTransform="translate(0.815294,0.101182),scale(0.845882,1.000000),translate(-0.815294,-0.101182)" id="radialGradient-13">
            <stop stop-color="#FFFFFF" offset="0%"></stop>
            <stop stop-color="#6AAFE4" offset="50%"></stop>
            <stop stop-color="#35368C" offset="100%"></stop>
        </radialGradient>
        <radialGradient cx="45.7959094%" cy="-134.816326%" fx="45.7959094%" fy="-134.816326%" r="323.510258%" id="radialGradient-14">
            <stop stop-color="#FFFFFF" offset="0%"></stop>
            <stop stop-color="#6AAFE4" offset="50%"></stop>
            <stop stop-color="#35368C" offset="100%"></stop>
        </radialGradient>
        <linearGradient x1="50%" y1="-131.617948%" x2="50%" y2="114.182843%" id="linearGradient-15">
            <stop stop-color="#FFFFFF" offset="0%"></stop>
            <stop stop-color="#FFFFFF" stop-opacity="0" offset="100%"></stop>
        </linearGradient>
        <radialGradient cx="50.8619295%" cy="-100.725283%" fx="50.8619295%" fy="-100.725283%" r="304.659062%" gradientTransform="translate(0.508619,-1.007253),scale(0.489376,1.000000),translate(-0.508619,1.007253)" id="radialGradient-16">
            <stop stop-color="#FFFFFF" offset="0%"></stop>
            <stop stop-color="#6AAFE4" offset="50%"></stop>
            <stop stop-color="#35368C" offset="100%"></stop>
        </radialGradient>
    </defs>
    <g id="Page-1" stroke="none" stroke-width="1" fill="none" fill-rule="evenodd">
        <g id="Desktop-Full-HD" transform="translate(-1053.000000, -376.000000)">
            <g id="Logo3" transform="translate(1053.000000, 376.000000)">
                <g id="Group-3" transform="translate(0.129467, 0.105683)">
                    <path d="M49.0812613,156.147191 L49.0812613,158.660601 L51.1195755,158.660601 L51.1195755,159.549489 L49.0812613,159.549489 L49.0812613,166.101214 C49.0503141,166.528662 49.1548852,166.954991 49.3801119,167.319604 C49.6203841,167.607366 49.9880707,167.756739 50.3609548,167.718072 C50.6564141,167.707041 50.9508091,167.676321 51.2421808,167.626118 L51.2881578,168.515007 C50.9102863,168.625969 50.5169654,168.675134 50.1234069,168.660601 C49.5107846,168.713603 48.9089492,168.47514 48.4988858,168.016922 C48.122871,167.451951 47.944991,166.778164 47.9931387,166.101214 L47.9931387,159.549489 L46.1847096,159.549489 L46.1847096,158.660601 L47.9931387,158.660601 L47.9931387,156.147191 L49.0812613,156.147191 Z" id="Path" fill="#251E1C" fill-rule="nonzero"></path>
                    <path d="M60.4988858,168.484355 C60.3692772,168.038364 60.2996989,167.577086 60.2919893,167.112708 C59.9099782,167.611126 59.4095175,168.006226 58.8360506,168.262133 C58.246281,168.5287 57.6058574,168.664627 56.9586559,168.660601 C56.1226481,168.708002 55.3001705,168.433843 54.6598053,167.894317 C54.0848564,167.393959 53.7619825,166.663983 53.7785793,165.90198 C53.7438701,164.978531 54.1980758,164.105058 54.9739816,163.603129 C55.9726567,162.987673 57.1361267,162.693462 58.3073149,162.760217 L60.2766636,162.760217 L60.2766636,161.672095 C60.3064544,161.05032 60.0694966,160.44538 59.6253226,160.00926 C59.0925779,159.578073 58.4163617,159.364531 57.7326023,159.411558 C57.0583015,159.382849 56.3948804,159.588645 55.8552076,159.993934 C55.3867052,160.305183 55.1004213,160.826219 55.0889241,161.38857 L54.0008015,161.38857 C54.0186872,160.576831 54.4229569,159.822384 55.0889241,159.357919 C55.857495,158.771679 56.8047856,158.468546 57.7709165,158.499681 C58.7054305,158.447456 59.6267388,158.739112 60.3609548,159.319604 C61.0097477,159.904582 61.3684486,160.745288 61.3417977,161.618455 L61.3417977,166.269796 C61.3071295,166.994845 61.408492,167.719976 61.6406483,168.407727 L61.6406483,168.515007 L60.4988858,168.484355 Z M57.0889241,167.718072 C57.7744589,167.727855 58.448925,167.544634 59.0352843,167.189336 C59.5845452,166.859795 60.0202671,166.37061 60.2843264,165.787037 L60.2843264,163.626118 L58.3379663,163.626118 C57.4519869,163.586908 56.5721759,163.79096 55.793905,164.216156 C55.2203129,164.535893 54.8696953,165.145791 54.8820276,165.802363 C54.869313,166.32858 55.0945216,166.832485 55.4950544,167.174011 C55.9406591,167.544943 56.5099681,167.7338 57.0889241,167.702746 L57.0889241,167.718072 Z" id="Shape" fill="#251E1C" fill-rule="nonzero"></path>
                    <path d="M64.7517594,163.480524 C64.6831789,162.183527 65.041131,160.899744 65.7709165,159.825352 C66.4168451,158.946174 67.4544721,158.441692 68.5448628,158.476693 C69.7815752,158.414408 70.9548587,159.027449 71.6099969,160.078225 L71.6712996,158.660601 L72.6827939,158.660601 L72.6827939,168.285122 C72.7417211,169.386888 72.36145,170.467078 71.6253226,171.288953 C70.8632999,172.047096 69.817847,172.450263 68.7440965,172.400064 C68.0658614,172.400871 67.39679,172.243442 66.7900735,171.940294 C66.2037709,171.662745 65.6975347,171.240882 65.3188092,170.71424 L65.931836,170.062899 C66.5709564,170.942297 67.5880908,171.467911 68.675131,171.480524 C69.4645879,171.524404 70.2357341,171.232093 70.7977364,170.675926 C71.3274059,170.057104 71.6014171,169.259732 71.5640199,168.446041 L71.5640199,167.212325 C70.8577182,168.188103 69.7011897,168.734563 68.4988858,168.660601 C67.4166431,168.68898 66.3901167,168.181451 65.7555908,167.304279 C65.0160475,166.225166 64.6524921,164.932525 64.721108,163.626118 L64.7517594,163.480524 Z M65.8475448,163.672095 C65.7943075,164.715642 66.0617094,165.750488 66.6138283,166.637612 C67.0851626,167.342568 67.8890956,167.75179 68.7364337,167.718072 C69.9688104,167.785164 71.1089826,167.066026 71.5793456,165.924968 L71.5793456,161.327267 C71.3649315,160.749075 70.983525,160.247646 70.4835601,159.886654 C69.9710803,159.546852 69.3664604,159.372957 68.7517594,159.38857 C67.902723,159.356641 67.0973227,159.765136 66.6214912,160.46903 C66.0404746,161.431813 65.7702324,162.550242 65.8475448,163.672095 L65.8475448,163.672095 Z" id="Shape" fill="#251E1C" fill-rule="nonzero"></path>
                    <polygon id="Path" fill="#251E1C" fill-rule="nonzero" points="77.6483111 168.484355 76.5601885 168.484355 76.5601885 154.537995 77.6483111 154.537995"></polygon>
                    <path d="M81.4644031,155.817689 C81.4648988,155.627776 81.5358992,155.444814 81.6636368,155.304279 C81.8053717,155.15736 82.003833,155.079094 82.2076981,155.089719 C82.4138555,155.078871 82.6147584,155.157 82.7594222,155.304279 C82.8954991,155.440051 82.970233,155.625502 82.9663188,155.817689 C82.9705525,156.012193 82.895927,156.200139 82.7594222,156.338761 C82.6104406,156.478506 82.4118311,156.552984 82.2076981,156.545658 C82.0061906,156.550937 81.8107186,156.476602 81.6636368,156.338761 C81.5341143,156.196273 81.4629852,156.010243 81.4644031,155.817689 Z M82.7440965,168.484355 L81.6559739,168.484355 L81.6559739,158.660601 L82.7440965,158.660601 L82.7440965,168.484355 Z" id="Shape" fill="#251E1C" fill-rule="nonzero"></path>
                    <path d="M87.6712996,158.660601 L87.7096138,160.338761 C88.0449118,159.7674 88.5194294,159.290247 89.0889241,158.951788 C89.6441764,158.63504 90.273458,158.471109 90.9126789,158.476693 C91.7898735,158.409366 92.6516798,158.734999 93.2651693,159.365581 C93.8286725,160.138428 94.1001591,161.085916 94.0314529,162.039911 L94.0314529,168.484355 L92.9586559,168.484355 L92.9586559,162.024585 C93.0060779,161.325526 92.8082602,160.631809 92.399269,160.062899 C91.9403475,159.596225 91.2963118,159.359985 90.6444797,159.419221 C89.992671,159.412371 89.3597217,159.637842 88.8590391,160.055237 C88.3212426,160.500828 87.922364,161.091169 87.7096138,161.756386 L87.7096138,168.484355 L86.629154,168.484355 L86.629154,158.660601 L87.6712996,158.660601 Z" id="Path" fill="#251E1C" fill-rule="nonzero"></path>
                    <path d="M101.579346,168.660601 C99.9580889,168.686603 98.4667268,167.776872 97.747928,166.323436 C97.3673879,165.557328 97.1755908,164.711318 97.188541,163.856003 L97.188541,163.465198 C97.1734375,162.58348 97.362256,161.710195 97.7402651,160.913474 C98.0751318,160.187379 98.6058706,159.569068 99.2728322,159.128034 C99.9011057,158.701305 100.643614,158.474279 101.4031,158.476693 C102.484568,158.429016 103.528632,158.877681 104.238349,159.695083 C104.980542,160.645286 105.353476,161.832141 105.288158,163.036079 L105.288158,163.641443 L98.2766636,163.641443 L98.2766636,163.856003 C98.2437192,164.869343 98.5846483,165.859401 99.234518,166.637612 C99.8284026,167.355623 100.716651,167.764499 101.648311,167.748723 C102.729314,167.7863 103.759035,167.287215 104.399269,166.41539 L105.073598,166.9288 C104.295379,168.081458 102.967884,168.739383 101.579346,168.660601 L101.579346,168.660601 Z M101.380112,159.373244 C100.593236,159.358739 99.8386415,159.68573 99.3111463,160.269796 C98.7170195,160.941554 98.3590803,161.789305 98.2919893,162.683589 L104.18471,162.683589 L104.18471,162.568647 C104.191392,161.730908 103.903945,160.917378 103.372449,160.269796 C102.880444,159.681916 102.146404,159.351597 101.380112,159.373244 L101.380112,159.373244 Z" id="Shape" fill="#251E1C" fill-rule="nonzero"></path>
                    <path d="M114.843713,160.323436 C115.174523,159.75722 115.647301,159.287084 116.215361,158.959451 C116.76901,158.63795 117.398913,158.471211 118.039116,158.476693 C118.917355,158.41242 119.778905,158.740763 120.391606,159.373244 C120.958166,160.144593 121.229982,161.09323 121.15789,162.047574 L121.15789,168.492018 L120.085093,168.492018 L120.085093,162.032248 C120.134731,161.334107 119.939647,160.640477 119.533369,160.070562 C119.070886,159.60451 118.424901,159.368585 117.770916,159.426884 C117.121622,159.421187 116.491471,159.646629 115.993139,160.062899 C115.455342,160.508491 115.056464,161.098831 114.843713,161.764049 L114.843713,168.492018 L113.763254,168.492018 L113.763254,154.545658 L114.843713,154.545658 L114.843713,160.323436 Z" id="Path" fill="#251E1C" fill-rule="nonzero"></path>
                    <path d="M128.69812,168.660601 C127.889221,168.678277 127.09196,168.465674 126.399269,168.047574 C125.724138,167.631763 125.179736,167.034248 124.828388,166.323436 C124.445197,165.557986 124.250765,164.711944 124.261338,163.856003 L124.261338,163.465198 C124.246234,162.58348 124.435053,161.710195 124.813062,160.913474 C125.151307,160.189554 125.681329,159.572078 126.345629,159.128034 C126.971117,158.701473 127.711146,158.474389 128.468234,158.476693 C129.549911,158.427873 130.594451,158.876743 131.303484,159.695083 C132.048825,160.643628 132.422141,161.8317 132.353292,163.036079 L132.353292,163.641443 L125.349461,163.641443 L125.349461,163.856003 C125.312874,164.869888 125.654239,165.861214 126.307315,166.637612 C126.89951,167.353508 127.784456,167.762161 128.713445,167.748723 C129.242046,167.758506 129.766,167.648476 130.246012,167.426884 C130.723582,167.189723 131.138411,166.843157 131.45674,166.41539 L132.138733,166.9288 C131.368571,168.06228 130.067322,168.717252 128.69812,168.660601 Z M128.498886,159.373244 C127.71241,159.360753 126.958611,159.687399 126.42992,160.269796 C125.838657,160.943353 125.481141,161.790103 125.410763,162.683589 L131.303484,162.683589 L131.303484,162.568647 C131.309116,161.732388 131.024786,160.920018 130.498886,160.269796 C130.003794,159.681627 129.267381,159.351511 128.498886,159.373244 L128.498886,159.373244 Z" id="Shape" fill="#251E1C" fill-rule="nonzero"></path>
                    <path d="M139.97015,159.587804 C139.717765,159.538584 139.460984,159.515473 139.203867,159.518838 C138.583043,159.501596 137.975769,159.702213 137.487392,160.085888 C136.984171,160.512693 136.632115,161.090494 136.48356,161.733397 L136.48356,168.484355 L135.4031,168.484355 L135.4031,158.660601 L136.460572,158.660601 L136.460572,160.193168 C136.930505,159.092949 138.031458,158.39761 139.226855,158.446041 C139.472223,158.435879 139.717142,158.474961 139.947162,158.560984 L139.97015,159.587804 Z" id="Path" fill="#251E1C" fill-rule="nonzero"></path>
                    <path d="M146.422257,168.660601 C144.799459,168.692283 143.305293,167.780842 142.59084,166.323436 C142.207649,165.557986 142.013217,164.711944 142.02379,163.856003 L142.02379,163.465198 C142.008687,162.58348 142.197505,161.710195 142.575514,160.913474 C142.911067,160.18782 143.441659,159.56968 144.108081,159.128034 C144.732933,158.700152 145.473383,158.472937 146.230687,158.476693 C147.312154,158.429016 148.356218,158.877681 149.065936,159.695083 C149.808128,160.645286 150.181062,161.832141 150.115744,163.036079 L150.115744,163.641443 L143.10425,163.641443 L143.10425,163.856003 C143.071305,164.869343 143.412235,165.859401 144.062104,166.637612 C144.655989,167.355623 145.544238,167.764499 146.475897,167.748723 C147.004498,167.758506 147.528453,167.648476 148.008464,167.426884 C148.484784,167.187812 148.899205,166.841587 149.219192,166.41539 L149.901185,166.9288 C149.122744,168.073076 147.804509,168.72929 146.422257,168.660601 L146.422257,168.660601 Z M146.223024,159.373244 C145.436148,159.358739 144.681553,159.68573 144.154058,160.269796 C143.562795,160.943353 143.205279,161.790103 143.134901,162.683589 L149.027621,162.683589 L149.027621,162.568647 C149.034304,161.730908 148.746857,160.917378 148.215361,160.269796 C147.723356,159.681916 146.989315,159.351597 146.223024,159.373244 L146.223024,159.373244 Z" id="Shape" fill="#251E1C" fill-rule="nonzero"></path>
                    <path d="M8.39926895,139.311942 C5.72493945,138.545658 3.8015678,137.595466 2.56018849,136.476693 C1.37781739,135.426171 0.711937109,133.912553 0.736433702,132.331099 C0.717671902,130.533662 1.54320753,128.831526 2.96631876,127.733397 C4.62896135,126.463676 6.68472147,125.8182 8.77474788,125.909643 C10.2765135,125.882687 11.7639703,126.205363 13.1195755,126.852171 C14.3291888,127.42422 15.3539926,128.324242 16.0774299,129.449873 C16.7695278,130.531549 17.1341043,131.790269 17.1272383,133.074394 L13.9931387,133.074394 C14.0569026,131.800051 13.5582845,130.56191 12.629154,129.68742 C11.5493025,128.815786 10.1830054,128.378571 8.79773638,128.461367 C7.51885502,128.383582 6.25153289,128.742972 5.20386665,129.480524 C4.33959242,130.154201 3.85662167,131.205877 3.9088475,132.300447 C3.9088475,133.265221 4.36308246,134.173691 5.13490114,134.752555 C6.39881266,135.619666 7.81605801,136.238573 9.31114635,136.576309 C10.9146789,136.990862 12.4594599,137.6062 13.9088475,138.407727 C14.9068388,138.960844 15.7540364,139.750158 16.3762804,140.706578 C16.9294011,141.656666 17.2079402,142.741642 17.1808781,143.840677 C17.2330879,145.647221 16.397202,147.364794 14.9433303,148.438378 C13.1939931,149.67188 11.0809108,150.281786 8.94333025,150.170179 C7.37980365,150.181076 5.83151209,149.86254 4.39926895,149.235313 C3.09791912,148.699746 1.97057999,147.81379 1.14256397,146.675926 C0.379567359,145.600063 -0.0204018091,144.308888 0.000801518204,142.990102 L3.13490114,142.990102 C3.07960973,144.308494 3.66828094,145.571566 4.7134452,146.377076 C5.94211779,147.257993 7.43346638,147.695671 8.94333025,147.618455 C10.28096,147.706737 11.6106545,147.354125 12.7287709,146.614624 C13.5935866,145.97347 14.0866787,144.94715 14.0467785,143.871329 C14.1027567,142.829885 13.6481857,141.826398 12.8283877,141.181673 C11.4721843,140.305217 9.97327362,139.672459 8.39926895,139.311942 Z" id="Path" fill="#251E1C" fill-rule="nonzero"></path>
                    <path d="M31.5486942,148.116539 C30.3737262,149.490741 28.647034,150.177842 26.3686176,150.177842 C24.7728381,150.287837 23.2093402,149.691018 22.0927555,148.545658 C21.1119126,147.457535 20.6163826,145.845786 20.6061655,143.710409 L20.6061655,132.277459 L23.6099969,132.277459 L23.6099969,143.633781 C23.6099969,146.295339 24.693011,147.626118 26.8590391,147.626118 C29.1578896,147.626118 30.6904567,146.775543 31.4567402,145.059068 L31.4567402,132.277459 L34.4605716,132.277459 L34.4605716,149.856003 L31.6023341,149.856003 L31.5486942,148.116539 Z" id="Path" fill="#251E1C" fill-rule="nonzero"></path>
                    <path d="M46.0850927,147.725735 C47.1080543,147.743819 48.1043677,147.399046 48.8973532,146.752555 C49.6615773,146.161269 50.1447637,145.278204 50.2306866,144.315773 L53.0659356,144.315773 C53.0008587,145.352403 52.6420502,146.349093 52.0314529,147.189336 C51.3707547,148.114632 50.4915402,148.862227 49.4720659,149.365581 C48.4243737,149.903557 47.2628273,150.182118 46.0850927,150.177842 C43.9186583,150.275503 41.822903,149.395004 40.3762804,147.779375 C38.9663188,146.185505 38.2536751,144.001597 38.2536751,141.22765 L38.2536751,140.721903 C38.2192344,139.13806 38.5413548,137.566741 39.1962038,136.124202 C39.7821848,134.862213 40.7218565,133.797429 41.9011847,133.059068 C43.1574507,132.302191 44.6035628,131.919397 46.069767,131.95562 C47.8733866,131.894491 49.6316433,132.528122 50.9816444,133.725735 C52.2847013,134.902388 53.039749,136.567934 53.0659356,138.323436 L50.2306866,138.323436 C50.1748953,137.257028 49.7112361,136.25289 48.9356674,135.518838 C48.1621842,134.790041 47.1321708,134.396212 46.069767,134.423053 C44.6882048,134.355561 43.3617424,134.971521 42.5218743,136.070562 C41.5941953,137.47967 41.1528566,139.153528 41.2651693,140.836846 L41.2651693,141.403896 C41.1584757,143.059141 41.5972147,144.703739 42.5142115,146.085888 C43.3604197,147.188965 44.6969583,147.80274 46.0850927,147.725735 Z" id="Path" fill="#251E1C" fill-rule="nonzero"></path>
                    <path d="M63.4950544,147.725735 C64.5180159,147.743819 65.5143293,147.399046 66.3073149,146.752555 C67.074461,146.163768 67.5584052,145.279318 67.6406483,144.315773 L70.4835601,144.315773 C70.4154004,145.353009 70.053991,146.349542 69.4414145,147.189336 C68.7823785,148.116157 67.9027405,148.864113 66.8820276,149.365581 C65.8346504,149.904407 64.6728936,150.183018 63.4950544,150.177842 C61.328816,150.274404 59.2335124,149.394095 57.7862421,147.779375 C56.3762804,146.185505 55.6712996,144.001597 55.6712996,141.22765 L55.6712996,140.721903 C55.6368589,139.13806 55.9589793,137.566741 56.6138283,136.124202 C57.1969966,134.862751 58.1340771,133.797886 59.3111463,133.059068 C60.5674124,132.302191 62.0135245,131.919397 63.4797287,131.95562 C65.2833482,131.894491 67.041605,132.528122 68.3916061,133.725735 C69.6967385,134.901594 70.4544851,136.566971 70.4835601,138.323436 L67.6406483,138.323436 C67.584857,137.257028 67.1211978,136.25289 66.3456291,135.518838 C65.5730516,134.788599 64.5424198,134.394533 63.4797287,134.423053 C62.0986881,134.358224 60.7734017,134.973638 59.931836,136.070562 C59.0072589,137.481054 58.5661991,139.153854 58.675131,140.836846 L58.675131,141.403896 C58.5684374,143.059141 59.0071763,144.703739 59.9241732,146.085888 C60.7712386,147.18789 62.1071766,147.801389 63.4950544,147.725735 L63.4950544,147.725735 Z" id="Path" fill="#251E1C" fill-rule="nonzero"></path>
                    <path d="M81.1502268,150.177842 C78.9658175,150.261605 76.8496237,149.408436 75.3341349,147.833014 C73.7850764,146.11778 72.9802868,143.857754 73.096587,141.549489 L73.096587,140.98244 C73.0673925,139.371172 73.4081877,137.774678 74.0927555,136.315773 C74.7084322,135.004271 75.676853,133.889923 76.8896904,133.097382 C78.0447103,132.336127 79.3991049,131.933541 80.7824107,131.940294 C82.8099051,131.830707 84.7747188,132.661865 86.1080812,134.193168 C87.3750033,135.725735 88.0084644,137.881546 88.0084644,140.660601 L88.0084644,141.909643 L76.1004184,141.909643 C76.0785584,143.450046 76.6240447,144.944678 77.6329854,146.108876 C78.5708542,147.161441 79.9248343,147.747325 81.3341349,147.710409 C82.2731648,147.741231 83.202897,147.516082 84.02379,147.059068 C84.7751876,146.614791 85.43352,146.029317 85.9624873,145.33493 L87.793905,146.76788 C86.3603639,149.023885 83.8189262,150.328314 81.1502268,150.177842 Z M80.7747479,134.423053 C79.6088214,134.397931 78.489781,134.881916 77.7096138,135.748723 C76.8151976,136.789238 76.2780398,138.08916 76.1770467,139.457535 L84.9816444,139.457535 L84.9816444,139.22765 C84.9776298,137.940519 84.5433698,136.691684 83.747928,135.679758 C82.9902931,134.843455 81.9025162,134.383673 80.7747479,134.423053 Z" id="Shape" fill="#251E1C" fill-rule="nonzero"></path>
                    <path d="M101.717277,145.189336 C101.749226,144.443799 101.40356,143.732303 100.797736,143.296616 C99.8146052,142.708078 98.7269577,142.315172 97.5946713,142.139528 C96.3443356,141.903199 95.1290201,141.509251 93.977813,140.967114 C93.1892949,140.602516 92.5063641,140.043515 91.9931387,139.342593 C91.5516669,138.681572 91.3267181,137.899607 91.3494605,137.105045 C91.3548557,135.667323 92.0324856,134.314898 93.1808781,133.449873 C94.5112261,132.416438 96.1643577,131.88711 97.8475448,131.95562 C99.5951189,131.874077 101.31464,132.41737 102.69812,133.488187 C103.903039,134.439076 104.592344,135.89995 104.560188,137.434547 L101.495054,137.434547 C101.492846,136.604333 101.108441,135.82139 100.452909,135.311942 C99.7117539,134.698453 98.7706757,134.379305 97.8092306,134.41539 C96.8983834,134.363452 95.9959051,134.613991 95.2421808,135.128034 C94.6546035,135.568615 94.3128969,136.263419 94.3226406,136.997765 C94.2878219,137.660087 94.616825,138.288718 95.1808781,138.637612 C96.1568265,139.149248 97.2064042,139.506001 98.2919893,139.695083 C99.5511767,139.950251 100.775593,140.354102 101.939499,140.898148 C102.759299,141.274654 103.4709,141.851841 104.008464,142.576309 C104.474765,143.287328 104.710258,144.124936 104.682794,144.974777 C104.719802,146.468723 104.013689,147.883819 102.797736,148.752555 C101.367886,149.748907 99.6499043,150.247067 97.9088475,150.170179 C96.6215297,150.189053 95.3455224,149.927576 94.1693839,149.403896 C93.1463772,148.958789 92.2679419,148.236933 91.6329854,147.319604 C91.034512,146.47231 90.7132692,145.460395 90.7134451,144.423053 L93.7172766,144.423053 C93.7393412,145.361872 94.1842839,146.240492 94.9280046,146.813857 C95.7918334,147.440087 96.8431179,147.75358 97.9088475,147.702746 C98.8688679,147.748519 99.8208946,147.508512 100.64448,147.013091 C101.302328,146.6406 101.711329,145.945298 101.717277,145.189336 Z" id="Path" fill="#251E1C" fill-rule="nonzero"></path>
                    <path d="M118.866702,145.189336 C118.898652,144.443799 118.552986,143.732303 117.947162,143.296616 C116.966275,142.709175 115.88135,142.316312 114.751759,142.139528 C113.498986,141.903105 112.281148,141.509174 111.127238,140.967114 C110.339964,140.600533 109.657488,140.041904 109.142564,139.342593 C108.708797,138.678389 108.487003,137.898101 108.506549,137.105045 C108.50292,135.666964 109.179106,134.311751 110.330303,133.449873 C111.663004,132.415303 113.318937,131.885948 115.004633,131.95562 C116.750054,131.872534 118.467688,132.416089 119.847545,133.488187 C121.052464,134.439076 121.741769,135.89995 121.709614,137.434547 L118.690457,137.434547 C118.685262,136.603289 118.298146,135.820581 117.640648,135.311942 C116.901489,134.700239 115.96347,134.381203 115.004633,134.41539 C114.093537,134.361117 113.190317,134.611862 112.437583,135.128034 C111.84003,135.561033 111.493402,136.260019 111.51038,136.997765 C111.475561,137.660087 111.804565,138.288718 112.368618,138.637612 C113.344566,139.149248 114.394144,139.506001 115.479729,139.695083 C116.738916,139.950251 117.963332,140.354102 119.127238,140.898148 C119.949002,141.271488 120.661332,141.849268 121.196204,142.576309 C121.662504,143.287328 121.897998,144.124936 121.870533,144.974777 C121.907542,146.468723 121.201429,147.883819 119.985476,148.752555 C118.556124,149.74995 116.837781,150.248216 115.096587,150.170179 C113.811753,150.18892 112.538271,149.927425 111.364786,149.403896 C110.338328,148.961058 109.456848,148.238881 108.820725,147.319604 C108.222251,146.47231 107.901009,145.460395 107.901185,144.423053 L110.905016,144.423053 C110.930344,145.361049 111.374618,146.238349 112.115744,146.813857 C112.980119,147.43898 114.031007,147.752355 115.096587,147.702746 C116.059136,147.749587 117.013918,147.509558 117.839882,147.013091 C118.477781,146.626808 118.867243,145.935078 118.866702,145.189336 Z" id="Path" fill="#251E1C" fill-rule="nonzero"></path>
                    <path d="M126.253675,149.856003 L126.253675,126.20083 L133.985476,126.20083 C136.552526,126.20083 138.48356,126.737229 139.778579,127.7947 C141.123986,128.977567 141.840859,130.720161 141.717277,132.507344 C141.734569,133.560329 141.403193,134.589482 140.774748,135.434547 C140.113962,136.310763 139.230074,136.993527 138.215361,137.411558 C139.440539,137.719503 140.52268,138.439126 141.280495,139.449873 C142.033424,140.488523 142.423853,141.745975 142.391606,143.028417 C142.487049,144.920633 141.730856,146.756299 140.330303,148.032248 C138.950993,149.250639 137.012296,149.856003 134.498886,149.856003 L126.253675,149.856003 Z M129.372449,136.292784 L134.085093,136.292784 C135.26345,136.352672 136.424268,135.988387 137.357123,135.265965 C138.177389,134.580817 138.630836,133.552059 138.583177,132.484355 C138.68816,131.415193 138.278525,130.359812 137.479729,129.641443 C136.453085,128.975221 135.236717,128.663056 134.016127,128.752555 L129.418426,128.752555 L129.372449,136.292784 Z M129.372449,138.790869 L129.372449,147.304279 L134.521874,147.304279 C135.769536,147.374403 136.99787,146.972254 137.962487,146.177842 C138.817995,145.375715 139.277561,144.23801 139.219192,143.066731 C139.219192,140.216156 137.6713,138.790869 134.575514,138.790869 L129.372449,138.790869 Z" id="Shape" fill="#251E1C" fill-rule="nonzero"></path>
                    <path d="M145.701951,140.905811 C145.676604,139.298176 146.022757,137.706394 146.713445,136.25447 C147.332559,134.945914 148.313856,133.842288 149.541031,133.074394 C150.784955,132.319945 152.216657,131.932137 153.6713,131.95562 C155.880889,131.875171 158.010968,132.785653 159.479729,134.438378 C161.026767,136.28425 161.820362,138.64588 161.701951,141.051405 L161.701951,141.258302 C161.727876,142.846247 161.389727,144.419032 160.713445,145.856003 C160.108295,147.166583 159.133514,148.271867 157.908847,149.036079 C156.645278,149.805391 155.188678,150.198779 153.709614,150.170179 C151.505111,150.247087 149.381165,149.336825 147.91651,147.68742 C146.375549,145.850574 145.584657,143.499791 145.701951,141.105045 L145.701951,140.905811 Z M148.721108,141.258302 C148.637171,142.931465 149.114539,144.584722 150.07743,145.95562 C150.948355,147.077824 152.289102,147.734439 153.709614,147.734439 C155.130125,147.734439 156.470872,147.077824 157.341798,145.95562 C158.326374,144.471411 158.799881,142.706521 158.690457,140.9288 C158.771178,139.256102 158.288173,137.60471 157.318809,136.239145 C156.447217,135.128556 155.113716,134.479963 153.701951,134.479963 C152.290186,134.479963 150.956685,135.128556 150.085093,136.239145 C149.173215,137.373244 148.721108,139.066731 148.721108,141.258302 L148.721108,141.258302 Z" id="Shape" fill="#251E1C" fill-rule="nonzero"></path>
                    <path d="M164.667468,140.905811 C164.644512,139.297574 164.993294,137.705762 165.686625,136.25447 C166.305739,134.945914 167.287036,133.842288 168.514211,133.074394 C169.757636,132.318783 171.18968,131.930882 172.64448,131.95562 C174.853666,131.877337 176.982861,132.787441 178.452909,134.438378 C179.997863,136.285003 180.788773,138.646786 180.667468,141.051405 L180.667468,141.258302 C180.69606,142.845676 180.360525,144.418494 179.686625,145.856003 C179.078657,147.167122 178.101286,148.272324 176.874365,149.036079 C175.611303,149.806574 174.154352,150.200058 172.675131,150.170179 C170.473071,150.24586 168.351969,149.335612 166.88969,147.68742 C165.345972,145.851704 164.552304,143.500803 164.667468,141.105045 L164.667468,140.905811 Z M167.694288,141.258302 C167.610351,142.931465 168.087719,144.584722 169.05061,145.95562 C169.921535,147.077824 171.262282,147.734439 172.682794,147.734439 C174.103305,147.734439 175.444052,147.077824 176.314978,145.95562 C177.299554,144.471411 177.773061,142.706521 177.663637,140.9288 C177.740799,139.256526 177.258126,137.60627 176.291989,136.239145 C175.446125,135.076654 174.081579,134.405848 172.64448,134.446041 C171.230977,134.411587 169.890608,135.073179 169.058273,136.216156 C168.13107,137.373244 167.694288,139.066731 167.694288,141.258302 L167.694288,141.258302 Z" id="Shape" fill="#251E1C" fill-rule="nonzero"></path>
                    <polygon id="Path" fill="#251E1C" fill-rule="nonzero" points="189.341798 141.748723 187.45674 143.710409 187.45674 149.886654 184.452909 149.886654 184.452909 124.890486 187.45674 124.890486 187.45674 139.978608 189.065936 138.047574 194.5372 132.262133 198.192372 132.262133 191.357123 139.603129 199.019959 149.840677 195.495054 149.840677"></polygon>
                    <path d="M53.4797287,96.315773 L53.4797287,49.2046619 C51.7262647,47.800859 50.0627085,46.2883025 48.4988858,44.6759262 L48.4988858,103.472861 C61.3801119,98.1701791 78.9586559,97.5494895 89.188541,103.909643 C91.4414145,107.970945 92.1540582,112.545658 92.8130621,117.135696 C92.9816444,112.170179 92.9969701,107.020754 92.8130621,101.74106 C81.1808781,94.1471906 66.8283877,92.9058113 53.4797287,96.315773 Z" id="Path" fill="url(#radialGradient-1)"></path>
                    <path d="M142.215361,96.315773 L142.215361,49.2046619 C143.967076,47.7988113 145.630509,46.2863674 147.196204,44.6759262 L147.196204,103.472861 C134.314978,98.1701791 116.736434,97.5494895 106.506549,103.909643 C104.253675,107.970945 103.541031,112.545658 102.874365,117.135696 C102.705782,112.170179 102.69812,107.020754 102.874365,101.74106 C114.491223,94.1471906 128.866702,92.9058113 142.215361,96.315773 Z" id="Path" fill="url(#radialGradient-2)"></path>
                    <path d="M58.6674682,33.5878036 L58.6138283,90.1548534 C68.1090764,88.8334078 77.7840219,90.2725459 86.4835601,94.3004473 C88.5749059,95.2634736 90.6066464,96.3509922 92.5678513,97.5571523 C91.0352843,78.5839722 85.4720659,58.1701791 72.4222575,44.1855048 C68.4616408,39.9092478 63.812305,36.3270575 58.6674682,33.5878036 L58.6674682,33.5878036 Z" id="Path" fill="url(#radialGradient-3)"></path>
                    <path d="M61.1349011,52.5150067 L61.1349011,87.3425929 C70.0101115,86.5959272 78.9292222,88.1228832 87.0506099,91.7793745 C83.4797287,75.2123247 75.8705333,61.4805239 61.1349011,52.5150067 Z" id="Path" fill="url(#linearGradient-4)"></path>
                    <path d="M59.6176598,37.8866542 L58.6138283,37.3502557 L58.6521425,48.2391446 C78.1540582,58.2851216 87.0429471,75.4422098 90.4682345,96.3234358 C91.1655525,96.7219032 91.8705333,97.1280335 92.5678513,97.5571523 C89.4337517,75.5188381 79.5333686,48.6069607 59.6176598,37.8866542 Z" id="Path" fill="url(#radialGradient-5)"></path>
                    <path d="M58.9280046,33.7027462 C41.6942881,24.4230527 36.9969701,32.6606006 56.2460122,46.967114 C44.1234069,36.2391446 44.5065486,29.7257347 59.6176598,37.8636657 C79.5410314,48.591635 89.4337517,75.4958496 92.5678513,97.5341638 C90.629154,73.0207538 81.8322191,46.0628994 58.9280046,33.7027462 Z" id="Path" fill="url(#radialGradient-6)"></path>
                    <path d="M137.027621,33.5878036 L137.073598,90.1548534 C127.580851,88.8340354 117.908536,90.2731781 109.211529,94.3004473 C107.120184,95.2634736 105.088443,96.3509922 103.127238,97.5571523 C104.659805,78.5839722 110.223024,58.1701791 123.272832,44.1855048 C127.233449,39.9092478 131.882785,36.3270575 137.027621,33.5878036 L137.027621,33.5878036 Z" id="Path" fill="url(#radialGradient-7)"></path>
                    <path d="M134.560188,52.5150067 L134.560188,87.3425929 C125.684978,86.5959272 116.765867,88.1228832 108.64448,91.7793745 C112.192372,75.2123247 119.855208,61.4805239 134.560188,52.5150067 Z" id="Path" fill="url(#linearGradient-8)"></path>
                    <path d="M136.069767,37.8866542 L137.073598,37.3502557 L137.073598,48.2391446 C117.571683,58.2851216 108.682794,75.4422098 105.257506,96.3234358 C104.552526,96.7219032 103.855208,97.1280335 103.15789,97.5571523 C106.261338,75.5188381 116.161721,48.6069607 136.069767,37.8866542 Z" id="Path" fill="url(#radialGradient-9)"></path>
                    <path d="M136.767085,33.7027462 C154.000802,24.4230527 158.69812,32.6606006 139.449077,46.967114 C151.571683,36.2391446 151.188541,29.7257347 136.069767,37.8636657 C116.146395,48.591635 106.261338,75.4958496 103.119575,97.5341638 C105.065936,73.0207538 113.855208,46.0628994 136.767085,33.7027462 Z" id="Path" fill="url(#radialGradient-10)"></path>
                    <path d="M71.7555908,33.9556197 C81.8827893,39.3933334 90.7580723,46.8929475 97.8092306,55.9709454 C104.85973,46.8923154 113.735159,39.3925785 123.86287,33.9556197 C114.402316,35.2884606 105.436482,39.006645 97.8092306,44.7602174 C90.1813065,39.0078216 81.215788,35.2897683 71.7555908,33.9556197 Z" id="Path" fill="url(#radialGradient-11)"></path>
                    <path d="M97.8475448,55.9709454 C104.898045,46.8923154 113.773473,39.3925785 123.901185,33.9556197 C114.293157,37.9997881 105.473563,43.7065843 97.8475448,50.8138573 L97.8475448,55.9709454 Z" id="Path" fill="url(#radialGradient-12)"></path>
                    <path d="M97.8475448,55.9709454 L97.8475448,50.7908688 C90.2224167,43.682454 81.402609,37.9755196 71.793905,33.9326312 C81.9233095,39.3770422 90.7987621,46.884631 97.8475448,55.9709454 L97.8475448,55.9709454 Z" id="Path" fill="url(#radialGradient-13)"></path>
                    <path d="M97.8475448,17.4115584 C92.6642606,17.4115584 88.4619844,21.6126953 88.4605748,26.7959794 C88.4591658,31.9792635 92.6591569,36.1826831 97.8424404,36.1855048 C103.025724,36.1883236 107.230287,31.989477 107.234518,26.8061944 C107.234518,21.6206713 103.033066,17.415788 97.8475448,17.4115584 L97.8475448,17.4115584 Z" id="Path" fill="url(#radialGradient-14)"></path>
                    <path d="M97.8475448,19.2276504 C95.8382939,19.2276504 93.9114484,20.0263453 92.4914123,21.4478187 C91.0713762,22.8692921 90.2746299,24.7969445 90.2766597,26.8061944 C90.2766597,30.9901025 93.6636368,24.3770757 97.8475448,24.3770757 C102.031453,24.3770757 105.41843,30.9901025 105.41843,26.8061944 C105.42046,24.7969445 104.623713,22.8692921 103.203677,21.4478187 C101.783641,20.0263453 99.8567957,19.2276504 97.8475448,19.2276504 L97.8475448,19.2276504 Z" id="Path" fill="url(#linearGradient-15)"></path>
                    <path d="M117.042947,9.81002585 L100.18471,0.614623552 C98.7343548,-0.204874517 96.9607348,-0.204874517 95.5103801,0.614623552 L78.6521425,9.81002585 C78.1117321,10.1049644 77.7832603,10.6788921 77.8026923,11.2942412 C77.8221244,11.9095903 78.1861537,12.4616495 78.7440965,12.7219032 L86.4069318,16.3004473 L88.4375831,10.7142404 L88.4375831,19.6337806 C90.676744,16.7152479 94.1460138,15.0042501 97.8245563,15.0042501 C101.503099,15.0042501 104.972369,16.7152479 107.211529,19.6337806 L107.211529,10.7142404 L109.219192,16.3387615 L116.928005,12.7602174 C117.509421,12.5131736 117.896071,11.9528027 117.920665,11.3215576 C117.945258,10.6903124 117.60338,10.1015573 117.042947,9.81002585 Z" id="Path" fill="url(#radialGradient-16)"></path>
                </g>
            </g>
        </g>
    </g>
</svg>