<?xml version="1.0" encoding="UTF-8"?>
<svg width="200px" height="203px" viewBox="0 0 200 203" version="1.1" xmlns="http://www.w3.org/2000/svg" xmlns:xlink="http://www.w3.org/1999/xlink">
    <!-- Generator: Sketch 55.2 (78181) - https://sketchapp.com -->
    <title>Logo4</title>
    <desc>Created with Sketch.</desc>
    <defs>
        <radialGradient cx="-11.2710084%" cy="37.8876843%" fx="-11.2710084%" fy="37.8876843%" r="120.373652%" gradientTransform="translate(-0.112710,0.378877),scale(1.000000,0.544361),translate(0.112710,-0.378877)" id="radialGradient-1">
            <stop stop-color="#FFFFFF" offset="0%"></stop>
            <stop stop-color="#6AAFE4" offset="50%"></stop>
            <stop stop-color="#35368C" offset="100%"></stop>
        </radialGradient>
        <linearGradient x1="107.80197%" y1="55.4068564%" x2="54.6721559%" y2="50.1730242%" id="linearGradient-2">
            <stop stop-color="#FFFFFF" offset="0%"></stop>
            <stop stop-color="#FFFFFF" stop-opacity="0" offset="100%"></stop>
        </linearGradient>
        <radialGradient cx="65.1584867%" cy="61.1736811%" fx="65.1584867%" fy="61.1736811%" r="147.903885%" gradientTransform="translate(0.651585,0.611737),scale(1.000000,0.463782),translate(-0.651585,-0.611737)" id="radialGradient-3">
            <stop stop-color="#FFFFFF" offset="0%"></stop>
            <stop stop-color="#6AAFE4" offset="50%"></stop>
            <stop stop-color="#35368C" offset="100%"></stop>
        </radialGradient>
        <radialGradient cx="68.1399888%" cy="134.610178%" fx="68.1399888%" fy="134.610178%" r="138.388616%" gradientTransform="translate(0.681400,1.346102),scale(0.802903,1.000000),translate(-0.681400,-1.346102)" id="radialGradient-4">
            <stop stop-color="#FFFFFF" offset="0%"></stop>
            <stop stop-color="#E5E432" offset="28%"></stop>
            <stop stop-color="#569344" offset="80%"></stop>
        </radialGradient>
        <linearGradient x1="-1.99461401%" y1="-34.5157374%" x2="37.3823738%" y2="43.1158812%" id="linearGradient-5">
            <stop stop-color="#FFFFFF" offset="0%"></stop>
            <stop stop-color="#FFFFFF" stop-opacity="0" offset="100%"></stop>
        </linearGradient>
        <radialGradient cx="78.2523534%" cy="107.588474%" fx="78.2523534%" fy="107.588474%" r="124.323937%" gradientTransform="translate(0.782524,1.075885),scale(0.817612,1.000000),translate(-0.782524,-1.075885)" id="radialGradient-6">
            <stop stop-color="#FFFFFF" offset="0%"></stop>
            <stop stop-color="#E5E432" offset="28%"></stop>
            <stop stop-color="#569344" offset="80%"></stop>
        </radialGradient>
        <radialGradient cx="189.178905%" cy="-73.0722104%" fx="189.178905%" fy="-73.0722104%" r="332.856105%" gradientTransform="translate(1.891789,-0.730722),scale(0.750976,1.000000),translate(-1.891789,0.730722)" id="radialGradient-7">
            <stop stop-color="#FFFFFF" offset="0%"></stop>
            <stop stop-color="#E5E432" offset="28%"></stop>
            <stop stop-color="#569344" offset="80%"></stop>
        </radialGradient>
        <radialGradient cx="117.287576%" cy="22.7301848%" fx="117.287576%" fy="22.7301848%" r="125.588512%" gradientTransform="translate(1.172876,0.227302),scale(1.000000,0.769470),translate(-1.172876,-0.227302)" id="radialGradient-8">
            <stop stop-color="#FFFFFF" offset="0%"></stop>
            <stop stop-color="#E7B539" offset="50%"></stop>
            <stop stop-color="#AB2027" offset="100%"></stop>
        </radialGradient>
        <linearGradient x1="-5.08387368%" y1="108.251667%" x2="53.9880747%" y2="30.903657%" id="linearGradient-9">
            <stop stop-color="#FFFFFF" offset="0%"></stop>
            <stop stop-color="#FFFFFF" stop-opacity="0" offset="100%"></stop>
        </linearGradient>
        <radialGradient cx="49.9467503%" cy="49.998229%" fx="49.9467503%" fy="49.998229%" r="66.5901797%" gradientTransform="translate(0.499468,0.499982),scale(1.000000,0.626521),translate(-0.499468,-0.499982)" id="radialGradient-10">
            <stop stop-color="#FFFFFF" offset="0%"></stop>
            <stop stop-color="#E7B539" offset="50%"></stop>
            <stop stop-color="#AB2027" offset="100%"></stop>
        </radialGradient>
        <radialGradient cx="61.6995159%" cy="-170.555906%" fx="61.6995159%" fy="-170.555906%" r="435.040671%" gradientTransform="translate(0.616995,-1.705559),scale(1.000000,0.713042),translate(-0.616995,1.705559)" id="radialGradient-11">
            <stop stop-color="#FFFFFF" offset="0%"></stop>
            <stop stop-color="#E7B539" offset="50%"></stop>
            <stop stop-color="#AB2027" offset="100%"></stop>
        </radialGradient>
    </defs>
    <g id="Page-1" stroke="none" stroke-width="1" fill="none" fill-rule="evenodd">
        <g id="Desktop-Full-HD" transform="translate(-410.000000, -629.000000)">
            <g id="Logo4" transform="translate(410.000000, 629.000000)">
                <polygon id="Path" fill="#000000" fill-rule="nonzero" points="53.3030303 194.59596 50.2727273 194.59596 50.2727273 202.818182 49.5252525 202.818182 49.5252525 194.59596 46.4949495 194.59596 46.4949495 193.969697 53.2929293 193.969697"></polygon>
                <path d="M60.8989899,200.333333 L56.8585859,200.333333 L55.9494949,202.818182 L55.1616162,202.818182 L58.5151515,193.969697 L59.2222222,193.969697 L62.5757576,202.818182 L61.7979798,202.818182 L60.8989899,200.333333 Z M57.1111111,199.69697 L60.6565657,199.69697 L58.8888889,194.878788 L57.1111111,199.69697 Z" id="Shape" fill="#000000" fill-rule="nonzero"></path>
                <path d="M72.0808081,201.767677 C71.7667263,202.167867 71.3415797,202.466524 70.8585859,202.626263 C70.2622358,202.838909 69.6331047,202.944904 69,202.939394 C68.3486798,202.947629 67.7081592,202.772623 67.1515152,202.434343 C66.6100293,202.093724 66.175834,201.607005 65.8989899,201.030303 C65.5938172,200.376183 65.4418164,199.661088 65.4545455,198.939394 L65.4545455,197.818182 C65.3991574,196.767602 65.7296547,195.733002 66.3838384,194.909091 C67.013163,194.197638 67.9298022,193.807973 68.8787879,193.848485 C69.6725169,193.81006 70.45374,194.057328 71.0808081,194.545455 C71.6539766,195.029726 72.0162319,195.718011 72.0909091,196.464646 L71.3434343,196.464646 C71.2766147,195.886018 70.9911396,195.354818 70.5454545,194.979798 C70.0750875,194.626751 69.4966136,194.44821 68.9090909,194.474747 C68.1497847,194.447421 67.4212636,194.776189 66.9393939,195.363636 C66.4208485,196.084388 66.1674758,196.962271 66.2222222,197.848485 L66.2222222,198.858586 C66.2081869,199.472193 66.325273,200.081729 66.5656566,200.646465 C66.7792654,201.136244 67.1300843,201.553718 67.5757576,201.848485 C68.0141409,202.133567 68.5276491,202.281288 69.0505051,202.272727 C69.6178485,202.289193 70.1822959,202.18594 70.7070707,201.969697 C70.9639953,201.866302 71.1950403,201.707674 71.3838384,201.505051 L71.3838384,199.222222 L68.9494949,199.222222 L68.9494949,198.585859 L72.0808081,198.585859 L72.0808081,201.767677 Z" id="Path" fill="#000000" fill-rule="nonzero"></path>
                <polygon id="Path" fill="#000000" fill-rule="nonzero" points="76.8181818 202.181818 81.1717172 202.181818 81.1717172 202.818182 76.0505051 202.818182 76.0505051 193.969697 76.8080808 193.969697"></polygon>
                <polygon id="Path" fill="#000000" fill-rule="nonzero" points="85.3939394 202.818182 84.6464646 202.818182 84.6464646 193.969697 85.3939394 193.969697"></polygon>
                <polygon id="Path" fill="#000000" fill-rule="nonzero" points="96.2424242 202.818182 95.4949495 202.818182 90.4444444 195.242424 90.4444444 202.818182 89.6868687 202.818182 89.6868687 193.969697 90.4444444 193.969697 95.4949495 201.545455 95.4949495 193.969697 96.2323232 193.969697"></polygon>
                <polygon id="Path" fill="#000000" fill-rule="nonzero" points="105.242424 198.575758 101.111111 198.575758 101.111111 202.181818 105.868687 202.181818 105.868687 202.818182 100.363636 202.818182 100.363636 193.969697 105.838384 193.969697 105.838384 194.59596 101.111111 194.59596 101.111111 197.939394 105.242424 197.939394"></polygon>
                <polygon id="Path" fill="#000000" fill-rule="nonzero" points="120.757576 202.818182 120 202.818182 120 198.575758 114.949495 198.575758 114.949495 202.818182 114.20202 202.818182 114.20202 193.969697 114.949495 193.969697 114.949495 197.939394 120 197.939394 120 193.969697 120.757576 193.969697"></polygon>
                <polygon id="Path" fill="#000000" fill-rule="nonzero" points="129.747475 198.575758 125.616162 198.575758 125.616162 202.181818 130.373737 202.181818 130.373737 202.818182 124.868687 202.818182 124.868687 193.969697 130.343434 193.969697 130.343434 194.59596 125.616162 194.59596 125.616162 197.939394 129.747475 197.939394"></polygon>
                <path d="M137.111111,199.131313 L134.545455,199.131313 L134.545455,202.818182 L133.787879,202.818182 L133.787879,193.969697 L136.666667,193.969697 C137.462665,193.925041 138.248073,194.168912 138.878788,194.656566 C139.820361,195.559374 139.945741,197.020702 139.171717,198.070707 C138.834114,198.504462 138.367078,198.819357 137.838384,198.969697 L140.050505,202.737374 L140.050505,202.818182 L139.252525,202.818182 L137.111111,199.131313 Z M134.545455,198.494949 L136.838384,198.494949 C137.393622,198.518884 137.936583,198.327038 138.353535,197.959596 C139.130145,197.172834 139.130145,195.907974 138.353535,195.121212 C137.881225,194.747601 137.288048,194.56066 136.686869,194.59596 L134.575758,194.59596 L134.545455,198.494949 Z" id="Shape" fill="#000000" fill-rule="nonzero"></path>
                <polygon id="Path" fill="#000000" fill-rule="nonzero" points="148.454545 198.575758 144.323232 198.575758 144.323232 202.181818 149.080808 202.181818 149.080808 202.818182 143.575758 202.818182 143.575758 193.969697 149.050505 193.969697 149.050505 194.59596 144.323232 194.59596 144.323232 197.939394 148.454545 197.939394"></polygon>
                <polygon id="Path" fill="#000000" fill-rule="nonzero" points="22.4646465 185.242424 18.6666667 185.242424 18.6666667 171.949495 4.19191919 171.949495 4.19191919 185.242424 0.363636364 185.242424 0.363636364 156.474747 4.15151515 156.474747 4.15151515 168.848485 18.6262626 168.848485 18.6262626 156.474747 22.4242424 156.474747"></polygon>
                <path d="M41.7777778,183.131313 C40.1873915,184.881021 37.8842518,185.807486 35.5252525,185.646465 C33.5818452,185.768644 31.6830687,185.02982 30.3333333,183.626263 C29.1414141,182.30303 28.5454545,180.343434 28.5252525,177.747475 L28.5252525,163.868687 L32.1717172,163.868687 L32.1717172,177.676768 C32.1717172,180.919192 33.4949495,182.535354 36.1212121,182.535354 C38.9090909,182.535354 40.7609428,181.494949 41.6767677,179.414141 L41.6767677,163.868687 L45.3232323,163.868687 L45.3232323,185.242424 L41.8585859,185.242424 L41.7777778,183.131313 Z" id="Path" fill="#000000" fill-rule="nonzero"></path>
                <path d="M54.3030303,163.868687 L54.4040404,166.232323 C55.9791334,164.388602 58.3146462,163.371704 60.7373737,163.474747 C63.7205387,163.474747 65.7407407,164.619529 66.7979798,166.909091 C67.5149778,165.874418 68.4624112,165.020345 69.5656566,164.414141 C70.8105085,163.762108 72.2012444,163.438762 73.6060606,163.474747 C78.2861953,163.474747 80.6666667,165.956229 80.7474747,170.919192 L80.7474747,185.242424 L77.1313131,185.242424 L77.1313131,171.10101 C77.2378867,169.869997 76.8772876,168.64396 76.1212121,167.666667 C75.1616563,166.817436 73.8911345,166.407354 72.6161616,166.535354 C71.3778634,166.492507 70.170316,166.926356 69.2424242,167.747475 C68.3238366,168.598856 67.7670336,169.770311 67.6868687,171.020202 L67.6868687,185.161616 L64,185.161616 L64,171.232323 C64,168.131313 62.4747475,166.575758 59.4444444,166.575758 C57.3221797,166.40655 55.3352583,167.633045 54.5353535,169.606061 L54.5353535,185.212121 L50.8686869,185.212121 L50.8686869,163.868687 L54.3030303,163.868687 Z" id="Path" fill="#000000" fill-rule="nonzero"></path>
                <path d="M99.4343434,185.242424 C99.1479959,184.522485 98.9742418,183.762736 98.9191919,182.989899 C97.3707915,184.699904 95.1653707,185.666614 92.8585859,185.646465 C90.9711092,185.7226 89.1243385,185.084165 87.6868687,183.858586 C86.3651328,182.727949 85.6230765,181.062032 85.6666667,179.323232 C85.5793587,177.27519 86.5332452,175.321813 88.2020202,174.131313 C90.3133117,172.766236 92.8027333,172.104983 95.3131313,172.242424 L98.8585859,172.242424 L98.8585859,170.565657 C98.9172224,169.440599 98.5034734,168.342151 97.7171717,167.535354 C96.7959909,166.716455 95.5828525,166.30479 94.3535354,166.393939 C93.1810342,166.360146 92.0303077,166.715309 91.0808081,167.40404 C90.265963,167.92942 89.7689959,168.828513 89.7575758,169.79798 L86.0909091,169.79798 C86.1100391,168.666774 86.5084323,167.574749 87.2222222,166.69697 C88.0187002,165.670478 89.0608431,164.86108 90.2525253,164.343434 C91.5981059,163.751173 93.0552295,163.454926 94.5252525,163.474747 C96.6119879,163.354054 98.6697163,164.008786 100.30303,165.313131 C101.715341,166.608982 102.505757,168.447159 102.474747,170.363636 L102.474747,180.212121 C102.409107,181.805317 102.663265,183.395521 103.222222,184.888889 L103.222222,185.20202 L99.4343434,185.242424 Z M93.3737374,182.464646 C94.5173241,182.460323 95.6394304,182.15366 96.6262626,181.575758 C97.5852169,181.048926 98.3605048,180.241922 98.8484848,179.262626 L98.8484848,174.868687 L95.989899,174.868687 C91.5252525,174.868687 89.2929293,176.181818 89.2929293,178.808081 C89.2431697,179.831007 89.6635605,180.8206 90.4343434,181.494949 C91.2671935,182.165516 92.3155568,182.510184 93.3838384,182.464646 L93.3737374,182.464646 Z" id="Shape" fill="#000000" fill-rule="nonzero"></path>
                <path d="M111.676768,163.868687 L111.79798,166.555556 C113.302732,164.556964 115.680947,163.409249 118.181818,163.474747 C122.700337,163.474747 124.976431,166.023569 125.010101,171.121212 L125.010101,185.262626 L121.363636,185.262626 L121.363636,171.121212 C121.446454,169.887828 121.06851,168.667607 120.30303,167.69697 C119.431127,166.893926 118.261815,166.494381 117.080808,166.59596 C115.969035,166.572472 114.878892,166.905178 113.969697,167.545455 C113.067007,168.176184 112.34595,169.033093 111.878788,170.030303 L111.878788,185.262626 L108.232323,185.262626 L108.232323,163.868687 L111.676768,163.868687 Z" id="Path" fill="#000000" fill-rule="nonzero"></path>
                <path d="M139.535354,172.424242 C136.951592,171.810881 134.536456,170.630915 132.464646,168.969697 C131.024126,167.690735 130.21578,165.845196 130.252525,163.919192 C130.215812,161.721518 131.219422,159.635656 132.959596,158.292929 C134.978858,156.738019 137.484578,155.950507 140.030303,156.070707 C141.852338,156.039934 143.656845,156.430565 145.30303,157.212121 C146.770185,157.910336 148.012407,159.00559 148.888889,160.373737 C149.731247,161.691 150.173358,163.224354 150.161616,164.787879 L146.353535,164.787879 C146.437927,163.236768 145.831404,161.727858 144.69697,160.666667 C143.386133,159.596697 141.718859,159.062592 140.030303,159.171717 C138.478458,159.079112 136.940822,159.513352 135.666667,160.40404 C134.616373,161.230649 134.029574,162.513331 134.090909,163.848485 C134.090904,165.022049 134.645099,166.126695 135.585859,166.828283 C137.113845,167.881452 138.827585,168.635498 140.636364,169.050505 C142.591824,169.550214 144.47567,170.296964 146.242424,171.272727 C147.472503,171.952608 148.513932,172.928081 149.272727,174.111111 C149.958146,175.265056 150.307964,176.587371 150.282828,177.929293 C150.343998,180.126133 149.329856,182.214738 147.565657,183.525253 C145.44322,185.02521 142.878421,185.768682 140.282828,185.636364 C138.384477,185.649538 136.504857,185.260532 134.767677,184.494949 C133.190061,183.840958 131.823434,182.764434 130.818182,181.383838 C129.890181,180.074296 129.402072,178.503856 129.424242,176.89899 L133.232323,176.89899 C133.167701,178.502306 133.882768,180.037817 135.151515,181.020202 C136.641581,182.089689 138.451152,182.620449 140.282828,182.525253 C141.880365,182.626881 143.467888,182.208739 144.808081,181.333333 C145.857771,180.553858 146.455011,179.306458 146.40404,178 C146.47546,176.733892 145.925071,175.512483 144.929293,174.727273 C143.279586,173.65052 141.454019,172.871065 139.535354,172.424242 L139.535354,172.424242 Z" id="Path" fill="#000000" fill-rule="nonzero"></path>
                <path d="M159.414141,158.686869 L159.414141,163.868687 L163.393939,163.868687 L163.393939,166.686869 L159.414141,166.686869 L159.414141,179.969697 C159.365901,180.6537 159.551071,181.333842 159.939394,181.89899 C160.419611,182.37263 161.086806,182.606149 161.757576,182.535354 C162.343121,182.517527 162.925293,182.439678 163.494949,182.30303 L163.494949,185.252525 C162.580576,185.507986 161.636239,185.640465 160.686869,185.646465 C159.294926,185.745056 157.935087,185.197395 157,184.161616 C156.100764,182.948687 155.660559,181.456283 155.757576,179.949495 L155.757576,166.686869 L151.878788,166.686869 L151.878788,163.868687 L155.757576,163.868687 L155.757576,158.686869 L159.414141,158.686869 Z" id="Path" fill="#000000" fill-rule="nonzero"></path>
                <path d="M180.818182,185.242424 C180.531834,184.522485 180.35808,183.762736 180.30303,182.989899 C178.75463,184.699904 176.549209,185.666614 174.242424,185.646465 C172.348073,185.727752 170.493162,185.088998 169.050505,183.858586 C167.728769,182.727949 166.986713,181.062032 167.030303,179.323232 C166.942995,177.27519 167.896882,175.321813 169.565657,174.131313 C171.684521,172.778349 174.177462,172.131245 176.686869,172.282828 L180.232323,172.282828 L180.232323,170.606061 C180.29096,169.481003 179.877211,168.382555 179.090909,167.575758 C178.169728,166.756859 176.95659,166.345194 175.727273,166.434343 C174.554772,166.40055 173.404045,166.755713 172.454545,167.444444 C171.6397,167.969824 171.142733,168.868917 171.131313,169.838384 L167.464646,169.838384 C167.483776,168.707178 167.88217,167.615153 168.59596,166.737374 C169.392438,165.710882 170.434581,164.901484 171.626263,164.383838 C172.971843,163.791577 174.428967,163.49533 175.89899,163.515152 C177.985725,163.394458 180.043454,164.04919 181.676768,165.353535 C183.089078,166.649386 183.879494,168.487563 183.848485,170.40404 L183.848485,180.252525 C183.782844,181.845721 184.037002,183.435925 184.59596,184.929293 L184.59596,185.242424 L180.818182,185.242424 Z M174.757576,182.464646 C175.901359,182.461768 177.023835,182.155004 178.010101,181.575758 C178.969055,181.048926 179.744343,180.241922 180.232323,179.262626 L180.232323,174.868687 L177.373737,174.868687 C172.909091,174.868687 170.676768,176.181818 170.676768,178.808081 C170.627008,179.831007 171.047399,180.8206 171.818182,181.494949 C172.651032,182.165516 173.699395,182.510184 174.767677,182.464646 L174.757576,182.464646 Z" id="Shape" fill="#000000" fill-rule="nonzero"></path>
                <path d="M199.919192,167.191919 C199.327834,167.099263 198.729863,167.055344 198.131313,167.060606 C196.016893,166.883017 194.036921,168.115365 193.262626,170.090909 L193.262626,185.242424 L189.616162,185.242424 L189.616162,163.868687 L193.161616,163.868687 L193.222222,166.333333 C194.253038,164.525304 196.192018,163.427841 198.272727,163.474747 C198.82501,163.444616 199.377077,163.537777 199.888889,163.747475 L199.919192,167.191919 Z" id="Path" fill="#000000" fill-rule="nonzero"></path>
                <path d="M114.353535,117.89899 C121.424242,85.3030303 136.939394,64.2727273 146.383838,50.1616162 C150.343434,44.2323232 153.20202,39.5353535 153.868687,35.7272727 C154.212121,39.3636364 152.858586,44.2828283 150.838384,50.5050505 C155.565657,51.030303 159.737374,51.6464646 167.888889,52.9393939 C170.20202,53.3030303 171.505051,58.4343434 169.969697,60.1111111 C158.080808,73.1919192 157.979798,73.0808081 141.282828,88.4646465 C146.757576,112.707071 146.959596,112.646465 149.767677,133.686869 C150.131313,136.393939 146.424242,140.363636 144.10101,138.737374 C130.141414,129.030303 128.757576,128.080808 114.373737,117.878788 L114.353535,117.89899 Z" id="Path" fill="url(#radialGradient-1)"></path>
                <path d="M115.515152,113.141414 C122.383838,85.6161616 135.191919,66.7676768 144.191919,53.4848485 C152.080808,54.1919192 159.89899,55.0606061 167.929293,56.5151515 C168.353535,56.5858586 168.474747,57.5959596 168.232323,57.8888889 C159.434343,68.5252525 148.626263,77.7979798 138.484848,87.1818182 C142.141414,103.343434 145.292929,117.656566 147.383838,134.080808 C147.383838,134.353535 147.10101,135.30303 146.757576,135.090909 C136.111111,128.121212 125.848485,120.585859 115.515152,113.171717 L115.515152,113.141414 Z" id="Path" fill="url(#linearGradient-2)"></path>
                <path d="M153.89899,35.7272727 C152.333333,48.7979798 125.979798,73.4141414 118.626263,120.89899 L114.383838,117.868687 C121.454545,85.2727273 136.969697,64.2424242 146.414141,50.1313131 C150.373737,44.2020202 153.232323,39.5050505 153.89899,35.6969697 L153.89899,35.7272727 Z" id="Path" fill="url(#radialGradient-3)"></path>
                <path d="M110.979798,27.9191871 C106.6351,27.9151066 102.716126,30.5296853 101.051595,34.5428825 C99.3870632,38.5560796 100.305065,43.1768639 103.377232,46.2490307 C106.449399,49.3211975 111.070183,50.2391994 115.08338,48.5746678 C119.096577,46.9101362 121.711156,42.9911626 121.707075,38.6464646 C121.707075,32.7219555 116.904307,27.9191871 110.979798,27.9191871 L110.979798,27.9191871 Z M88.3535354,45.020202 C81.6363636,39.2626263 69.1616162,28.4949495 61.4343434,25.9393939 C70.5252525,27.3434343 82.0707071,35.2424242 90.010101,39.8080808 C95.8686869,21.3131313 96.0707071,20.6767677 101.858586,2.1010101 C102.868687,-1.05050505 108.292929,-1.59317004e-14 109.656566,2.87878788 C119.757576,24.0909091 119.575758,24.1717172 129.010101,48.5656566 L133.878788,48.989899 C127.131313,54.2020202 119.161616,58.3434343 112.161616,58.3434343 C104.626263,58.3434343 96.6969697,52.1515152 88.3535354,45.020202 L88.3535354,45.020202 Z" id="Shape" fill="url(#radialGradient-4)"></path>
                <path d="M110.979798,27.9191919 C106.448112,27.9366618 102.420174,30.8103735 100.929144,35.0897786 C99.4381137,39.3691837 100.808231,44.1236855 104.347907,46.9533791 C107.887584,49.7830726 112.827086,50.0726146 116.673125,47.6758543 C120.519165,45.2790941 122.435385,40.7172296 121.454545,36.2929293 C123.555556,41.5454545 125.62963,46.8249158 127.676768,52.1313131 L129.242424,52.2626263 C123.656566,55.8383838 117.616162,58.3232323 112.161616,58.3232323 C105.89899,58.3232323 99.3535354,54.040404 92.5353535,48.4949495 C97.1919192,33.6565657 101.555556,18.6868687 106.555556,3.95959596 C106.686869,3.57575758 107.474747,4.25252525 107.565657,4.49494949 C112.090909,13.8989899 116.20202,23.4242424 120.121212,33.040404 C118.168233,29.846021 114.693585,27.8982283 110.949495,27.8989899 L110.979798,27.9191919 Z" id="Path" fill="url(#linearGradient-5)"></path>
                <path d="M112.161616,58.3434343 C118.424242,57.969697 125.585859,53.7070707 131.353535,48.7676768 C143.959596,38.010101 150,24.0606061 125.777778,40.2929293 C125.575758,39.7575758 125.373737,39.2828283 125.181818,38.7474747 C160.212121,15.5151515 151.010101,35.7171717 133.848485,48.989899 C127.10101,54.2020202 119.131313,58.3434343 112.131313,58.3434343 L112.161616,58.3434343 Z" id="Path" fill="url(#radialGradient-6)"></path>
                <path d="M112.161616,58.3434343 C121.252525,56.4141414 126.191919,49.979798 125.808081,40.2929293 C126.747475,42.7171717 127.828283,45.4444444 129.010101,48.5656566 L131.383838,48.7676768 C125.585859,53.7070707 118.424242,57.969697 112.191919,58.3434343 L112.161616,58.3434343 Z" id="Path" fill="#090000" opacity="0.2"></path>
                <path d="M125.808081,40.2929293 C142.272727,29.2525253 144.757576,32.2121212 140.69697,38.5555556 C138.191919,39.1515152 134.030303,41.2121212 127.767677,45.3636364 C127.060606,43.5353535 126.414141,41.8484848 125.808081,40.3131313 L125.808081,40.2929293 Z" id="Path" fill="url(#radialGradient-7)"></path>
                <path d="M71.8080808,47.0707071 C85.2929293,63.5959596 100.020202,90.9292929 102.787879,118.686869 C103.351577,124.165372 103.395544,129.684929 102.919192,135.171717 C101.855701,130.581969 100.413037,126.088424 98.6060606,121.737374 C85.7373737,130.939394 82.4444444,133.141414 64.2626263,144.969697 C60.989899,147.10101 55.9191919,144.111111 57.1919192,140.333333 C65.3838384,115.969697 65.3232323,115.949495 74.1414141,89.1515152 C50.8686869,72.2424242 50.8686869,72.2424242 29.0505051,56.1717172 C25.6868687,53.7070707 27.7373737,47.9292929 31.959596,47.8080808 C52.959596,47.2020202 57.8484848,47.0808081 71.8080808,47.0707071 Z" id="Path" fill="url(#radialGradient-8)"></path>
                <path d="M74.7979798,50.8989899 C86.8383838,66.8787879 99.040404,90.7373737 102.383838,115.262626 C89.5656566,124.353535 76.8484848,133.070707 63.5555556,141.727273 C63.1919192,141.959596 61.989899,141.777778 62.1212121,141.383838 C67.8080808,123.393939 74.020202,105.555556 79.9191919,87.6262626 C64.1212121,76.1784512 48.3535354,64.6835017 32.6161616,53.1414141 C32.2020202,52.8282828 32.7070707,51.5959596 33.3939394,51.5757576 C47.2727273,51.1717172 61.010101,50.969697 74.8080808,50.8989899 L74.7979798,50.8989899 Z" id="Path" fill="url(#linearGradient-9)"></path>
                <path d="M49.8585859,47.3131313 C42.979798,23.5353535 56.6262626,28.4242424 71.8383838,47.0707071 C85.3232323,63.5959596 100.050505,90.9292929 102.818182,118.686869 C98.4646465,91.0606061 81.0606061,62.1212121 67.4646465,47.0808081 C56.0909091,34.4949495 47.4040404,31.5959596 51.3030303,47.2828283 L49.8787879,47.2828283 L49.8585859,47.3131313 Z" id="Path" fill="url(#radialGradient-10)"></path>
                <path d="M51.2525253,47.2828283 C57.0707071,47.1515152 61.5252525,47.1010101 67.4141414,47.0808081 C81.010101,62.1313131 98.4141414,91.0606061 102.767677,118.686869 C93.8282828,85.4646465 76.7575758,61.5454545 51.2525253,47.2828283 L51.2525253,47.2828283 Z" id="Path" fill="#090000" opacity="0.2"></path>
                <path d="M57.9393939,38.4444444 C57.010101,39.8787879 56.9292929,42.6969697 57.9393939,47.1616162 C55.8080808,47.1616162 53.6464646,47.2323232 51.2424242,47.2828283 C48.5555556,36.4444444 51.8787879,34.4848485 57.9494949,38.4444444 L57.9393939,38.4444444 Z" id="Path" fill="url(#radialGradient-11)"></path>
            </g>
        </g>
    </g>
</svg>