<?xml version="1.0" encoding="UTF-8"?>
<svg width="200px" height="172px" viewBox="0 0 200 172" version="1.1" xmlns="http://www.w3.org/2000/svg" xmlns:xlink="http://www.w3.org/1999/xlink">
    <!-- Generator: Sketch 55.2 (78181) - https://sketchapp.com -->
    <title>Logo0</title>
    <desc>Created with Sketch.</desc>
    <defs>
        <radialGradient cx="-42.0100322%" cy="2.06160853%" fx="-42.0100322%" fy="2.06160853%" r="199.05052%" gradientTransform="translate(-0.420100,0.020616),scale(1.000000,0.669064),translate(0.420100,-0.020616)" id="radialGradient-1">
            <stop stop-color="#FFFFFF" offset="0%"></stop>
            <stop stop-color="#E5E432" offset="28%"></stop>
            <stop stop-color="#569344" offset="80%"></stop>
        </radialGradient>
        <radialGradient cx="88.4099431%" cy="-123.11806%" fx="88.4099431%" fy="-123.11806%" r="306.152626%" gradientTransform="translate(0.884099,-1.231181),scale(0.907966,1.000000),translate(-0.884099,1.231181)" id="radialGradient-2">
            <stop stop-color="#FFFFFF" offset="0%"></stop>
            <stop stop-color="#E5E432" offset="28%"></stop>
            <stop stop-color="#569344" offset="80%"></stop>
        </radialGradient>
        <linearGradient x1="119.262506%" y1="122.668574%" x2="30.7374936%" y2="33.7784007%" id="linearGradient-3">
            <stop stop-color="#FFFFFF" offset="0%"></stop>
            <stop stop-color="#FFFFFF" stop-opacity="0" offset="100%"></stop>
        </linearGradient>
        <radialGradient cx="49.4213529%" cy="42.9947014%" fx="49.4213529%" fy="42.9947014%" r="95.7714214%" gradientTransform="translate(0.494214,0.429947),scale(1.000000,0.499558),translate(-0.494214,-0.429947)" id="radialGradient-4">
            <stop stop-color="#FFFFFF" offset="0%"></stop>
            <stop stop-color="#E5E432" offset="28%"></stop>
            <stop stop-color="#569344" offset="80%"></stop>
        </radialGradient>
        <radialGradient cx="128.154645%" cy="14.0477047%" fx="128.154645%" fy="14.0477047%" r="183.193127%" gradientTransform="translate(1.281546,0.140477),scale(1.000000,0.669663),rotate(180.000000),translate(-1.281546,-0.140477)" id="radialGradient-5">
            <stop stop-color="#FFFFFF" offset="0%"></stop>
            <stop stop-color="#E7B539" offset="50%"></stop>
            <stop stop-color="#AB2027" offset="100%"></stop>
        </radialGradient>
        <radialGradient cx="2330.49081%" cy="-123.11806%" fx="2330.49081%" fy="-123.11806%" r="306.152626%" gradientTransform="translate(23.304908,-1.231181),scale(0.907779,1.000000),translate(-23.304908,1.231181)" id="radialGradient-6">
            <stop stop-color="#FFFFFF" offset="0%"></stop>
            <stop stop-color="#E7B539" offset="50%"></stop>
            <stop stop-color="#AB2027" offset="100%"></stop>
        </radialGradient>
        <linearGradient x1="49.9881376%" y1="253.028571%" x2="49.9881376%" y2="20.8571429%" id="linearGradient-7">
            <stop stop-color="#FFFFFF" offset="0%"></stop>
            <stop stop-color="#FFFFFF" stop-opacity="0" offset="100%"></stop>
        </linearGradient>
        <radialGradient cx="427.038089%" cy="42.9947014%" fx="427.038089%" fy="42.9947014%" r="95.7479936%" gradientTransform="translate(4.270381,0.429947),scale(1.000000,0.499681),translate(-4.270381,-0.429947)" id="radialGradient-8">
            <stop stop-color="#FFFFFF" offset="0%"></stop>
            <stop stop-color="#E7B539" offset="50%"></stop>
            <stop stop-color="#AB2027" offset="100%"></stop>
        </radialGradient>
        <radialGradient cx="50.2266172%" cy="142.539794%" fx="50.2266172%" fy="142.539794%" r="190.222144%" gradientTransform="translate(0.502266,1.425398),scale(0.588896,1.000000),translate(-0.502266,-1.425398)" id="radialGradient-9">
            <stop stop-color="#FFFFFF" offset="0%"></stop>
            <stop stop-color="#6AAFE4" offset="50%"></stop>
            <stop stop-color="#35368C" offset="100%"></stop>
        </radialGradient>
        <radialGradient cx="50%" cy="49.9988886%" fx="50%" fy="49.9988886%" r="73.5051918%" gradientTransform="translate(0.500000,0.499989),scale(0.984321,1.000000),translate(-0.500000,-0.499989)" id="radialGradient-10">
            <stop stop-color="#FFFFFF" offset="0%"></stop>
            <stop stop-color="#6AAFE4" offset="50%"></stop>
            <stop stop-color="#35368C" offset="100%"></stop>
        </radialGradient>
        <radialGradient cx="50%" cy="49.9741602%" fx="50%" fy="49.9741602%" r="108.8%" gradientTransform="translate(0.500000,0.499742),scale(1.000000,0.968992),translate(-0.500000,-0.499742)" id="radialGradient-11">
            <stop stop-color="#FFFFFF" offset="0%"></stop>
            <stop stop-color="#FFFFFF" offset="33%"></stop>
            <stop stop-color="#FFFFFF" stop-opacity="0" offset="66%"></stop>
            <stop stop-color="#FFFFFF" stop-opacity="0" offset="100%"></stop>
        </radialGradient>
        <radialGradient cx="50%" cy="49.9988886%" fx="50%" fy="49.9988886%" r="75.3260778%" gradientTransform="translate(0.500000,0.499989),scale(0.984321,1.000000),translate(-0.500000,-0.499989)" id="radialGradient-12">
            <stop stop-color="#FFFFFF" offset="0%"></stop>
            <stop stop-color="#6AAFE4" offset="50%"></stop>
            <stop stop-color="#35368C" offset="100%"></stop>
        </radialGradient>
        <radialGradient cx="49.9866631%" cy="50%" fx="49.9866631%" fy="50%" r="100.853561%" gradientTransform="translate(0.499867,0.500000),scale(1.000000,0.968734),translate(-0.499867,-0.500000)" id="radialGradient-13">
            <stop stop-color="#FFFFFF" offset="0%"></stop>
            <stop stop-color="#FFFFFF" offset="33%"></stop>
            <stop stop-color="#FFFFFF" stop-opacity="0" offset="66%"></stop>
            <stop stop-color="#FFFFFF" stop-opacity="0" offset="100%"></stop>
        </radialGradient>
        <linearGradient x1="120.158888%" y1="111.592438%" x2="32.000993%" y2="35.2682415%" id="linearGradient-14">
            <stop stop-color="#FFFFFF" offset="0%"></stop>
            <stop stop-color="#FFFFFF" stop-opacity="0" offset="100%"></stop>
        </linearGradient>
    </defs>
    <g id="Page-1" stroke="none" stroke-width="1" fill="none" fill-rule="evenodd">
        <g id="Desktop-Full-HD" transform="translate(-752.000000, -635.000000)">
            <g id="Logo0" transform="translate(752.000000, 635.000000)">
                <path d="M52.3365385,159.057692 L52.3365385,160.923077 L53.8653846,160.923077 L53.8653846,161.576923 L52.3557692,161.576923 L52.3557692,166.432692 C52.335054,166.749525 52.4122605,167.065065 52.5769231,167.336538 C52.7583885,167.547655 53.0303375,167.658582 53.3076923,167.634615 C53.5266431,167.623303 53.7448749,167.600838 53.9615385,167.567308 L53.9615385,168.221154 C53.6831924,168.299087 53.3947138,168.334742 53.1057692,168.326923 C52.6507399,168.371972 52.2022817,168.192589 51.9038462,167.846154 C51.6215648,167.431092 51.4861814,166.933558 51.5192308,166.432692 L51.5192308,161.576923 L50.1826923,161.576923 L50.1826923,160.923077 L51.5192308,160.923077 L51.5192308,159.057692 L52.3365385,159.057692 Z" id="Path" fill="#4F4F4F" fill-rule="nonzero"></path>
                <path d="M60.1057692,168.192308 C60.0090375,167.864281 59.957283,167.524642 59.9519231,167.182692 C59.6700516,167.55105 59.2995886,167.842128 58.875,168.028846 C58.4374504,168.228376 57.9616554,168.330097 57.4807692,168.326923 C56.8642955,168.353523 56.2603148,168.14762 55.7884615,167.75 C55.363277,167.376641 55.1241005,166.834976 55.1346154,166.269231 C55.1122512,165.591611 55.4483552,164.952283 56.0192308,164.586538 C56.7611623,164.134789 57.6232434,163.920108 58.4903846,163.971154 L59.9423077,163.971154 L59.9423077,163.144231 C59.9712701,162.683169 59.7953503,162.232814 59.4615385,161.913462 C59.0687219,161.588617 58.5662457,161.426861 58.0576923,161.461538 C57.5601116,161.442124 57.0710658,161.594951 56.6730769,161.894231 C56.3316708,162.13116 56.1243395,162.517225 56.1153846,162.932692 L55.3076923,162.932692 C55.3195453,162.331769 55.6202208,161.773372 56.1153846,161.432692 C56.6863987,160.999084 57.3891512,160.775018 58.1057692,160.798077 C58.7995741,160.755855 59.4844972,160.971605 60.0288462,161.403846 C60.5107927,161.836136 60.7780729,162.458617 60.7596154,163.105769 L60.7596154,166.519231 C60.7302153,167.054246 60.8053326,167.589865 60.9807692,168.096154 L60.9807692,168.173077 L60.1057692,168.192308 Z M57.5769231,167.615385 C58.0842705,167.625161 58.584117,167.491869 59.0192308,167.230769 C59.4437781,166.99348 59.7808546,166.626067 59.9807692,166.182692 L59.9807692,164.596154 L58.5480769,164.596154 C57.878214,164.559836 57.2116852,164.713137 56.625,165.038462 C56.2485552,165.255123 55.9987059,165.639028 55.9530388,166.070963 C55.9073718,166.502897 56.0714162,166.930562 56.3942308,167.221154 C56.7258047,167.494913 57.1474087,167.635447 57.5769231,167.615385 L57.5769231,167.615385 Z" id="Shape" fill="#4F4F4F" fill-rule="nonzero"></path>
                <path d="M62.5673077,164.490385 C62.514,163.53044 62.7812064,162.579997 63.3269231,161.788462 C63.8066764,161.146617 64.5747152,160.786036 65.375,160.826923 C66.2864075,160.784663 67.1499135,161.236625 67.6346154,162.009615 L67.6346154,160.961538 L68.3942308,160.961538 L68.3942308,168.086538 C68.4398769,168.902695 68.1557915,169.702985 67.6057692,170.307692 C67.0433302,170.873017 66.2676573,171.173503 65.4711538,171.134615 C64.9709702,171.134248 64.4775403,171.019114 64.0288462,170.798077 C63.5873848,170.580216 63.2122387,170.248229 62.9423077,169.836538 L63.3942308,169.355769 C63.8652934,170.007966 64.6185798,170.397105 65.4230769,170.403846 C66.007228,170.441704 66.579059,170.224198 66.9903846,169.807692 C67.3945613,169.358102 67.6052962,168.767353 67.5769231,168.163462 L67.5769231,167.201923 C67.0564602,167.916246 66.2093936,168.318059 65.3269231,168.269231 C64.5248619,168.290858 63.7644926,167.912476 63.2980769,167.259615 C62.7475169,166.462722 62.4769681,165.505655 62.5288462,164.538462 L62.5673077,164.490385 Z M63.3846154,164.634615 C63.3422899,165.405188 63.5369098,166.170245 63.9423077,166.826923 C64.2865108,167.352867 64.8815448,167.65951 65.5096154,167.634615 C66.4250993,167.685139 67.271407,167.147984 67.6153846,166.298077 L67.6153846,162.913462 C67.4573909,162.488386 67.1761657,162.120115 66.8076923,161.855769 C66.4300752,161.60331 65.9828393,161.475528 65.5288462,161.490385 C64.8998119,161.463887 64.3010459,161.761455 63.9423077,162.278846 C63.5308191,162.978925 63.3367022,163.785514 63.3846154,164.596154 L63.3846154,164.634615 Z" id="Shape" fill="#4F4F4F" fill-rule="nonzero"></path>
                <polygon id="Path" fill="#4F4F4F" fill-rule="nonzero" points="71.4326923 168.192308 70.625 168.192308 70.625 157.865385 71.4326923 157.865385"></polygon>
                <path d="M73.5673077,158.826923 C73.5630136,158.682927 73.6187367,158.543619 73.7211538,158.442308 C73.8240537,158.336309 73.9678871,158.280179 74.1153846,158.288462 C74.4127687,158.288462 74.6538462,158.529539 74.6538462,158.826923 C74.6538462,159.124307 74.4127687,159.365385 74.1153846,159.365385 C73.9678871,159.373667 73.8240537,159.317537 73.7211538,159.211538 C73.6187367,159.110227 73.5630136,158.970919 73.5673077,158.826923 L73.5673077,158.826923 Z M74.5288462,168.201923 L73.7211538,168.201923 L73.7211538,160.932692 L74.5288462,160.932692 L74.5288462,168.201923 Z" id="Shape" fill="#4F4F4F" fill-rule="nonzero"></path>
                <path d="M77.4711538,160.923077 L77.4711538,162.163462 C77.7247933,161.741527 78.0780654,161.388255 78.5,161.134615 C78.9009632,160.89235 79.3585542,160.759715 79.8269231,160.75 C80.4753194,160.698996 81.1128901,160.938525 81.5673077,161.403846 C81.9911485,161.973845 82.1989918,162.675742 82.1538462,163.384615 L82.1538462,168.192308 L81.3461538,168.192308 L81.3461538,163.384615 C81.3871382,162.866696 81.2403763,162.351322 80.9326923,161.932692 C80.5923171,161.589288 80.1160143,161.416408 79.6346154,161.461538 C79.1548812,161.45557 78.6884144,161.619004 78.3173077,161.923077 C77.919557,162.254375 77.6230087,162.690868 77.4615385,163.182692 L77.4615385,168.163462 L76.6634615,168.163462 L76.6634615,160.894231 L77.4711538,160.923077 Z" id="Path" fill="#4F4F4F" fill-rule="nonzero"></path>
                <path d="M87.0865385,168.326923 C85.8674656,168.370717 84.7369627,167.692415 84.2019231,166.596154 C83.9189714,166.029369 83.7771278,165.402618 83.7884615,164.769231 L83.7884615,164.480769 C83.7731194,163.817191 83.9113304,163.159043 84.1923077,162.557692 C84.4400611,162.021241 84.8331113,161.564903 85.3269231,161.240385 C85.788061,160.923952 86.3349761,160.756187 86.8942308,160.759615 C87.6975459,160.722439 88.4735803,161.055531 89,161.663462 C89.5519602,162.364808 89.8289101,163.243526 89.7788462,164.134615 L89.7788462,164.596154 L84.6346154,164.596154 L84.6346154,164.75 C84.6057504,165.5008 84.8596669,166.235099 85.3461538,166.807692 C85.7822976,167.339762 86.4370842,167.644149 87.125,167.634615 C87.5199191,167.644614 87.9117213,167.562302 88.2692308,167.394231 C88.6225076,167.218593 88.9290005,166.961534 89.1634615,166.644231 L89.6730769,167.028846 C89.0979827,167.884949 88.1166321,168.377449 87.0865385,168.326923 Z M86.9326923,161.471154 C86.3510713,161.460609 85.7934172,161.70261 85.4038462,162.134615 C84.9658026,162.633218 84.7024682,163.261169 84.6538462,163.923077 L89.0096154,163.923077 L89.0096154,163.836538 C89.0164587,163.216902 88.8054631,162.614543 88.4134615,162.134615 C88.0487216,161.696778 87.5022246,161.451919 86.9326923,161.471154 Z" id="Shape" fill="#4F4F4F" fill-rule="nonzero"></path>
                <path d="M94.4038462,164.490385 C94.3548824,163.530922 94.6217034,162.58185 95.1634615,161.788462 C95.6473661,161.146428 96.4182127,160.786219 97.2211538,160.826923 C98.1321087,160.786701 98.99465,161.238159 99.4807692,162.009615 L99.4807692,160.961538 L100.230769,160.961538 L100.230769,168.086538 C100.276415,168.902695 99.9923299,169.702985 99.4423077,170.307692 C98.88351,170.872542 98.1109208,171.173187 97.3173077,171.134615 C96.8140718,171.134017 96.3175676,171.018933 95.8653846,170.798077 C95.4239232,170.580216 95.0487772,170.248229 94.7788462,169.836538 L95.2307692,169.355769 C95.7018319,170.007966 96.4551183,170.397105 97.2596154,170.403846 C97.8464631,170.44071 98.4208469,170.223565 98.8365385,169.807692 C99.2328512,169.353455 99.4424203,168.765974 99.4230769,168.163462 L99.4230769,167.201923 C98.8995531,167.9178 98.0489108,168.319593 97.1634615,168.269231 C96.3621522,168.287472 95.6032794,167.909833 95.1346154,167.259615 C94.5840554,166.462722 94.3135065,165.505655 94.3653846,164.538462 L94.4038462,164.490385 Z M95.2211538,164.634615 C95.1788283,165.405188 95.3734483,166.170245 95.7788462,166.826923 C96.1274708,167.352949 96.7251795,167.659093 97.3557692,167.634615 C98.2712531,167.685139 99.1175608,167.147984 99.4615385,166.298077 L99.4615385,162.913462 C99.2999199,162.487704 99.0154482,162.119564 98.6442308,161.855769 C98.2671696,161.602112 97.8195386,161.474217 97.3653846,161.490385 C96.7393151,161.465403 96.1441176,161.763001 95.7884615,162.278846 C95.3702608,162.976835 95.169416,163.783562 95.2115385,164.596154 L95.2211538,164.634615 Z" id="Shape" fill="#4F4F4F" fill-rule="nonzero"></path>
                <path d="M101.942308,164.451923 C101.928344,163.788473 102.06649,163.130635 102.346154,162.528846 C102.601512,161.99402 103.001131,161.541118 103.5,161.221154 C104.005912,160.911154 104.589418,160.751107 105.182692,160.759615 C106.081243,160.727932 106.94636,161.102228 107.538462,161.778846 C108.165404,162.531911 108.487831,163.492333 108.442308,164.471154 L108.442308,164.644231 C108.456409,165.308735 108.314814,165.967319 108.028846,166.567308 C107.779462,167.100548 107.382346,167.551058 106.884615,167.865385 C106.378327,168.173493 105.794451,168.330306 105.201923,168.317308 C104.303373,168.348991 103.438255,167.974695 102.846154,167.298077 C102.2101,166.546348 101.8866,165.579291 101.942308,164.596154 L101.942308,164.451923 Z M102.75,164.673077 C102.717227,165.44447 102.955338,166.203025 103.423077,166.817308 C103.849799,167.362488 104.509861,167.672895 105.201923,167.653846 C105.887936,167.669834 106.540856,167.359429 106.961538,166.817308 C107.436286,166.180849 107.674302,165.398795 107.634615,164.605769 L107.634615,164.451923 C107.644184,163.92602 107.539191,163.404334 107.326923,162.923077 C107.148452,162.490686 106.847702,162.119761 106.461538,161.855769 C106.085908,161.597105 105.638688,161.462602 105.182692,161.471154 C104.49733,161.455835 103.846312,161.770612 103.432692,162.317308 C102.954522,162.952487 102.713069,163.734657 102.75,164.528846 L102.75,164.673077 Z" id="Shape" fill="#4F4F4F" fill-rule="nonzero"></path>
                <path d="M112.894231,168.326923 C112.305085,168.337028 111.725087,168.180361 111.221154,167.875 C110.718384,167.569519 110.314413,167.125485 110.057692,166.596154 C109.771414,166.030204 109.626262,165.403411 109.634615,164.769231 L109.634615,164.480769 C109.617604,163.81599 109.759343,163.156736 110.048077,162.557692 C110.295335,162.023831 110.684494,161.56815 111.173077,161.240385 C111.63772,160.923753 112.18774,160.756064 112.75,160.759615 C113.553315,160.722439 114.32935,161.055531 114.855769,161.663462 C115.400372,162.368203 115.673393,163.245284 115.625,164.134615 L115.625,164.596154 L110.432692,164.596154 L110.432692,164.75 C110.407548,165.500243 110.661014,166.233238 111.144231,166.807692 C111.582483,167.342428 112.241424,167.6471 112.932692,167.634615 C113.324545,167.644898 113.713292,167.562537 114.067308,167.394231 C114.425111,167.221474 114.735364,166.96403 114.971154,166.644231 L115.471154,167.028846 C114.905842,167.890921 113.923447,168.385784 112.894231,168.326923 Z M112.75,161.471154 C112.168379,161.460609 111.610725,161.70261 111.221154,162.134615 C110.783756,162.634542 110.517601,163.261186 110.461538,163.923077 L114.826923,163.923077 L114.826923,163.836538 C114.833766,163.216902 114.622771,162.614543 114.230769,162.134615 C113.865135,161.697959 113.319246,161.453372 112.75,161.471154 L112.75,161.471154 Z" id="Shape" fill="#4F4F4F" fill-rule="nonzero"></path>
                <path d="M121.548077,166.346154 C121.559465,165.965241 121.378871,165.604052 121.067308,165.384615 C120.632638,165.09455 120.140805,164.901096 119.625,164.817308 C119.108026,164.720532 118.60446,164.56236 118.125,164.346154 C117.805558,164.207619 117.529722,163.984956 117.326923,163.701923 C117.14247,163.416219 117.051718,163.0801 117.067308,162.740385 C117.061699,162.176914 117.330749,161.645987 117.788462,161.317308 C118.319035,160.927225 118.967109,160.730428 119.625,160.759615 C120.315148,160.734007 120.993431,160.944274 121.548077,161.355769 C122.02885,161.735075 122.300229,162.320681 122.278846,162.932692 L121.471154,162.932692 C121.476542,162.51263 121.279793,162.115555 120.942308,161.865385 C120.551922,161.573744 120.073505,161.424451 119.586538,161.442308 C119.135816,161.41779 118.68962,161.542861 118.317308,161.798077 C118.013411,162.002139 117.832692,162.345506 117.836538,162.711538 C117.815205,163.044558 117.96806,163.364827 118.240385,163.557692 C118.684589,163.832097 119.177579,164.018192 119.692308,164.105769 C120.240803,164.21646 120.773635,164.394071 121.278846,164.634615 C121.595693,164.791054 121.867152,165.026098 122.067308,165.317308 C122.518926,166.139295 122.311725,167.167173 121.576923,167.75 C121.011427,168.134552 120.337107,168.326734 119.653846,168.298077 C118.917936,168.332831 118.192151,168.115773 117.596154,167.682692 C117.094411,167.328017 116.79951,166.749004 116.807692,166.134615 L117.615385,166.134615 C117.630388,166.573495 117.851284,166.979658 118.211538,167.230769 C118.63927,167.509734 119.143685,167.647607 119.653846,167.625 C120.137322,167.648828 120.615749,167.517429 121.019231,167.25 C121.338648,167.059146 121.538188,166.718114 121.548077,166.346154 L121.548077,166.346154 Z" id="Path" fill="#4F4F4F" fill-rule="nonzero"></path>
                <path d="M128.317308,162.153846 C128.572859,161.754435 128.92293,161.424179 129.336538,161.192308 C129.744866,160.954259 130.210071,160.831312 130.682692,160.836538 C131.331089,160.785534 131.968659,161.025063 132.423077,161.490385 C132.847359,162.059763 133.052185,162.762999 133,163.471154 L133,168.278846 L132.201923,168.278846 L132.201923,163.471154 C132.238668,162.953665 132.092315,162.439728 131.788462,162.019231 C131.448086,161.675827 130.971784,161.502946 130.490385,161.548077 C130.007761,161.542306 129.538329,161.705587 129.163462,162.009615 C128.771517,162.344197 128.478849,162.779873 128.317308,163.269231 L128.317308,168.25 L127.519231,168.25 L127.519231,157.865385 L128.317308,157.865385 L128.317308,162.153846 Z" id="Path" fill="#4F4F4F" fill-rule="nonzero"></path>
                <path d="M137.894231,168.326923 C137.302025,168.337276 136.718872,168.180658 136.211538,167.875 C135.711169,167.566616 135.307914,167.123368 135.048077,166.596154 C134.765125,166.029369 134.623282,165.402618 134.634615,164.769231 L134.634615,164.480769 C134.619273,163.817191 134.757484,163.159043 135.038462,162.557692 C135.286215,162.021241 135.679265,161.564903 136.173077,161.240385 C136.634215,160.923952 137.18113,160.756187 137.740385,160.759615 C138.5437,160.722439 139.319734,161.055531 139.846154,161.663462 C140.398114,162.364808 140.675064,163.243526 140.625,164.134615 L140.625,164.596154 L135.432692,164.596154 L135.432692,164.75 C135.403827,165.5008 135.657744,166.235099 136.144231,166.807692 C136.580374,167.339762 137.235161,167.644149 137.923077,167.634615 C138.317996,167.644614 138.709798,167.562302 139.067308,167.394231 C139.420584,167.218593 139.727077,166.961534 139.961538,166.644231 L140.471154,167.028846 C139.897864,167.881929 138.92097,168.374021 137.894231,168.326923 Z M137.740385,161.471154 C137.159265,161.463126 136.602605,161.704696 136.211538,162.134615 C135.773495,162.633218 135.510161,163.261169 135.461538,163.923077 L139.826923,163.923077 L139.826923,163.836538 C139.82625,163.216531 139.612365,162.615617 139.221154,162.134615 C138.856414,161.696778 138.309917,161.451919 137.740385,161.471154 L137.740385,161.471154 Z" id="Shape" fill="#4F4F4F" fill-rule="nonzero"></path>
                <path d="M145.548077,161.605769 C145.370322,161.574172 145.190157,161.558085 145.009615,161.557692 C144.546268,161.53993 144.092105,161.690179 143.730769,161.980769 C143.358454,162.29708 143.098681,162.725537 142.990385,163.201923 L142.990385,168.192308 L142.192308,168.192308 L142.192308,160.923077 L142.971154,160.923077 L142.971154,162.076923 C143.320997,161.264618 144.135537,160.752184 145.019231,160.788462 C145.19958,160.780769 145.379586,160.810224 145.548077,160.875 L145.548077,161.605769 Z" id="Path" fill="#4F4F4F" fill-rule="nonzero"></path>
                <path d="M149.644231,168.326923 C148.425158,168.370717 147.294655,167.692415 146.759615,166.596154 C146.473337,166.030204 146.328185,165.403411 146.336538,164.769231 L146.336538,164.480769 C146.319527,163.81599 146.461266,163.156736 146.75,162.557692 C146.997258,162.023831 147.386417,161.56815 147.875,161.240385 C148.339643,160.923753 148.889663,160.756064 149.451923,160.759615 C150.255238,160.722439 151.031273,161.055531 151.557692,161.663462 C152.102295,162.368203 152.375316,163.245284 152.326923,164.134615 L152.326923,164.596154 L147.144231,164.596154 L147.144231,164.75 C147.116407,165.498994 147.366398,166.231844 147.846154,166.807692 C148.286176,167.340137 148.943947,167.644268 149.634615,167.634615 C150.029438,167.643561 150.421002,167.5613 150.778846,167.394231 C151.132123,167.218593 151.438616,166.961534 151.673077,166.644231 L152.173077,167.028846 C151.616623,167.875661 150.656661,168.368417 149.644231,168.326923 Z M149.490385,161.471154 C148.908764,161.460609 148.351109,161.70261 147.961538,162.134615 C147.524141,162.634542 147.257986,163.261186 147.201923,163.923077 L151.567308,163.923077 L151.567308,163.836538 C151.574151,163.216902 151.363155,162.614543 150.971154,162.134615 C150.60552,161.697959 150.059631,161.453372 149.490385,161.471154 L149.490385,161.471154 Z" id="Shape" fill="#4F4F4F" fill-rule="nonzero"></path>
                <polygon id="Path" fill="#4C4C4C" fill-rule="nonzero" points="126.615385 153.846154 123.5 153.846154 123.5 142.980769 111.653846 142.980769 111.653846 153.846154 108.557692 153.846154 108.557692 130.346154 111.653846 130.346154 111.653846 140.451923 123.5 140.451923 123.5 130.346154 126.615385 130.346154"></polygon>
                <path d="M138.894231,154.173077 C136.726557,154.249116 134.628859,153.399548 133.125,151.836538 C131.586317,150.133295 130.787334,147.888534 130.903846,145.596154 L130.903846,145.048077 C130.864699,143.449909 131.193694,141.864153 131.865385,140.413462 C132.47345,139.106926 133.436306,137.997476 134.644231,137.211538 C135.78463,136.456449 137.122663,136.055039 138.490385,136.057692 C140.509562,135.946714 142.466193,136.777661 143.788462,138.307692 C145.070513,139.794872 145.711538,141.935897 145.711538,144.730769 L145.711538,145.971154 L133.884615,145.971154 C133.859515,147.50016 134.396715,148.985158 135.394231,150.144231 C136.324483,151.189186 137.668818,151.769854 139.067308,151.730769 C140.000282,151.762543 140.924318,151.539844 141.740385,151.086538 C142.487011,150.647058 143.140333,150.065601 143.663462,149.375 L145.490385,150.798077 C144.063001,153.03228 141.541256,154.32256 138.894231,154.173077 L138.894231,154.173077 Z M138.480769,138.509615 C137.32803,138.48939 136.223142,138.969929 135.451923,139.826923 C134.563806,140.863629 134.031351,142.157696 133.932692,143.519231 L142.682692,143.519231 L142.682692,143.288462 C142.680621,142.010228 142.246934,140.770153 141.451923,139.769231 C140.702092,138.922891 139.610408,138.460073 138.480769,138.509615 L138.480769,138.509615 Z" id="Shape" fill="#4C4C4C" fill-rule="nonzero"></path>
                <path d="M159.942308,153.846154 C159.708548,153.259101 159.565875,152.639773 159.519231,152.009615 C158.245155,153.404774 156.437361,154.191531 154.548077,154.173077 C153.004357,154.234239 151.494106,153.712516 150.317308,152.711538 C149.235725,151.786171 148.628296,150.422986 148.663462,149 C148.591509,147.330625 149.369569,145.738316 150.730769,144.769231 C152.46822,143.662697 154.511234,143.134273 156.567308,143.259615 L159.451923,143.259615 L159.451923,141.884615 C159.490765,140.957043 159.142496,140.055026 158.490385,139.394231 C157.736123,138.717555 156.742216,138.371245 155.730769,138.432692 C154.771992,138.399143 153.828959,138.683067 153.048077,139.240385 C152.39538,139.665945 151.992939,140.38459 151.971154,141.163462 L149.057692,141.163462 C149.086194,140.239564 149.424897,139.352162 150.019231,138.644231 C150.680713,137.798328 151.548088,137.136209 152.538462,136.721154 C153.63843,136.23955 154.828132,135.997021 156.028846,136.009615 C157.738076,135.91142 159.42319,136.449149 160.759615,137.519231 C161.924413,138.582126 162.572969,140.096591 162.538462,141.673077 L162.538462,149.711538 C162.482013,151.021977 162.691342,152.330286 163.153846,153.557692 L163.153846,153.817308 L159.942308,153.846154 Z M154.990385,151.567308 C155.926257,151.565943 156.84513,151.317151 157.653846,150.846154 C158.442417,150.406563 159.076828,149.735229 159.471154,148.923077 L159.471154,145.365385 L157.134615,145.365385 C153.467949,145.365385 151.637821,146.435897 151.644231,148.576923 C151.608824,149.417001 151.963764,150.226264 152.605769,150.769231 C153.277422,151.31588 154.124992,151.599543 154.990385,151.567308 L154.990385,151.567308 Z" id="Shape" fill="#4C4C4C" fill-rule="nonzero"></path>
                <polygon id="Path" fill="#4C4C4C" fill-rule="nonzero" points="170.384615 153.846154 167.394231 153.846154 167.394231 129.019231 170.384615 129.019231"></polygon>
                <path d="M179.211538,132.153846 L179.211538,136.384615 L182.471154,136.384615 L182.471154,138.692308 L179.211538,138.692308 L179.211538,149.538462 C179.17095,150.09514 179.32379,150.648762 179.644231,151.105769 C180.0358,151.497871 180.583477,151.692208 181.134615,151.634615 C181.610814,151.615625 182.084114,151.55123 182.548077,151.442308 L182.548077,153.846154 C181.803025,154.055636 181.03352,154.165566 180.259615,154.173077 C179.120627,154.253851 178.007608,153.807226 177.240385,152.961538 C176.50519,151.970271 176.14417,150.750976 176.221154,149.519231 L176.221154,138.692308 L173.096154,138.692308 L173.096154,136.384615 L176.269231,136.384615 L176.269231,132.153846 L179.211538,132.153846 Z" id="Path" fill="#4C4C4C" fill-rule="nonzero"></path>
                <path d="M188.942308,138.5 C190.180094,136.914789 192.095138,136.008977 194.105769,136.057692 C197.798077,136.057692 199.660256,138.141026 199.692308,142.307692 L199.692308,153.846154 L196.701923,153.846154 L196.701923,142.307692 C196.774956,141.303945 196.469675,140.309208 195.846154,139.519231 C195.130298,138.860798 194.171036,138.532905 193.201923,138.615385 C192.292929,138.598354 191.401571,138.867443 190.653846,139.384615 C189.921171,139.909558 189.332546,140.610617 188.942308,141.423077 L188.942308,153.865385 L185.961538,153.865385 L185.961538,129.019231 L188.942308,129.019231 L188.942308,138.5 Z" id="Path" fill="#4C4C4C" fill-rule="nonzero"></path>
                <polygon id="Path" fill="#4C4C4C" fill-rule="nonzero" points="18.0576923 153.846154 14.9423077 153.846154 14.9423077 142.980769 3.09615385 142.980769 3.09615385 153.846154 0.0192307692 153.846154 0.0192307692 130.346154 3.11538462 130.346154 3.11538462 140.451923 14.9615385 140.451923 14.9615385 130.346154 18.0769231 130.346154"></polygon>
                <path d="M33.875,152.096154 C32.5724715,153.52565 30.6892021,154.283205 28.7596154,154.153846 C27.1707456,154.259039 25.6150901,153.665572 24.5,152.528846 C23.4344441,151.162055 22.9106119,149.450185 23.0288462,147.721154 L23.0288462,136.384615 L25.9807692,136.384615 L25.9807692,147.663462 C25.9807692,150.310897 27.0576923,151.634615 29.2115385,151.634615 C31.4935897,151.634615 33.0096154,150.785256 33.7596154,149.086538 L33.7596154,136.384615 L36.75,136.384615 L36.75,153.846154 L33.8653846,153.846154 L33.875,152.096154 Z" id="Path" fill="#4C4C4C" fill-rule="nonzero"></path>
                <path d="M44.125,136.384615 L44.2019231,138.307692 C45.4916751,136.79972 47.4019806,135.966841 49.3846154,136.048077 C51.8269231,136.048077 53.4903846,137.009615 54.3653846,138.855769 C55.6254771,137.03693 57.7210444,135.980099 59.9326923,136.048077 C63.7788462,136.048077 65.7275641,138.076923 65.7788462,142.134615 L65.7788462,153.836538 L62.7980769,153.836538 L62.7980769,142.298077 C62.8741183,141.288077 62.5687715,140.286265 61.9423077,139.490385 C61.1536577,138.787262 60.1104861,138.439538 59.0576923,138.528846 C58.0487521,138.484983 57.061301,138.829043 56.2980769,139.490385 C55.546904,140.186013 55.0895054,141.142079 55.0192308,142.163462 L55.0192308,153.75 L52.0192308,153.75 L52.0192308,142.307692 C52.0192308,139.74359 50.775641,138.461538 48.2884615,138.461538 C46.5472895,138.330852 44.9217263,139.341968 44.2692308,140.961538 L44.2692308,153.711538 L41.2884615,153.711538 L41.2884615,136.384615 L44.125,136.384615 Z" id="Path" fill="#4C4C4C" fill-rule="nonzero"></path>
                <path d="M81.0673077,153.846154 C80.8335479,153.259101 80.6908753,152.639773 80.6442308,152.009615 C79.3687076,153.402748 77.5618651,154.189091 75.6730769,154.173077 C74.1266412,154.232896 72.6138578,153.711483 71.4326923,152.711538 C70.3599928,151.779567 69.7545301,150.420797 69.7788462,149 C69.7054695,147.328068 70.4881316,145.733756 71.8557692,144.769231 C73.5932197,143.662697 75.6362337,143.134273 77.6923077,143.259615 L80.5769231,143.259615 L80.5769231,141.884615 C80.6111494,140.957809 80.2635628,140.05756 79.6153846,139.394231 C78.8611234,138.717555 77.8672161,138.371245 76.8557692,138.432692 C75.8969919,138.399143 74.9539589,138.683067 74.1730769,139.240385 C73.5179523,139.664917 73.1121058,140.383229 73.0865385,141.163462 L70.0865385,141.163462 C70.1120299,140.238963 70.4510983,139.350604 71.0480769,138.644231 C71.7074051,137.796152 72.5754032,137.133558 73.5673077,136.721154 C74.6672764,136.23955 75.8569778,135.997021 77.0576923,136.009615 C78.7666897,135.913252 80.4511637,136.450777 81.7884615,137.519231 C82.9507584,138.583122 83.5959209,140.097851 83.5576923,141.673077 L83.5576923,149.711538 C83.5062044,151.021685 83.7153772,152.329016 84.1730769,153.557692 L84.1730769,153.817308 L81.0673077,153.846154 Z M76.1057692,151.567308 C77.0420101,151.568713 77.9615946,151.319728 78.7692308,150.846154 C79.5602205,150.406631 80.1977457,149.735552 80.5961538,148.923077 L80.5961538,145.365385 L78.2596154,145.365385 C74.5929487,145.365385 72.7628205,146.435897 72.7692308,148.576923 C72.7323492,149.417277 73.0875618,150.227162 73.7307692,150.769231 C74.4007507,151.312121 75.243903,151.595448 76.1057692,151.567308 L76.1057692,151.567308 Z" id="Shape" fill="#4C4C4C" fill-rule="nonzero"></path>
                <path d="M91.0865385,136.384615 L91.1826923,138.576923 C92.4215574,136.947135 94.3668187,136.010263 96.4134615,136.057692 C100.105769,136.057692 101.967949,138.141026 102,142.307692 L102,153.846154 L99.0576923,153.846154 L99.0576923,142.307692 C99.132806,141.302149 98.8235224,140.305569 98.1923077,139.519231 C97.4806546,138.860237 96.5240142,138.532046 95.5576923,138.615385 C94.648698,138.598354 93.7573407,138.867443 93.0096154,139.384615 C92.2743499,139.906755 91.6851061,140.608551 91.2980769,141.423077 L91.2980769,153.865385 L88.3076923,153.865385 L88.3076923,136.384615 L91.0865385,136.384615 Z" id="Path" fill="#4C4C4C" fill-rule="nonzero"></path>
                <path d="M150.884615,36.2019231 L134.451923,36.2019231 C121.173077,53.4038462 107.115385,81.2692308 104.826923,116.423077 L114.730769,116.423077 C118.932244,116.412507 122.335584,113.009167 122.346154,108.807692 L122.346154,80.2211538 L150.884615,80.2211538 C155.08609,80.210584 158.48943,76.8072441 158.5,72.6057692 L158.5,43.8173077 C158.48943,39.6158328 155.08609,36.2124929 150.884615,36.2019231 Z" id="Path" fill="url(#radialGradient-1)"></path>
                <path d="M144.961538,30.6634615 C144.179487,31.9455128 143.291667,33.3108974 142.298077,34.7596154 L148.096154,34.7596154 C154.701923,24.9519231 155.346154,20.9903846 144.961538,30.6634615 Z" id="Path" fill="url(#radialGradient-2)"></path>
                <path d="M150.884615,37.7307692 L135.211538,37.7307692 C128.754654,46.2534576 123.311024,55.4982714 118.990385,65.2788462 C133.089092,60.0915497 145.835249,51.7891278 156.278846,40.9903846 C155.22063,38.9911238 153.146653,37.7378647 150.884615,37.7307692 Z" id="Path" fill="url(#linearGradient-3)"></path>
                <path d="M105.028846,116.423077 C110.875,81.1923077 128,45.3846154 150.884615,36.2019231 L138.134615,36.2019231 C125.019231,51.7788462 108.403846,80.4326923 105.028846,116.423077 Z" id="Path" fill="#090000" opacity="0.3"></path>
                <path d="M104.442308,126.576923 C106.086538,48.375 172.932692,0.0673076923 149.634615,34.7596154 L151.663462,34.7596154 C183.528846,-11.3653846 104.442308,36.3461538 104.442308,126.576923 Z" id="Path" fill="url(#radialGradient-4)"></path>
                <path d="M49.6923077,36.2019231 L66.125,36.2019231 C79.3846154,53.4038462 93.4711538,81.2692308 95.7980769,116.423077 L85.8942308,116.423077 C81.6927559,116.412507 78.289416,113.009167 78.2788462,108.807692 L78.2788462,80.2211538 L49.6923077,80.2211538 C45.4908328,80.210584 42.0874929,76.8072441 42.0769231,72.6057692 L42.0769231,43.8173077 C42.1186025,39.6288326 45.5038326,36.2436025 49.6923077,36.2019231 L49.6923077,36.2019231 Z" id="Path" fill="url(#radialGradient-5)"></path>
                <path d="M55.6153846,30.6634615 C56.3910256,31.9455128 57.2788462,33.3108974 58.2788462,34.7596154 L52.5096154,34.7596154 C45.875,24.9519231 45.2115385,20.9903846 55.6153846,30.6634615 Z" id="Path" fill="url(#radialGradient-6)"></path>
                <path d="M49.6923077,37.7307692 C46.3351879,37.7413263 43.6163263,40.4601879 43.6057692,43.8173077 L43.6057692,62.5384615 C56.3467121,68.2864334 70.1571796,71.2811587 84.1346154,71.3269231 C79.4611966,59.2985293 73.1483048,47.9735056 65.375,37.6730769 L49.6923077,37.7307692 Z" id="Path" fill="url(#linearGradient-7)"></path>
                <path d="M95.5576923,116.423077 C89.7019231,81.1923077 72.5769231,45.3846154 49.6923077,36.2019231 L62.4423077,36.2019231 C75.5288462,51.7788462 92.1730769,80.4326923 95.5576923,116.423077 Z" id="Path" fill="#090000" opacity="0.3"></path>
                <path d="M96.1730769,126.576923 C94.5288462,48.375 27.6923077,0.0673076923 50.9807692,34.7596154 L48.9519231,34.7596154 C17.0480769,-11.3653846 96.1730769,36.3461538 96.1730769,126.576923 Z" id="Path" fill="url(#radialGradient-8)"></path>
                <path d="M122.298077,24.8942308 C117.695658,28.5717765 113.393583,32.6101968 109.432692,36.9711538 C113.287669,31.7580333 117.59264,26.8932234 122.298077,22.4326923 L122.298077,7.61538462 C122.287507,3.41390977 118.884167,0.0105697982 114.682692,4.26325641e-14 L85.8942308,4.26325641e-14 C81.7057557,0.0416794542 78.3205256,3.4269095 78.2788462,7.61538462 L78.2788462,22.4326923 C82.9868617,26.8907309 87.2920414,31.755777 91.1442308,36.9711538 C87.1833401,32.6101968 82.881265,28.5717765 78.2788462,24.8942308 C67.25,16.0865385 56.5576923,11.1538462 53.6153846,14.5576923 C57.6538462,13.0576923 67.9519231,19.0480769 78.2788462,28.2788462 C86.7115385,35.7980769 95.1634615,45.4711538 100.288462,54.9711538 C105.413462,45.4711538 113.875,35.7980769 122.298077,28.2788462 C132.634615,19.0480769 142.923077,13.0576923 146.961538,14.5576923 C144.019231,11.1538462 133.326923,16.0865385 122.298077,24.8942308 Z M100.288462,36.375 C95.7692854,36.375 92.1057692,32.7114839 92.1057692,28.1923077 C92.1057692,23.6731315 95.7692854,20.0096154 100.288462,20.0096154 C104.807638,20.0096154 108.471154,23.6731315 108.471154,28.1923077 C108.471154,30.3624926 107.609051,32.4437924 106.074499,33.9783449 C104.539946,35.5128974 102.458646,36.375 100.288462,36.375 L100.288462,36.375 Z" id="Shape" fill="url(#radialGradient-9)"></path>
                <path d="M122.298077,28.2788462 C113.875,35.7980769 105.413462,45.4711538 100.288462,54.9711538 L100.288462,60.2692308 C110.5,38.4807692 139.509615,12.1923077 146.961538,14.5576923 C142.923077,13.0576923 132.634615,19.0480769 122.298077,28.2788462 Z" id="Path" fill="url(#radialGradient-10)"></path>
                <path d="M100.288462,54.9807692 C107.980769,42.1057692 123.586538,26.3653846 136.346154,17.7692308 C131.336195,20.8158949 126.631727,24.3386108 122.298077,28.2884615 C113.875,35.7980769 105.413462,45.4711538 100.288462,54.9807692 Z" id="Path" fill="url(#radialGradient-11)"></path>
                <path d="M78.2788462,28.2788462 C67.9519231,19.0480769 57.6538462,13.0576923 53.6153846,14.5576923 C61.0769231,12.2307692 90.0865385,38.4807692 100.288462,60.2692308 L100.288462,54.9807692 C95.2115385,45.4711538 86.7115385,35.7980769 78.2788462,28.2788462 Z" id="Path" fill="url(#radialGradient-12)"></path>
                <path d="M78.2788462,28.2788462 C73.9465662,24.3315132 69.2455388,20.8089625 64.2403846,17.7596154 C77,26.3557692 92.6057692,42.0961538 100.288462,54.9711538 C95.2115385,45.4711538 86.7115385,35.7980769 78.2788462,28.2788462 Z" id="Path" fill="url(#radialGradient-13)"></path>
                <path d="M85.8942308,1.52884615 C82.537111,1.53940321 79.8182494,4.25826484 79.8076923,7.61538462 L79.8076923,20.2596154 C91.3201615,11.7672639 104.531996,5.8632661 118.538462,2.95192308 C117.456371,2.05727525 116.096343,1.56766539 114.692308,1.56730769 L85.8942308,1.52884615 Z" id="Path" fill="url(#linearGradient-14)"></path>
            </g>
        </g>
    </g>
</svg>