<?xml version="1.0" standalone="no"?>
<!DOCTYPE svg PUBLIC "-//W3C//DTD SVG 20010904//EN"
 "http://www.w3.org/TR/2001/REC-SVG-20010904/DTD/svg10.dtd">
<svg version="1.0" xmlns="http://www.w3.org/2000/svg"
 width="512.000000pt" height="512.000000pt" viewBox="0 0 512.000000 512.000000"
 preserveAspectRatio="xMidYMid meet">
<metadata>
Created by potrace 1.11, written by Peter Selinger 2001-2013
</metadata>
<g transform="translate(0.000000,512.000000) scale(0.100000,-0.100000)"
fill="#000000" stroke="none">
<path d="M1785 3934 c-233 -48 -338 -103 -505 -265 l-48 -46 67 -7 c89 -9 177
-39 249 -85 33 -22 151 -131 267 -247 114 -115 581 -586 1039 -1047 457 -461
860 -861 896 -888 87 -65 193 -116 304 -144 76 -20 111 -23 211 -20 66 1 131
5 144 9 205 49 358 141 482 288 55 66 128 188 112 188 -4 -1 -34 -7 -65 -14
-66 -16 -210 -14 -283 4 -74 19 -184 72 -251 120 -33 24 -200 185 -372 359
-975 982 -1582 1589 -1627 1625 -85 69 -238 141 -345 161 -42 8 -247 14 -275
9z"/>
<path d="M3120 3929 c-30 -5 -84 -19 -119 -30 -86 -29 -235 -113 -229 -130 2
-4 36 -43 77 -86 170 -179 378 -398 411 -432 80 -84 389 -409 419 -441 18 -19
103 -109 189 -199 87 -91 173 -181 192 -202 50 -53 355 -372 420 -439 105
-109 224 -168 350 -174 119 -6 229 45 268 124 59 120 -50 487 -187 630 -9 9
-79 83 -156 165 -77 82 -161 171 -188 198 -26 28 -107 113 -180 189 -72 77
-159 168 -192 203 -33 34 -123 129 -200 210 -218 231 -249 259 -345 315 -155
91 -355 129 -530 99z"/>
<path d="M1115 3404 c-38 -13 -89 -33 -113 -45 -27 -14 -159 -139 -360 -341
-174 -176 -318 -320 -319 -321 -1 -1 51 -2 115 -2 97 0 130 -4 191 -24 147
-48 180 -78 813 -711 334 -336 611 -605 645 -628 162 -110 315 -154 508 -147
125 4 142 7 242 40 86 29 171 74 239 126 61 47 154 144 180 187 l18 31 -905
905 c-870 870 -906 905 -964 926 -88 33 -200 35 -290 4z"/>
<path d="M325 2492 c-141 -42 -262 -140 -289 -233 -70 -242 -20 -522 132 -734
120 -168 291 -280 506 -332 12 -3 68 -7 125 -9 184 -7 359 45 504 150 73 52
231 209 226 224 -2 6 -126 136 -275 289 -149 153 -329 338 -400 412 -183 190
-263 239 -399 247 -48 3 -89 -2 -130 -14z"/>
</g>
</svg>
